<svg width="128" height="32" viewBox="0 0 128 32" fill="none" xmlns="http://www.w3.org/2000/svg">
<path d="M36.2084 20.7555L28.1042 25.7277L20 20.7555V6.27344L24.5497 17.3534L20.5687 20.4938H25.9715L28.1042 25.2043L30.2369 20.4938H35.6397L31.6587 17.3534L36.2084 6.27344V20.7555Z" fill="white"/>
<path d="M99.3877 13.0679V11.1719H107.552V13.0679H104.623V20.8311H102.321V13.0679H99.3877Z" fill="white"/>
<path d="M92.6766 20.8311H90.1675L93.4265 11.1719H96.5347L99.7937 20.8311H97.2846L95.016 13.6056H94.9405L92.6766 20.8311ZM92.3418 17.0297H97.5864V18.8031H92.3418V17.0297Z" fill="white"/>
<path d="M89.8203 14.6707H87.4621C87.4307 14.4286 87.3662 14.2101 87.2688 14.0151C87.1713 13.8202 87.0424 13.6535 86.882 13.5152C86.7216 13.3768 86.5314 13.2715 86.3113 13.1992C86.0944 13.1237 85.8538 13.086 85.5897 13.086C85.1212 13.086 84.7172 13.2008 84.3776 13.4303C84.0411 13.6598 83.7817 13.9916 83.5994 14.4255C83.4201 14.8594 83.3305 15.3845 83.3305 16.0008C83.3305 16.6422 83.4217 17.1799 83.6041 17.6138C83.7896 18.0445 84.049 18.37 84.3823 18.5901C84.7187 18.807 85.1165 18.9155 85.5756 18.9155C85.8334 18.9155 86.0676 18.8825 86.2783 18.8165C86.4921 18.7504 86.6792 18.6545 86.8396 18.5288C87.0031 18.3998 87.1367 18.2442 87.2405 18.0618C87.3474 17.8763 87.4213 17.6672 87.4621 17.4346L89.8203 17.4487C89.7795 17.8763 89.6553 18.2977 89.4477 18.7127C89.2434 19.1278 88.962 19.5066 88.6035 19.8494C88.2451 20.189 87.808 20.4594 87.2923 20.6606C86.7798 20.8618 86.1918 20.9624 85.5284 20.9624C84.6543 20.9624 83.8713 20.7706 83.1796 20.387C82.491 20.0003 81.947 19.4375 81.5477 18.6986C81.1484 17.9596 80.9487 17.0604 80.9487 16.0008C80.9487 14.938 81.1515 14.0371 81.5571 13.2982C81.9628 12.5593 82.5114 11.9981 83.2032 11.6145C83.8949 11.2309 84.67 11.0391 85.5284 11.0391C86.1132 11.0391 86.654 11.1208 87.1508 11.2843C87.6476 11.4447 88.0847 11.6805 88.462 11.9918C88.8393 12.2999 89.1459 12.6788 89.3817 13.1284C89.6175 13.5781 89.7637 14.0922 89.8203 14.6707Z" fill="white"/>
<path d="M75.2857 20.7452H71.7153V11.0859H75.281C76.2651 11.0859 77.1125 11.2793 77.8231 11.6661C78.5369 12.0497 79.0871 12.6031 79.4739 13.3262C79.8606 14.0463 80.054 14.9078 80.054 15.9109C80.054 16.917 79.8606 17.7817 79.4739 18.5049C79.0903 19.2281 78.5416 19.783 77.8278 20.1698C77.1141 20.5534 76.2667 20.7452 75.2857 20.7452ZM74.05 18.7549H75.1961C75.7369 18.7549 76.1944 18.6637 76.5685 18.4813C76.9459 18.2958 77.2304 17.9955 77.4222 17.5805C77.6172 17.1623 77.7146 16.6057 77.7146 15.9109C77.7146 15.216 77.6172 14.6626 77.4222 14.2507C77.2273 13.8356 76.9396 13.5369 76.5591 13.3545C76.1818 13.169 75.7164 13.0763 75.163 13.0763H74.05V18.7549Z" fill="white"/>
<path d="M64.6699 20.7452V11.0859H67.0046V18.8492H71.023V20.7452H64.6699Z" fill="white"/>
<path d="M62.8981 11.0859V20.7452H60.5635V11.0859H62.8981Z" fill="white"/>
<path d="M49.0195 20.7452L46.2085 11.0859H48.7884L50.2458 17.4154H50.3259L51.9908 11.0859H54.0944L55.7593 17.4295H55.8395L57.3016 11.0859H59.8767L57.0704 20.7452H54.8207L53.0803 14.8874H53.0049L51.2645 20.7452H49.0195Z" fill="white"/>
</svg>
