<svg width="24" height="24" viewBox="0 0 24 24" fill="none" xmlns="http://www.w3.org/2000/svg">
<path d="M10.875 13.6383V13.5492C10.8813 12.968 10.9391 12.5055 11.0485 12.1617C11.161 11.818 11.3203 11.5398 11.5266 11.3273C11.7328 11.1148 11.9813 10.9211 12.2719 10.7461C12.4594 10.6273 12.6281 10.4945 12.7782 10.3477C12.9282 10.2008 13.0469 10.032 13.1344 9.84141C13.2219 9.65078 13.2656 9.43984 13.2656 9.20859C13.2656 8.93047 13.2 8.68984 13.0688 8.48672C12.9375 8.28359 12.7625 8.12734 12.5438 8.01797C12.3281 7.90547 12.0875 7.84922 11.8219 7.84922C11.5813 7.84922 11.3516 7.89922 11.1328 7.99922C10.9141 8.09922 10.7328 8.25547 10.5891 8.46797C10.4453 8.67734 10.3625 8.94766 10.3406 9.27891H8.91565C8.93752 8.71641 9.07971 8.24141 9.34221 7.85391C9.60471 7.46328 9.95159 7.16797 10.3828 6.96797C10.8172 6.76797 11.2969 6.66797 11.8219 6.66797C12.3969 6.66797 12.9 6.77578 13.3313 6.99141C13.7625 7.20391 14.0969 7.50234 14.3344 7.88672C14.575 8.26797 14.6953 8.71328 14.6953 9.22266C14.6953 9.57266 14.6406 9.88828 14.5313 10.1695C14.4219 10.4477 14.2656 10.6961 14.0625 10.9148C13.8625 11.1336 13.6219 11.3273 13.3406 11.4961C13.075 11.6617 12.8594 11.8336 12.6938 12.0117C12.5313 12.1898 12.4125 12.4008 12.3375 12.6445C12.2625 12.8883 12.2219 13.1898 12.2156 13.5492V13.6383H10.875ZM11.5828 16.4883C11.3266 16.4883 11.1063 16.3977 10.9219 16.2164C10.7375 16.032 10.6453 15.8102 10.6453 15.5508C10.6453 15.2945 10.7375 15.0758 10.9219 14.8945C11.1063 14.7102 11.3266 14.618 11.5828 14.618C11.836 14.618 12.0547 14.7102 12.2391 14.8945C12.4266 15.0758 12.5203 15.2945 12.5203 15.5508C12.5203 15.7227 12.4766 15.8805 12.3891 16.0242C12.3047 16.1648 12.1922 16.2773 12.0516 16.3617C11.911 16.4461 11.7547 16.4883 11.5828 16.4883Z" fill="#A0A0B0"/>
</svg>
