<svg width="24" height="24" viewBox="0 0 24 24" fill="none" xmlns="http://www.w3.org/2000/svg">
<g clip-path="url(#clip0_15743_176076)">
<path d="M12.8045 4.5309L11.3938 5.94166L9.05562 3.60351L9.05424 9.7465L7.05929 9.74581L7.06067 3.6042L4.72321 5.94166L3.31314 4.53159L7.35414 0.490583C7.74372 0.101355 8.37477 0.101142 8.76421 0.490583L12.8045 4.5309Z" fill="#30313E"/>
<path d="M11.1111 18.7762L12.5218 17.3654L14.8593 19.7029V14.2504L16.8542 14.2497V19.7036L19.1924 17.3654L20.6024 18.7755L16.5621 22.8158C16.1726 23.2054 15.5409 23.206 15.1514 22.8165L11.1111 18.7762Z" fill="#30313E"/>
<path d="M20.4004 11.0039L20.4004 12.998L3.60059 12.998L3.60059 11.0039L20.4004 11.0039Z" fill="#30313E"/>
</g>
<defs>
<clipPath id="clip0_15743_176076">
<rect width="24" height="24" fill="white"/>
</clipPath>
</defs>
</svg>
