<svg width="24" height="24" viewBox="0 0 24 24" fill="none" xmlns="http://www.w3.org/2000/svg">
<path d="M11.8556 4.33717C12.4413 4.16238 13.0659 4.12762 13.5998 4.38698C14.1656 4.66202 14.4959 5.20075 14.5959 5.88014C14.6927 6.5389 14.5838 7.36278 14.2726 8.34401C14.0421 9.07087 13.6917 9.91012 13.2033 10.8704C13.2424 10.8005 13.2817 10.7314 13.3215 10.6633C13.7317 9.962 14.1858 9.3389 14.6115 8.85182C15.0222 8.38198 15.4513 7.98591 15.8185 7.79811C15.9156 7.74851 16.0343 7.69955 16.1652 7.67702C16.2954 7.65465 16.4825 7.65167 16.6701 7.74831C17.0895 7.96464 17.0975 8.41584 17.0822 8.60573C17.0628 8.84482 16.9804 9.12267 16.8615 9.42311C16.739 9.73272 16.5618 10.1044 16.3263 10.5423C15.8252 11.474 15.2297 12.2314 14.5773 12.8362C15.413 13.4128 16.18 14.019 16.8117 14.6194C17.4401 15.2167 17.964 15.8358 18.2775 16.4397C18.5874 17.0368 18.7446 17.7303 18.425 18.3704C17.8652 19.4911 16.4802 19.8361 15.1359 19.7962C13.7332 19.7545 12.0908 19.2987 10.6144 18.4964C9.13845 17.6942 7.77676 16.5166 6.99627 14.9905C6.86195 14.7278 6.74705 14.4553 6.65057 14.1751C6.41686 14.0655 6.19375 13.9451 5.98553 13.8108C5.09161 13.2344 4.40436 12.4041 4.23748 11.4026C4.17724 11.0409 4.18535 10.6894 4.29803 10.3704C4.41446 10.0409 4.6291 9.78429 4.91033 9.60768C5.43726 9.27698 6.14741 9.25371 6.83709 9.34401C6.87362 9.34879 6.9103 9.35509 6.94744 9.36061C7.6917 7.61811 8.85275 6.21524 10.0295 5.31764C10.6338 4.85671 11.2606 4.51486 11.8556 4.33717ZM13.5832 13.6155C13.4925 13.6749 13.4017 13.7327 13.3097 13.7874C13.1772 14.3451 13.118 14.8992 13.1633 15.4251C13.2197 16.0808 13.4358 16.6886 13.8654 17.22C14.28 17.7328 14.9202 18.204 15.883 18.5706C16.6951 18.4818 17.1734 18.1888 17.3508 17.8342C17.4228 17.6899 17.4419 17.4351 17.2121 16.9924C16.9859 16.5566 16.5682 16.0443 15.9846 15.4895C15.3281 14.8656 14.4966 14.2246 13.5832 13.6155ZM11.9865 14.4016C11.6367 14.5233 11.2842 14.617 10.9318 14.6829C10.5578 15.2434 10.1516 15.8301 9.71112 16.4436C10.1616 16.82 10.6601 17.1549 11.1877 17.4417C11.8389 17.7956 12.5213 18.0698 13.1877 18.263C13.0977 18.1691 13.0117 18.0737 12.9318 17.9749C12.333 17.234 12.0421 16.3901 11.968 15.5276C11.9359 15.1546 11.9455 14.7777 11.9865 14.4016ZM8.1867 14.6702C8.37291 14.9951 8.59451 15.3032 8.84393 15.594C9.03596 15.325 9.22157 15.0624 9.39959 14.8049C9.35882 14.8039 9.31811 14.8037 9.27752 14.802C8.90524 14.7865 8.54025 14.7395 8.1867 14.6702ZM7.72576 10.759C7.47423 11.6809 7.4683 12.5222 7.64178 13.2844C8.15287 13.4631 8.72412 13.5777 9.32733 13.6028C9.62238 13.6151 9.92381 13.6037 10.2287 13.5715C10.5515 13.0768 10.8447 12.6055 11.1125 12.1585C9.90393 11.5319 8.72144 11.0392 7.72576 10.759ZM12.1662 12.7346C12.0855 12.8697 12.0033 13.007 11.9181 13.1458C12.0412 13.0948 12.1636 13.039 12.2853 12.9788C12.3004 12.9297 12.3173 12.8811 12.3332 12.8323C12.2776 12.7996 12.2221 12.7669 12.1662 12.7346ZM6.54705 10.5198C6.0094 10.4649 5.69573 10.5315 5.54803 10.6243C5.48626 10.6631 5.45128 10.7065 5.42889 10.7698C5.40278 10.8437 5.38337 10.9789 5.42108 11.2053C5.50119 11.6861 5.81061 12.1686 6.33416 12.5833C6.29451 11.9281 6.35903 11.2391 6.54705 10.5198ZM12.7638 11.6946C12.7684 11.6972 12.773 11.6998 12.7775 11.7024C12.8134 11.6246 12.8496 11.5473 12.8869 11.471C12.8469 11.545 12.8054 11.6192 12.7638 11.6946ZM15.3176 9.87819C15 10.2684 14.6649 10.7417 14.3566 11.2688C14.3241 11.3244 14.2936 11.3814 14.2619 11.4378C14.6269 11.0199 14.9677 10.5354 15.2697 9.97389C15.2869 9.94196 15.3012 9.90911 15.3176 9.87819ZM13.0754 5.46608C12.9152 5.38835 12.6305 5.35796 12.1994 5.48659C11.7774 5.61255 11.2784 5.87403 10.757 6.27174C9.78823 7.01077 8.80308 8.17388 8.13983 9.62917C9.24508 9.94934 10.4909 10.4813 11.7121 11.1174C12.4045 9.86181 12.8609 8.82315 13.1281 7.98073C13.412 7.08545 13.4689 6.46043 13.4094 6.05495C13.3527 5.67005 13.2037 5.52843 13.0754 5.46608Z" fill="#A0A0B0"/>
</svg>
