<svg width="24" height="24" viewBox="0 0 24 24" fill="none" xmlns="http://www.w3.org/2000/svg">
<path d="M11.7939 4.15809C12.0282 3.92382 12.4073 3.92391 12.6416 4.15809C12.8759 4.39241 12.8759 4.77144 12.6416 5.00575L9.84766 7.80068H19.1992C19.5306 7.80068 19.7998 8.06892 19.7998 8.40029C19.7997 8.73158 19.5305 8.9999 19.1992 8.9999H9.84766L12.1953 11.3485C12.1986 11.3517 12.2028 11.3541 12.2061 11.3573L16.0244 15.1757C16.2581 15.4099 16.2582 15.7892 16.0244 16.0234L12.2061 19.8417C11.9718 20.0759 11.5917 20.0759 11.3574 19.8417C11.1233 19.6075 11.1233 19.2284 11.3574 18.9941L14.1514 16.1991H4.7998C4.4685 16.1991 4.2003 15.9308 4.2002 15.5995C4.2002 15.2682 4.46843 14.9999 4.7998 14.9999H14.1514L11.7979 12.6454C11.7967 12.6443 11.795 12.6436 11.7939 12.6425L7.97559 8.82412C7.7415 8.5899 7.74163 8.21076 7.97559 7.97646L11.7939 4.15809Z" fill="#30313E"/>
</svg>
