<svg xmlns="http://www.w3.org/2000/svg" width="20" height="20" viewBox="0 0 20 20" fill="none">
    <path d="M6.64645 6.64645C6.45118 6.84171 6.45118 7.15829 6.64645 7.35355L9.82843 10.5355C10.0237 10.7308 10.3403 10.7308 10.5355 10.5355C10.7308 10.3403 10.7308 10.0237 10.5355 9.82843L7.70711 7L10.5355 4.17157C10.7308 3.97631 10.7308 3.65973 10.5355 3.46447C10.3403 3.2692 10.0237 3.2692 9.82843 3.46447L6.64645 6.64645ZM16 7.5C16.2761 7.5 16.5 7.27614 16.5 7C16.5 6.72386 16.2761 6.5 16 6.5V7V7.5ZM7 7V7.5H16V7V6.5H7V7Z" fill="#8B8DA1"/>
    <path d="M4 12.5C3.72386 12.5 3.5 12.7239 3.5 13C3.5 13.2761 3.72386 13.5 4 13.5V13V12.5ZM13.3536 13.3536C13.5488 13.1583 13.5488 12.8417 13.3536 12.6464L10.1716 9.46447C9.97631 9.2692 9.65973 9.2692 9.46447 9.46447C9.2692 9.65973 9.2692 9.97631 9.46447 10.1716L12.2929 13L9.46447 15.8284C9.2692 16.0237 9.2692 16.3403 9.46447 16.5355C9.65973 16.7308 9.97631 16.7308 10.1716 16.5355L13.3536 13.3536ZM4 13V13.5H13V13V12.5H4V13Z" fill="#8B8DA1"/>
</svg>