<svg xmlns="http://www.w3.org/2000/svg" width="24" height="24" viewBox="0 0 24 24" fill="none">
    <path d="M20 12C20 7.58172 16.4183 4 12 4C7.58172 4 4 7.58172 4 12C4 16.4183 7.58172 20 12 20V22C6.47715 22 2 17.5228 2 12C2 6.47715 6.47715 2 12 2C17.5228 2 22 6.47715 22 12C22 17.5228 17.5228 22 12 22V20C16.4183 20 20 16.4183 20 12Z" fill="#D6D6DE"/>
    <path d="M9.83859 15.3258L8.80359 14.2908L11.2186 11.8758L8.80359 9.46078L9.83859 8.42578L12.2536 10.8408L14.6686 8.42578L15.7036 9.46078L13.2886 11.8758L15.7036 14.2908L14.6686 15.3258L12.2536 12.9108L9.83859 15.3258Z" fill="#BEBECE"/>
</svg>