<svg xmlns="http://www.w3.org/2000/svg" width="24" height="24" viewBox="0 0 24 24" fill="none">
    <path opacity="0.6" d="M20 12C20 7.58172 16.4183 4 12 4C7.58172 4 4 7.58172 4 12C4 16.4183 7.58172 20 12 20V22C6.47715 22 2 17.5228 2 12C2 6.47715 6.47715 2 12 2C17.5228 2 22 6.47715 22 12C22 17.5228 17.5228 22 12 22V20C16.4183 20 20 16.4183 20 12Z" fill="#D7A820"/>
    <path d="M12.8288 7.27344L12.6882 13.4354H11.316L11.1796 7.27344H12.8288ZM12.0021 16.0945C11.7436 16.0945 11.522 16.0036 11.3373 15.8217C11.1555 15.6399 11.0646 15.4183 11.0646 15.157C11.0646 14.9013 11.1555 14.6825 11.3373 14.5007C11.522 14.3189 11.7436 14.228 12.0021 14.228C12.2549 14.228 12.4737 14.3189 12.6583 14.5007C12.8458 14.6825 12.9396 14.9013 12.9396 15.157C12.9396 15.3303 12.8955 15.4879 12.8075 15.63C12.7222 15.772 12.6086 15.8857 12.4666 15.9709C12.3274 16.0533 12.1725 16.0945 12.0021 16.0945Z" fill="#D7A820"/>
</svg>