<svg xmlns="http://www.w3.org/2000/svg" width="24" height="24" viewBox="0 0 24 24" fill="none">
    <path d="M10.4365 19.8477C10.9406 19.9474 11.4632 20 12 20V22C11.3322 22 10.68 21.9325 10.0488 21.8076L10.4365 19.8477ZM13.5635 19.8477L13.9502 21.8076C13.3193 21.9324 12.6675 22 12 22V20C12.5368 20 13.0594 19.9474 13.5635 19.8477ZM5.34668 16.4434C5.9313 17.3166 6.68342 18.0687 7.55664 18.6533L7 19.4844L6.44336 20.3135C5.35349 19.5836 4.41531 18.6456 3.68555 17.5557L5.34668 16.4434ZM20.3135 17.5557C19.5836 18.6457 18.6457 19.5836 17.5557 20.3135L16.4434 18.6533C17.3166 18.0687 18.0687 17.3166 18.6533 16.4434L20.3135 17.5557ZM2 12C2 11.3322 2.06656 10.68 2.19141 10.0488L3.1709 10.2422L4.15234 10.4365C4.05263 10.9406 4 11.4632 4 12C4 12.5368 4.05263 13.0594 4.15234 13.5635L3.16992 13.7568L3.1709 13.7578L2.19141 13.9502C2.06669 13.3194 2 12.6674 2 12ZM22 12C22 12.6675 21.9324 13.3193 21.8076 13.9502L20.8291 13.7578L19.8477 13.5635C19.9474 13.0594 20 12.5368 20 12C20 11.4632 19.9474 10.9406 19.8477 10.4365L21.8076 10.0488C21.9325 10.68 22 11.3322 22 12ZM7.55664 5.34668C6.68342 5.9313 5.9313 6.68342 5.34668 7.55664L3.68555 6.44336C4.41534 5.35352 5.35352 4.41534 6.44336 3.68555L7.55664 5.34668ZM17.5557 3.68555C18.6456 4.41531 19.5836 5.35349 20.3135 6.44336L18.6533 7.55664C18.0687 6.68342 17.3166 5.9313 16.4434 5.34668L17.5557 3.68555ZM12 2C12.6674 2 13.3194 2.06669 13.9502 2.19141L13.7725 3.09766L13.5635 4.15234C13.0594 4.05263 12.5368 4 12 4C11.4632 4 10.9406 4.05263 10.4365 4.15234L10.0488 2.19141C10.68 2.06656 11.3322 2 12 2Z" fill="#D6D6DE"/>
</svg>