<svg xmlns="http://www.w3.org/2000/svg" width="24" height="24" viewBox="0 0 24 24" fill="none">
    <path d="M20 12C20 7.58172 16.4183 4 12 4C7.58172 4 4 7.58172 4 12C4 16.4183 7.58172 20 12 20V22C6.47715 22 2 17.5228 2 12C2 6.47715 6.47715 2 12 2C17.5228 2 22 6.47715 22 12C22 17.5228 17.5228 22 12 22V20C16.4183 20 20 16.4183 20 12Z" fill="#D2DDFF"/>
    <path d="M7.41656 12.2482L8.43077 11.2212L10.4975 13.2539L14.9677 8.80078L15.9904 9.82777L10.4975 15.2994L7.41656 12.2482Z" fill="#6687FF"/>
</svg>

