<svg width="24" height="24" viewBox="0 0 24 24" fill="none" xmlns="http://www.w3.org/2000/svg">
<g clip-path="url(#clip0_4926_29254)">
<path fill-rule="evenodd" clip-rule="evenodd" d="M12 22C17.5228 22 22 17.5228 22 12C22 6.47715 17.5228 2 12 2C6.47715 2 2 6.47715 2 12C2 17.5228 6.47715 22 12 22ZM12 24C18.6274 24 24 18.6274 24 12C24 5.37258 18.6274 0 12 0C5.37258 0 0 5.37258 0 12C0 18.6274 5.37258 24 12 24Z" fill="#141414"/>
<path d="M11.2832 14.2301V14.0852C11.286 13.5881 11.3301 13.1918 11.4153 12.8963C11.5034 12.6009 11.6312 12.3622 11.7988 12.1804C11.9664 11.9986 12.1681 11.8338 12.4039 11.6861C12.5801 11.5724 12.7377 11.4545 12.877 11.3324C13.0162 11.2102 13.127 11.0753 13.2093 10.9276C13.2917 10.777 13.3329 10.6094 13.3329 10.4247C13.3329 10.2287 13.286 10.0568 13.1923 9.90909C13.0985 9.76136 12.9721 9.64773 12.813 9.56818C12.6568 9.48864 12.4835 9.44886 12.2931 9.44886C12.1085 9.44886 11.9338 9.49006 11.769 9.57244C11.6042 9.65199 11.4693 9.77131 11.3642 9.9304C11.2591 10.0866 11.2022 10.2813 11.1937 10.5142H9.45508C9.46928 9.94602 9.60565 9.47727 9.86417 9.10795C10.1227 8.7358 10.465 8.45881 10.8912 8.27699C11.3173 8.09233 11.7875 8 12.3017 8C12.867 8 13.367 8.09375 13.8017 8.28125C14.2363 8.46591 14.5772 8.73438 14.8244 9.08665C15.0716 9.43892 15.1951 9.86364 15.1951 10.3608C15.1951 10.6932 15.1397 10.9886 15.0289 11.2472C14.921 11.5028 14.769 11.7301 14.573 11.929C14.377 12.125 14.1454 12.3026 13.8784 12.4616C13.6539 12.5952 13.4693 12.7344 13.3244 12.8793C13.1824 13.0241 13.0758 13.1918 13.0048 13.3821C12.9366 13.5724 12.9011 13.8068 12.8983 14.0852V14.2301H11.2832ZM12.127 16.9574C11.8429 16.9574 11.6 16.858 11.3983 16.6591C11.1994 16.4574 11.1014 16.2159 11.1042 15.9347C11.1014 15.6562 11.1994 15.4176 11.3983 15.2188C11.6 15.0199 11.8429 14.9205 12.127 14.9205C12.3968 14.9205 12.6341 15.0199 12.8386 15.2188C13.0431 15.4176 13.1468 15.6562 13.1497 15.9347C13.1468 16.1222 13.0971 16.294 13.0005 16.4503C12.9068 16.6037 12.7832 16.7273 12.6298 16.821C12.4764 16.9119 12.3088 16.9574 12.127 16.9574Z" fill="black"/>
</g>
<defs>
<clipPath id="clip0_4926_29254">
<rect width="24" height="24" fill="white"/>
</clipPath>
</defs>
</svg>
