<svg width="24" height="24" viewBox="0 0 24 24" fill="none" xmlns="http://www.w3.org/2000/svg">
<g clip-path="url(#clip0_9278_333788)">
<circle cx="12" cy="12" r="12" fill="#EDBF3D"/>
<path d="M13.1866 7.09375L12.9789 14.7322H11.0293L10.8162 7.09375H13.1866ZM12.0041 18.1413C11.6525 18.1413 11.3507 18.017 11.0985 17.7685C10.8464 17.5163 10.7221 17.2145 10.7257 16.8629C10.7221 16.5149 10.8464 16.2166 11.0985 15.968C11.3507 15.7195 11.6525 15.5952 12.0041 15.5952C12.3414 15.5952 12.6379 15.7195 12.8936 15.968C13.1493 16.2166 13.2789 16.5149 13.2825 16.8629C13.2789 17.0973 13.2168 17.3121 13.096 17.5075C12.9789 17.6992 12.8244 17.8537 12.6326 17.9709C12.4409 18.0845 12.2313 18.1413 12.0041 18.1413Z" fill="white"/>
</g>
<defs>
<clipPath id="clip0_9278_333788">
<rect width="24" height="24" fill="white"/>
</clipPath>
</defs>
</svg>
