<svg width="21" height="20" viewBox="0 0 21 20" fill="none" xmlns="http://www.w3.org/2000/svg">
<path d="M1.875 15.5425V13.6378L17.1131 13.3203V15.5425C16.4782 15.9658 14.129 16.8759 9.81151 17.1298C5.49405 17.3838 2.72156 16.1775 1.875 15.5425Z" fill="#FBEDC3"/>
<ellipse cx="9.49405" cy="12.686" rx="7.61905" ry="1.90476" fill="#FBEDC3" stroke="#9E7A11" stroke-width="0.833333"/>
<path d="M17.1131 15.2344C17.1131 16.2863 13.7019 17.1391 9.49405 17.1391C5.28616 17.1391 1.875 16.2863 1.875 15.2344" stroke="#9E7A11" stroke-width="0.833333"/>
<path d="M17.1094 12.6875V15.2272" stroke="#9E7A11" stroke-width="0.833333"/>
<path d="M1.875 12.6875V15.2272" stroke="#9E7A11" stroke-width="0.833333"/>
<path d="M4.57031 12.3707V10.4659L19.8084 10.1484V12.3707C19.1735 12.7939 16.8243 13.704 12.5068 13.958C8.18936 14.2119 5.41687 13.0056 4.57031 12.3707Z" fill="#FBEDC3"/>
<ellipse cx="12.1894" cy="9.51414" rx="7.61905" ry="1.90476" fill="#FBEDC3" stroke="#9E7A11" stroke-width="0.833333"/>
<path fill-rule="evenodd" clip-rule="evenodd" d="M4.12988 9.53906V12.0787H5.01877V9.53906H4.12988ZM19.392 12.0787V9.53906H20.2254V12.0787H19.392ZM6.90695 13.0286C8.24402 13.3628 10.1132 13.574 12.1934 13.574C14.2735 13.574 16.1427 13.3628 17.4798 13.0286C18.1515 12.8606 18.6656 12.6673 19.0017 12.4687C19.3656 12.2535 19.3958 12.1107 19.3958 12.0859H20.2291C20.2291 12.5872 19.8328 12.9454 19.4257 13.1861C18.9907 13.4432 18.3889 13.6603 17.6819 13.837C16.2614 14.1922 14.3211 14.4074 12.1934 14.4074C10.0656 14.4074 8.12532 14.1922 6.70484 13.837C5.9978 13.6603 5.39607 13.4432 4.96106 13.1861C4.55394 12.9454 4.15766 12.5872 4.15766 12.0859H4.99099C4.99099 12.1107 5.02111 12.2535 5.38508 12.4687C5.72116 12.6673 6.23521 12.8606 6.90695 13.0286Z" fill="#9E7A11"/>
<path d="M1.55469 9.2066V7.30184L16.7928 6.98438V9.2066C16.1579 9.62988 13.8087 10.5399 9.49119 10.7939C5.17373 11.0479 2.40125 9.84152 1.55469 9.2066Z" fill="#FBEDC3"/>
<ellipse cx="9.17373" cy="6.35007" rx="7.61905" ry="1.90476" fill="#FBEDC3" stroke="#9E7A11" stroke-width="0.833333"/>
<path fill-rule="evenodd" clip-rule="evenodd" d="M16.3762 8.89125V6.35156H17.2096V8.89125H16.3762ZM3.89114 9.84108C5.2282 10.1753 7.09742 10.3865 9.17756 10.3865C11.2577 10.3865 13.1269 10.1753 14.464 9.84108C15.1357 9.67315 15.6498 9.47981 15.9859 9.28116C16.3498 9.06603 16.3799 8.92317 16.3799 8.89844H17.2133C17.2133 9.39969 16.817 9.75792 16.4099 9.99855C15.9749 10.2557 15.3731 10.4728 14.6661 10.6495C13.2456 11.0047 11.3053 11.2199 9.17756 11.2199C7.04981 11.2199 5.10951 11.0047 3.68902 10.6495C2.98199 10.4728 2.38025 10.2557 1.94524 9.99855C1.53813 9.75792 1.14185 9.39969 1.14185 8.89844H1.97518C1.97518 8.92317 2.00529 9.06603 2.36927 9.28116C2.70535 9.47981 3.2194 9.67315 3.89114 9.84108ZM1.14185 6.35156V8.89125H1.97518V6.35156H1.14185Z" fill="#9E7A11"/>
</svg>
