<svg width="545" height="116" viewBox="0 0 545 116" fill="none" xmlns="http://www.w3.org/2000/svg">
<rect x="32" y="6" width="6" height="14" transform="rotate(30 32 6)" fill="#8DA6FF"/>
<rect x="439.07" y="69.165" width="6" height="14" transform="rotate(90.6741 439.07 69.165)" fill="#8DA6FF"/>
<rect x="333.286" y="75.0537" width="6" height="14" transform="rotate(30 333.286 75.0537)" fill="#489F64"/>
<rect x="389.613" y="47.0049" width="6" height="14" transform="rotate(90.6741 389.613 47.0049)" fill="#489F64"/>
<rect x="471.613" y="58.0049" width="6" height="14" transform="rotate(-117.638 471.613 58.0049)" fill="#FFBB00"/>
<rect x="56.6128" y="33" width="6" height="14" transform="rotate(76.4973 56.6128 33)" fill="#FFBB00"/>
<rect x="505.783" y="35.8096" width="6" height="14" transform="rotate(-117.638 505.783 35.8096)" fill="#489F64"/>
<rect x="143.613" y="31" width="6" height="14" transform="rotate(76.4973 143.613 31)" fill="#489F64"/>
<rect x="206.613" y="9" width="6" height="14" transform="rotate(-30 206.613 9)" fill="#FFBB00"/>
<rect x="401.599" y="113.467" width="6" height="14" transform="rotate(164.135 401.599 113.467)" fill="#FFBB00"/>
<rect x="279" y="32" width="6" height="14" transform="rotate(-30 279 32)" fill="#4971FF"/>
<rect x="143.599" y="59.4668" width="6" height="14" transform="rotate(164.135 143.599 59.4668)" fill="#4971FF"/>
<rect x="407.613" y="47.0049" width="6" height="14" transform="rotate(-177.638 407.613 47.0049)" fill="#4971FF"/>
<rect x="93.9756" y="36" width="6" height="14" transform="rotate(16.4973 93.9756 36)" fill="#4971FF"/>
<rect x="543.995" y="24.2354" width="6" height="14" transform="rotate(-177.638 543.995 24.2354)" fill="#4971FF"/>
<rect x="357.976" y="75" width="6" height="14" transform="rotate(16.4973 357.976 75)" fill="#4971FF"/>
<rect x="424.613" y="32.0049" width="6" height="14" transform="rotate(18.9622 424.613 32.0049)" fill="#FA6F77"/>
<rect x="5.02637" y="36" width="6" height="14" transform="rotate(-146.902 5.02637 36)" fill="#FA6F77"/>
<rect x="505.549" y="47" width="6" height="14" transform="rotate(18.9622 505.549 47)" fill="#FA6F77"/>
<rect x="261.026" y="62.0049" width="6" height="14" transform="rotate(-146.902 261.026 62.0049)" fill="#FA6F77"/>
<rect x="222.75" y="47.4326" width="6" height="14" transform="rotate(-128.676 222.75 47.4326)" fill="#FA6F77"/>
<rect x="146.735" y="93" width="6" height="14" transform="rotate(65.4595 146.735 93)" fill="#FA6F77"/>
<rect x="306.75" y="50.4326" width="6" height="14" transform="rotate(-128.676 306.75 50.4326)" fill="#FA6F77"/>
<rect x="97.7354" width="6" height="14" transform="rotate(65.4595 97.7354 0)" fill="#FA6F77"/>
<rect x="468.75" y="106.433" width="6" height="14" transform="rotate(-128.676 468.75 106.433)" fill="#4D26BC"/>
<rect x="190.735" y="50" width="6" height="14" transform="rotate(65.4595 190.735 50)" fill="#4D26BC"/>
</svg>
