<svg width="24" height="24" viewBox="0 0 24 24" fill="none" xmlns="http://www.w3.org/2000/svg">
<path d="M15 6.15234C15.5509 6.15234 15.9971 6.59851 15.9971 7.14941C15.9971 7.70032 15.5509 8.14648 15 8.14648H9C8.4491 8.14648 8.00293 7.70032 8.00293 7.14941C8.00293 6.59851 8.4491 6.15234 9 6.15234H15Z" fill="#30313E"/>
<path d="M15 9.15234C15.5509 9.15234 15.9971 9.59851 15.9971 10.1494C15.9971 10.7003 15.5509 11.1465 15 11.1465H9C8.4491 11.1465 8.00293 10.7003 8.00293 10.1494C8.00293 9.59851 8.4491 9.15234 9 9.15234H15Z" fill="#30313E"/>
<path d="M18.5029 4.14941C18.5029 3.87189 18.2775 3.64648 18 3.64648H6C5.72248 3.64648 5.49707 3.87189 5.49707 4.14941V19.1494C5.49707 19.4269 5.72248 19.6523 6 19.6523H13.2529V16.1494C13.2529 14.7701 14.3707 13.6523 15.75 13.6523H18.5029V4.14941ZM15.2471 17.9941L17.3018 15.6465H15.75C15.4725 15.6465 15.2471 15.8719 15.2471 16.1494V17.9941ZM20.4971 14.6494C20.4971 14.891 20.4101 15.1248 20.251 15.3066L15.001 21.3066C14.8116 21.5231 14.5376 21.6465 14.25 21.6465H6C4.62067 21.6465 3.50293 20.5287 3.50293 19.1494V4.14941C3.50293 2.77008 4.62067 1.65234 6 1.65234H18C19.3793 1.65234 20.4971 2.77008 20.4971 4.14941V14.6494Z" fill="#30313E"/>
</svg>
