<svg width="24" height="24" viewBox="0 0 24 24" fill="none" xmlns="http://www.w3.org/2000/svg">
<path fill-rule="evenodd" clip-rule="evenodd" d="M14 8H6C4.89543 8 4 8.89543 4 10V18C4 19.1046 4.89543 20 6 20H14C15.1046 20 16 19.1046 16 18V10C16 8.89543 15.1046 8 14 8ZM6 6C3.79086 6 2 7.79086 2 10V18C2 20.2091 3.79086 22 6 22H14C16.2091 22 18 20.2091 18 18V10C18 7.79086 16.2091 6 14 6H6Z" fill="#141414"/>
<path fill-rule="evenodd" clip-rule="evenodd" d="M11 3H19C20.1046 3 21 3.89543 21 5V13C21 14.1046 20.1046 15 19 15H18.7336V17H19C21.2091 17 23 15.2091 23 13V5C23 2.79086 21.2091 1 19 1H11C8.79086 1 7 2.79086 7 5V5.26667H9V5C9 3.89543 9.89543 3 11 3Z" fill="#141414"/>
</svg>
