<svg width="24" height="24" viewBox="0 0 24 24" fill="none" xmlns="http://www.w3.org/2000/svg">
<path fill-rule="evenodd" clip-rule="evenodd" d="M10.2 3H6.6C4.61177 3 3 4.61177 3 6.6V17.4C3 19.3882 4.61177 21 6.6 21H17.4C19.3882 21 21 19.3882 21 17.4V13.8003H19.2V17.4C19.2 18.3941 18.3941 19.2 17.4 19.2H6.6C5.60589 19.2 4.8 18.3941 4.8 17.4V6.6C4.8 5.60589 5.60589 4.8 6.6 4.8H10.2V3Z" fill="#141414"/>
<path fill-rule="evenodd" clip-rule="evenodd" d="M19.0471 4C18.7944 4 18.5521 4.10039 18.3734 4.27909L9.82358 12.8289L9.37439 14.6256L11.1711 14.1764L19.7209 5.62666C19.8996 5.44796 20 5.20559 20 4.95287C20 4.70016 19.8996 4.45779 19.7209 4.27909C19.5422 4.10039 19.2999 4 19.0471 4ZM16.9591 2.86488C17.5129 2.31111 18.264 2 19.0471 2C19.8303 2 20.5814 2.31111 21.1351 2.86488C21.6889 3.41865 22 4.16972 22 4.95287C22 5.73603 21.6889 6.4871 21.1351 7.04087L12.3895 15.7865C12.2613 15.9147 12.1008 16.0056 11.9249 16.0495L8.24256 16.9701C7.90178 17.0553 7.54129 16.9555 7.29291 16.7071C7.04453 16.4587 6.94468 16.0982 7.02988 15.7575L7.95047 12.0751C7.99443 11.8993 8.08535 11.7387 8.21351 11.6105L16.9591 2.86488Z" fill="#141414"/>
</svg>
