<svg width="20" height="20" viewBox="0 0 20 20" fill="none" xmlns="http://www.w3.org/2000/svg">
    <path fill-rule="evenodd" clip-rule="evenodd"
        d="M8.5 2.5H5.5C3.84315 2.5 2.5 3.84315 2.5 5.5V14.5C2.5 16.1569 3.84315 17.5 5.5 17.5H14.5C16.1569 17.5 17.5 16.1569 17.5 14.5V11.5002H16V14.5C16 15.3284 15.3284 16 14.5 16H5.5C4.67157 16 4 15.3284 4 14.5V5.5C4 4.67157 4.67157 4 5.5 4H8.5V2.5Z"
        fill="#141414" />
    <path fill="#BEBECE"
        d="M14.9356 2.93999C15.2173 2.65827 15.5994 2.5 15.9978 2.5C16.3962 2.5 16.7783 2.65827 17.06 2.93999C17.3417 3.22171 17.5 3.6038 17.5 4.00221C17.5 4.40062 17.3417 4.78272 17.06 5.06443L10.3326 11.7919L7.5 12.5L8.20815 9.6674L14.9356 2.93999Z"
        stroke-width="1.66667" stroke-linecap="round" stroke-linejoin="round" />
</svg>