<svg width="24" height="24" viewBox="0 0 24 24" fill="none" xmlns="http://www.w3.org/2000/svg">
<path d="M7.10001 8C7.10001 8 7.54464 8.82212 7.96126 9.23875C8.37789 9.65537 9.20001 10.1 9.20001 10.1C9.20001 10.1 8.37789 10.5446 7.96126 10.9613C7.54464 11.3779 7.10001 12.2 7.10001 12.2C7.10001 12.2 6.65537 11.3779 6.23875 10.9613C5.82212 10.5446 5 10.1 5 10.1C5 10.1 5.82212 9.65537 6.23875 9.23875C6.65537 8.82212 7.10001 8 7.10001 8Z" fill="#A0A0B0"/>
<path d="M12.5625 5.79102C12.5641 5.7951 12.5661 5.80145 12.5693 5.80957C12.5763 5.82714 12.5876 5.85411 12.6016 5.88867C12.6297 5.95815 12.6714 6.06032 12.7256 6.18652C12.8342 6.43927 12.9912 6.78861 13.1846 7.17383C13.58 7.96153 14.0971 8.83629 14.6309 9.37012C15.1647 9.90392 16.0394 10.421 16.8271 10.8164C17.2123 11.0097 17.5617 11.1668 17.8145 11.2754C17.9406 11.3296 18.0428 11.3713 18.1123 11.3994C18.1469 11.4134 18.1738 11.4247 18.1914 11.4316C18.2 11.435 18.2069 11.4379 18.2109 11.4395C18.2125 11.44 18.214 11.4401 18.2148 11.4404L18.2158 11.4414V12.5605L18.2148 12.5615C18.214 12.5618 18.2125 12.5619 18.2109 12.5625C18.2069 12.5641 18.2 12.5669 18.1914 12.5703C18.1738 12.5772 18.1469 12.5885 18.1123 12.6025C18.0428 12.6307 17.9406 12.6723 17.8145 12.7266C17.5617 12.8352 17.2123 12.9922 16.8271 13.1855C16.0394 13.581 15.1647 14.098 14.6309 14.6318C14.0971 15.1657 13.58 16.0404 13.1846 16.8281C12.9912 17.2133 12.8342 17.5627 12.7256 17.8154C12.6714 17.9416 12.6297 18.0438 12.6016 18.1133C12.5876 18.1478 12.5763 18.1748 12.5693 18.1924C12.5661 18.2005 12.5641 18.2069 12.5625 18.2109C12.5617 18.2129 12.5609 18.2149 12.5605 18.2158L11.4082 18.0996L11.4043 18.0801C11.4004 18.0607 11.3941 18.0287 11.3838 17.9863C11.363 17.9014 11.3279 17.7735 11.2734 17.6143C11.1641 17.2947 10.9775 16.8519 10.6709 16.375C10.1734 15.6012 9.35476 14.7269 8.01172 14.1309C8.2055 13.8198 8.43936 13.4616 8.69043 13.123C10.1608 13.8226 11.0968 14.8199 11.6797 15.7266C11.8292 15.9592 11.9526 16.1867 12.0586 16.3994C12.0765 16.3632 12.0938 16.326 12.1123 16.2891C12.517 15.483 13.1043 14.4612 13.7822 13.7832C14.4602 13.1053 15.482 12.5179 16.2881 12.1133C16.367 12.0737 16.446 12.0376 16.5215 12.001C16.446 11.9644 16.367 11.9283 16.2881 11.8887C15.482 11.484 14.4602 10.8967 13.7822 10.2188C13.1043 9.54075 12.517 8.51899 12.1123 7.71289C12.0725 7.63364 12.0368 7.55437 12 7.47852C11.9633 7.55432 11.9274 7.63369 11.8877 7.71289C11.5774 8.33099 11.1582 9.07476 10.6748 9.69434C10.348 9.47658 10.0057 9.23248 9.70703 8.98242C10.1168 8.46356 10.5048 7.79271 10.8154 7.17383C11.0088 6.78861 11.1658 6.43929 11.2744 6.18652C11.3287 6.06031 11.3713 5.95814 11.3994 5.88867C11.4134 5.8542 11.4238 5.82709 11.4307 5.80957C11.434 5.80125 11.4369 5.7951 11.4385 5.79102C11.4393 5.78896 11.4401 5.787 11.4404 5.78613L12.5605 5.78516C12.5609 5.7861 12.5617 5.78903 12.5625 5.79102Z" fill="#A0A0B0"/>
</svg>
