<svg xmlns="http://www.w3.org/2000/svg" width="24" height="24" viewBox="0 0 24 24" fill="none">
    <g clip-path="url(#clip0_19668_80351)">
        <path d="M14.8887 18.2207L12 22.5L9.11035 18.2207L12 17.457L14.8887 18.2207ZM6.54004 11.9971L5.77441 14.8867L1.5 12L5.77637 9.11133L6.54004 11.9971ZM22.5 12L18.2246 14.8867L17.46 11.9971L18.2227 9.11133L22.5 12ZM14.8857 5.77246L12 6.53711L9.11328 5.77246L12 1.5L14.8857 5.77246Z" fill="#30313E"/>
        <path d="M19.4975 14.999C19.4964 16.4822 19.4799 17.2595 19.173 17.8619C18.8853 18.4264 18.4261 18.8857 17.8616 19.1733C17.2591 19.4801 16.4815 19.4974 14.998 19.4985C15.1221 19.3751 15.255 19.2456 15.3944 19.1063L19.1067 15.394C19.2455 15.2551 19.3745 15.1227 19.4975 14.999ZM4.8941 15.394L8.60641 19.1063C8.74551 19.2454 8.87748 19.3753 9.0014 19.4985C7.51803 19.4974 6.74028 19.4803 6.13775 19.1733C5.57336 18.8856 5.11401 18.4264 4.82643 17.8619C4.51949 17.2593 4.50163 16.4815 4.5005 14.9976C4.62407 15.1219 4.75448 15.2544 4.8941 15.394ZM14.998 4.50149C16.4815 4.50263 17.2591 4.51989 17.8616 4.82673C18.4261 5.11435 18.8853 5.57359 19.173 6.13806C19.4799 6.74054 19.4964 7.51783 19.4975 9.00101C19.3745 8.8773 19.2455 8.74487 19.1067 8.60603L15.3944 4.89372C15.255 4.75435 15.1221 4.62486 14.998 4.50149ZM4.82643 6.13806C5.11401 5.57364 5.57336 5.11436 6.13775 4.82673C6.74028 4.51973 7.51803 4.50264 9.0014 4.50149C8.87748 4.62466 8.74551 4.75461 8.60641 4.89372L4.8941 8.60603C4.75448 8.74565 4.62407 8.87807 4.5005 9.00239C4.50163 7.51855 4.51949 6.74069 4.82643 6.13806Z" fill="#30313E"/>
        <circle cx="12" cy="12" r="3" fill="#30313E"/>
    </g>
    <defs>
        <clipPath id="clip0_19668_80351">
            <rect width="24" height="24" fill="white"/>
        </clipPath>
    </defs>
</svg>