<svg width="24" height="24" viewBox="0 0 24 24" fill="none" xmlns="http://www.w3.org/2000/svg">
<path fill-rule="evenodd" clip-rule="evenodd" d="M12 19.5C16.1421 19.5 19.5 16.1421 19.5 12C19.5 7.85786 16.1421 4.5 12 4.5C7.85786 4.5 4.5 7.85786 4.5 12C4.5 16.1421 7.85786 19.5 12 19.5ZM12 21C16.9706 21 21 16.9706 21 12C21 7.02944 16.9706 3 12 3C7.02944 3 3 7.02944 3 12C3 16.9706 7.02944 21 12 21Z" fill="#30313E"/>
<path d="M11.2926 16V9.45455H12.8352V16H11.2926ZM12.0682 8.52557C11.8239 8.52557 11.6136 8.4446 11.4375 8.28267C11.2614 8.1179 11.1733 7.92045 11.1733 7.69034C11.1733 7.45739 11.2614 7.25994 11.4375 7.09801C11.6136 6.93324 11.8239 6.85085 12.0682 6.85085C12.3153 6.85085 12.5256 6.93324 12.6989 7.09801C12.875 7.25994 12.9631 7.45739 12.9631 7.69034C12.9631 7.92045 12.875 8.1179 12.6989 8.28267C12.5256 8.4446 12.3153 8.52557 12.0682 8.52557Z" fill="#30313E"/>
</svg>
