<svg version="1.1" id="Layer_1" xmlns="http://www.w3.org/2000/svg" xmlns:xlink="http://www.w3.org/1999/xlink" x="0px" y="0px"
	 width="100%" viewBox="0 0 420 420" enable-background="new 0 0 420 420" xml:space="preserve">
<path fill="#23C9FE" opacity="1.000000" stroke="none" 
	d="
M89.000000,1.000000 
	C99.687561,1.000000 110.375122,1.000000 121.536926,1.402081 
	C122.341888,8.488399 125.626656,13.562886 131.121964,16.986296 
	C136.868271,20.566055 142.752701,24.028063 148.894791,26.849041 
	C167.204529,35.258446 186.880203,37.694275 206.667419,37.729584 
	C219.323853,37.752171 232.012039,35.559063 244.636566,33.967392 
	C260.655792,31.947735 275.784180,26.864145 289.349304,18.119707 
	C295.705505,14.022346 302.834656,9.863566 304.000000,1.000000 
	C316.020905,1.000000 328.041779,1.000000 340.506836,1.361377 
	C340.565094,2.611647 340.410858,3.756780 339.756317,4.348502 
	C334.956268,8.687926 330.315979,13.271216 325.115997,17.082727 
	C319.654358,21.086016 313.928955,25.000181 307.774841,27.724415 
	C298.564453,31.801554 288.971405,35.094173 279.365173,38.171329 
	C271.950073,40.546608 264.363220,42.858932 256.679810,43.827381 
	C239.267181,46.022141 221.746933,47.360939 204.274872,49.092495 
	C203.494263,49.169861 202.757294,49.687458 201.568130,49.998436 
	C194.719879,49.333294 188.261078,48.940941 181.896545,47.945782 
	C170.971710,46.237576 159.893768,44.925053 149.274612,42.009476 
	C138.635345,39.088379 128.221039,34.970909 118.174446,30.361444 
	C104.962624,24.299736 93.667114,15.803374 89.000000,1.000000 
z"/>
<path fill="#7B52FD" opacity="1.000000" stroke="none" 
	d="
M421.000000,322.000000 
	C421.000000,329.354248 421.000000,336.708496 420.699829,344.199768 
	C419.545105,346.892151 418.690521,349.447510 417.450195,352.028046 
	C410.809357,353.661438 403.866913,354.056244 398.441742,357.129486 
	C386.994781,363.613953 374.171051,368.270111 365.488464,379.000854 
	C359.131622,386.857208 352.198486,394.313324 346.520355,402.629364 
	C342.765656,408.128448 340.778473,414.834381 338.000000,421.000000 
	C328.312439,421.000000 318.624878,421.000000 308.490356,420.610474 
	C309.874084,415.664459 311.316589,410.902222 313.603455,406.587494 
	C322.864807,389.113708 333.323700,372.647614 348.692596,359.514862 
	C359.364685,350.395477 369.404755,340.775452 381.894684,333.888580 
	C394.218597,327.093201 407.029083,322.890411 421.000000,322.000000 
z"/>
<path fill="#34A2FC" opacity="1.000000" stroke="none" 
	d="
M421.000000,110.000008 
	C421.000000,117.687584 421.000000,125.375160 420.589935,133.557419 
	C409.589691,135.923401 399.002991,137.814819 388.408539,139.661591 
	C370.301422,142.817917 352.229614,146.208557 334.065002,148.991760 
	C322.468475,150.768631 310.740875,151.724335 299.054901,152.873917 
	C287.365051,154.023895 275.653931,154.956985 264.079285,155.673737 
	C272.102386,147.231232 279.998352,139.100159 288.366150,130.976593 
	C299.361938,129.676376 309.911224,128.543579 320.404480,127.023682 
	C340.930756,124.050545 361.461578,121.077454 381.920746,117.683678 
	C395.011810,115.512131 407.977875,112.587196 421.000000,110.000008 
z"/>
<path fill="#24CCFE" opacity="1.000000" stroke="none" 
	d="
M303.531342,1.000000 
	C302.834656,9.863566 295.705505,14.022346 289.349304,18.119707 
	C275.784180,26.864145 260.655792,31.947735 244.636566,33.967392 
	C232.012039,35.559063 219.323853,37.752171 206.667419,37.729584 
	C186.880203,37.694275 167.204529,35.258446 148.894791,26.849041 
	C142.752701,24.028063 136.868271,20.566055 131.121964,16.986296 
	C125.626656,13.562886 122.341888,8.488399 122.005585,1.402081 
	C132.687561,1.000000 143.375122,1.000000 154.535873,1.388411 
	C155.803864,8.603432 160.380386,12.704057 165.857529,15.657081 
	C177.781387,22.085875 190.958969,24.339848 204.222214,24.841856 
	C222.841309,25.546579 240.909897,22.718430 257.320923,12.894006 
	C261.954437,10.120152 264.804535,6.492918 265.000000,1.000000 
	C277.687561,1.000000 290.375122,1.000000 303.531342,1.000000 
z"/>
<path fill="#2CB3FD" opacity="1.000000" stroke="none" 
	d="
M421.000000,77.000000 
	C421.000000,80.692909 421.000000,84.385818 420.605438,88.561852 
	C402.504730,92.771637 384.845154,96.740364 367.079254,100.156219 
	C349.640472,103.509193 332.102264,106.352837 314.578003,109.239761 
	C313.148621,109.475243 311.490540,108.322632 310.111725,107.487534 
	C310.884399,106.299362 311.484070,105.438683 312.906128,103.397659 
	C298.159729,103.397659 284.585602,103.397659 271.061707,103.066666 
	C272.762390,101.839600 274.318115,100.542267 276.081818,100.125961 
	C280.590149,99.061806 285.231049,98.564789 289.748077,97.531235 
	C309.471619,93.018272 329.281647,88.820381 348.843048,83.681175 
	C365.325806,79.350784 381.495392,73.834808 397.831940,68.938210 
	C403.792145,67.151756 409.834045,65.638000 415.918030,64.386940 
	C417.000580,68.257286 417.927124,71.765953 419.068390,75.203339 
	C419.311432,75.935318 420.335663,76.407906 421.000000,77.000000 
z"/>
<path fill="#5F53F7" opacity="1.000000" stroke="none" 
	d="
M208.000000,421.000000 
	C198.312439,421.000000 188.624878,421.000000 178.490479,420.613403 
	C179.141434,416.928864 179.783051,413.383423 181.414856,410.375122 
	C189.063263,396.274780 196.777191,382.200623 204.906067,368.374817 
	C208.321365,362.565979 213.386414,357.711914 216.676147,351.848511 
	C220.385635,345.236969 222.940521,337.977600 226.457611,330.999451 
	C230.394287,330.800385 233.889191,330.763123 237.344086,330.372314 
	C246.570282,329.328522 255.779282,328.132843 264.924927,327.336670 
	C264.102814,328.509949 263.504669,329.623871 262.575104,330.135101 
	C253.026169,335.386261 247.361908,344.325592 241.699478,352.969147 
	C235.193741,362.899963 230.348526,373.942657 223.602615,383.685791 
	C215.669846,395.143127 211.358124,407.795685 208.000000,421.000000 
z"/>
<path fill="#359BFB" opacity="1.000000" stroke="none" 
	d="
M263.952118,155.985168 
	C275.653931,154.956985 287.365051,154.023895 299.054901,152.873917 
	C310.740875,151.724335 322.468475,150.768631 334.065002,148.991760 
	C352.229614,146.208557 370.301422,142.817917 388.408539,139.661591 
	C399.002991,137.814819 409.589691,135.923401 420.589935,134.026047 
	C421.000000,139.354935 421.000000,144.709854 420.538513,150.532013 
	C404.464050,152.812637 388.833801,154.491394 373.244202,156.487335 
	C363.079834,157.788666 352.946564,159.391312 342.850983,161.154556 
	C333.926086,162.713303 325.041260,164.542435 316.204315,166.542023 
	C313.037659,167.258560 310.062744,168.822311 306.540192,169.999557 
	C286.985016,170.205933 268.024414,174.353607 248.980255,171.643539 
	C254.064133,166.218002 259.008118,161.101593 263.952118,155.985168 
z"/>
<path fill="#219CF7" opacity="1.000000" stroke="none" 
	d="
M1.000000,145.000000 
	C1.000000,138.978851 1.000000,132.957703 1.452253,126.468277 
	C4.716845,126.119965 7.600632,125.880150 10.329186,126.422012 
	C22.313654,128.802017 34.196178,131.731506 46.223022,133.853180 
	C62.651417,136.751328 79.141922,139.358948 95.673393,141.590317 
	C107.298805,143.159470 119.036819,143.894440 130.800156,145.465088 
	C130.826004,153.616150 130.776245,161.304031 130.277634,168.993530 
	C123.886185,168.661240 117.943573,168.327332 111.728134,167.763779 
	C109.906136,166.948669 108.383911,166.275085 106.803482,165.791885 
	C95.589920,162.363388 84.368034,158.961884 73.137077,155.590820 
	C72.038261,155.261002 70.861137,155.189316 69.718758,155.007828 
	C58.118656,153.165085 46.534908,151.209991 34.913128,149.515839 
	C23.629108,147.870941 12.305964,146.494385 1.000000,145.000000 
z"/>
<path fill="#497FFB" opacity="1.000000" stroke="none" 
	d="
M421.000000,205.000000 
	C421.000000,209.025177 421.000000,213.050369 420.558044,217.538025 
	C405.290192,220.520294 390.437927,222.895782 375.645447,225.598618 
	C359.318726,228.581772 342.998138,231.637482 326.771301,235.111938 
	C318.406525,236.903000 310.251099,239.671524 301.597351,242.023041 
	C284.810516,245.026413 268.427399,248.005127 251.715942,250.895477 
	C246.857468,245.894302 242.327362,240.981537 238.218521,236.031799 
	C251.582504,234.325470 264.512177,232.544785 277.472748,231.028076 
	C285.352966,230.105896 293.432953,230.326309 301.153381,228.729156 
	C314.252045,226.019363 327.151459,222.331314 340.088196,218.880402 
	C341.232666,218.575119 342.035858,216.990463 343.439636,215.999664 
	C359.101776,213.781937 374.317780,211.536270 389.543335,209.356918 
	C400.022064,207.857010 410.513977,206.449066 421.000000,205.000000 
z"/>
<path fill="#21B0FA" opacity="1.000000" stroke="none" 
	d="
M1.000000,85.000000 
	C1.000000,82.629440 1.000000,80.258888 1.304394,77.780556 
	C3.128068,73.447823 4.647348,69.222862 6.511584,65.070602 
	C15.146371,67.917404 23.380909,70.872520 31.738316,73.425400 
	C46.162827,77.831573 60.541641,82.473846 75.158798,86.144249 
	C102.674187,93.053406 130.457596,98.693985 158.804443,101.102722 
	C159.917084,101.197273 160.919449,102.589394 161.520950,103.495422 
	C151.087616,103.613945 141.106552,103.613945 130.732651,103.613945 
	C130.732651,107.409912 130.732651,110.205818 130.306793,113.001732 
	C122.631172,112.261108 115.276390,112.061249 108.151581,110.677376 
	C87.653519,106.695961 67.152084,102.642738 46.838097,97.831818 
	C31.411018,94.178246 16.268908,89.321426 1.000000,85.000000 
z"/>
<path fill="#514CF3" opacity="1.000000" stroke="none" 
	d="
M146.000000,421.000000 
	C142.307098,421.000000 138.614182,421.000000 134.456482,420.615112 
	C134.448517,417.216705 134.821838,414.187317 135.390625,411.195038 
	C135.791824,409.084381 136.637299,407.052826 136.975937,404.936584 
	C138.625397,394.628784 140.303619,384.322327 141.708054,373.979614 
	C142.689835,366.749451 143.259491,359.462891 143.987488,352.198944 
	C144.278275,349.297424 143.083862,347.735382 140.000153,347.572815 
	C139.647156,343.904236 139.466110,340.631775 138.860535,337.439789 
	C138.619324,336.168365 137.705444,334.655701 136.637589,333.977997 
	C133.209625,331.802307 129.566742,329.965240 126.069183,327.666656 
	C127.695572,325.889343 129.259537,324.442902 131.163513,323.256714 
	C144.997498,323.663757 158.491501,323.810577 172.058014,324.298187 
	C174.865219,329.812195 180.344009,330.189819 184.851746,332.311249 
	C183.189804,334.777374 181.337906,336.774811 180.223007,339.122253 
	C175.349777,349.383026 170.594528,359.702728 165.977692,370.081635 
	C160.223801,383.016724 154.510605,395.973999 149.081757,409.047058 
	C147.519470,412.809204 146.998444,417.003723 146.000000,421.000000 
z"/>
<path fill="#30ACFD" opacity="1.000000" stroke="none" 
	d="
M309.938721,107.815018 
	C311.490540,108.322632 313.148621,109.475243 314.578003,109.239761 
	C332.102264,106.352837 349.640472,103.509193 367.079254,100.156219 
	C384.845154,96.740364 402.504730,92.771637 420.605438,89.022491 
	C421.000000,95.687645 421.000000,102.375290 421.000000,109.531479 
	C407.977875,112.587196 395.011810,115.512131 381.920746,117.683678 
	C361.461578,121.077454 340.930756,124.050545 320.404480,127.023682 
	C309.911224,128.543579 299.361938,129.676376 288.511841,130.672455 
	C295.436737,122.845543 302.687714,115.330284 309.938721,107.815018 
z"/>
<path fill="#21AAF9" opacity="1.000000" stroke="none" 
	d="
M1.000000,85.468582 
	C16.268908,89.321426 31.411018,94.178246 46.838097,97.831818 
	C67.152084,102.642738 87.653519,106.695961 108.151581,110.677376 
	C115.276390,112.061249 122.631172,112.261108 130.381302,113.463318 
	C130.831085,118.950539 130.780487,123.976166 130.286926,129.001831 
	C113.075195,126.888039 96.219643,125.294334 79.561615,122.516296 
	C62.384521,119.651680 45.410408,115.580963 28.326414,112.142609 
	C19.240637,110.313995 10.110251,108.707016 1.000000,107.000000 
	C1.000000,99.979050 1.000000,92.958107 1.000000,85.468582 
z"/>
<path fill="#7555FC" opacity="1.000000" stroke="none" 
	d="
M421.000000,321.562500 
	C407.029083,322.890411 394.218597,327.093201 381.894684,333.888580 
	C369.404755,340.775452 359.364685,350.395477 348.692596,359.514862 
	C333.323700,372.647614 322.864807,389.113708 313.603455,406.587494 
	C311.316589,410.902222 309.874084,415.664459 308.021729,420.610474 
	C305.299988,421.000000 302.599976,421.000000 299.523071,420.611816 
	C299.396637,419.261475 299.756622,418.313171 299.881012,417.334961 
	C301.563843,404.099701 307.169525,392.381744 313.913300,381.119293 
	C317.397430,375.300629 321.570557,369.829041 324.476440,363.744141 
	C329.516449,353.190247 335.142334,343.214264 344.020996,335.336823 
	C345.107330,334.372986 345.359863,332.469330 346.338531,330.933899 
	C349.451843,328.909271 352.225372,326.951935 355.409119,324.988770 
	C361.993805,323.788727 368.133545,322.357452 374.349609,321.446960 
	C389.881256,319.171936 405.447601,317.133423 421.000000,315.000000 
	C421.000000,317.041656 421.000000,319.083344 421.000000,321.562500 
z"/>
<path fill="#23C5FD" opacity="1.000000" stroke="none" 
	d="
M88.539368,1.000000 
	C93.667114,15.803374 104.962624,24.299736 118.174446,30.361444 
	C128.221039,34.970909 138.635345,39.088379 149.274612,42.009476 
	C159.893768,44.925053 170.971710,46.237576 181.896545,47.945782 
	C188.261078,48.940941 194.719879,49.333294 201.837448,50.261055 
	C209.186066,51.459606 215.841812,52.339725 222.476700,53.355961 
	C225.008926,53.743809 227.493393,54.443562 229.726685,55.265991 
	C224.102737,56.353844 218.776810,57.477875 213.394592,57.926704 
	C206.020935,58.541588 198.607193,58.778290 191.205627,58.925858 
	C184.557358,59.058403 177.779404,59.648682 171.273239,58.645470 
	C151.569458,55.607250 132.066269,51.581032 113.358932,44.317776 
	C96.869453,37.915623 81.064934,30.482800 68.265472,17.824017 
	C65.021797,14.615991 61.510307,11.678756 58.411907,8.344467 
	C64.195580,6.379502 69.705482,4.736485 75.163811,2.937004 
	C75.907867,2.691704 76.394287,1.664940 77.000000,1.000000 
	C80.692909,1.000000 84.385818,1.000000 88.539368,1.000000 
z"/>
<path fill="#21A3F8" opacity="1.000000" stroke="none" 
	d="
M1.000000,107.468269 
	C10.110251,108.707016 19.240637,110.313995 28.326414,112.142609 
	C45.410408,115.580963 62.384521,119.651680 79.561615,122.516296 
	C96.219643,125.294334 113.075195,126.888039 130.362000,129.463348 
	C130.828171,134.950531 130.776367,139.976212 130.724548,145.001907 
	C119.036819,143.894440 107.298805,143.159470 95.673393,141.590317 
	C79.141922,139.358948 62.651417,136.751328 46.223022,133.853180 
	C34.196178,131.731506 22.313654,128.802017 10.329186,126.422012 
	C7.600632,125.880150 4.716845,126.119965 1.452253,126.000000 
	C1.000000,119.978844 1.000000,113.957695 1.000000,107.468269 
z"/>
<path fill="#25C6FE" opacity="1.000000" stroke="none" 
	d="
M229.999619,55.001175 
	C227.493393,54.443562 225.008926,53.743809 222.476700,53.355961 
	C215.841812,52.339725 209.186066,51.459606 202.269318,50.262619 
	C202.757294,49.687458 203.494263,49.169861 204.274872,49.092495 
	C221.746933,47.360939 239.267181,46.022141 256.679810,43.827381 
	C264.363220,42.858932 271.950073,40.546608 279.365173,38.171329 
	C288.971405,35.094173 298.564453,31.801554 307.774841,27.724415 
	C313.928955,25.000181 319.654358,21.086016 325.115997,17.082727 
	C330.315979,13.271216 334.956268,8.687926 339.756317,4.348502 
	C340.410858,3.756780 340.565094,2.611647 340.975464,1.361377 
	C342.066681,1.000000 343.133331,1.000000 344.262878,1.305396 
	C345.128601,2.071457 345.879974,2.769451 346.742157,2.956466 
	C356.494629,5.071923 365.691315,8.539853 373.746460,14.110938 
	C368.167084,14.461633 364.185150,17.182100 360.109802,20.144270 
	C355.844879,23.244263 351.299927,26.192110 346.465851,28.230362 
	C334.129639,33.431843 321.777130,38.767368 309.029877,42.772076 
	C296.592621,46.679398 283.750275,49.505150 270.912781,51.864281 
	C260.840485,53.715256 250.513046,54.230381 240.280365,55.126633 
	C236.883179,55.424183 233.428177,55.061829 229.999619,55.001175 
z"/>
<path fill="#8151FE" opacity="1.000000" stroke="none" 
	d="
M338.437500,421.000000 
	C340.778473,414.834381 342.765656,408.128448 346.520355,402.629364 
	C352.198486,394.313324 359.131622,386.857208 365.488464,379.000854 
	C374.171051,368.270111 386.994781,363.613953 398.441742,357.129486 
	C403.866913,354.056244 410.809357,353.661438 417.397339,352.398193 
	C417.496307,353.167572 417.176605,353.566254 417.040863,354.019958 
	C411.222534,373.466553 399.833221,388.992310 384.029327,401.545471 
	C373.121033,410.209961 360.747955,415.595093 347.386841,419.046967 
	C346.483337,419.280396 345.790710,420.329987 345.000000,421.000000 
	C342.958344,421.000000 340.916656,421.000000 338.437500,421.000000 
z"/>
<path fill="#6452F8" opacity="1.000000" stroke="none" 
	d="
M208.468658,421.000000 
	C211.358124,407.795685 215.669846,395.143127 223.602615,383.685791 
	C230.348526,373.942657 235.193741,362.899963 241.699478,352.969147 
	C247.361908,344.325592 253.026169,335.386261 262.575104,330.135101 
	C263.504669,329.623871 264.102814,328.509949 265.324585,327.335266 
	C266.859711,326.992279 267.924957,326.989838 269.328186,326.932678 
	C270.778442,325.914185 271.890747,324.950409 273.411774,323.887512 
	C275.214508,323.850983 276.608521,323.913635 277.983704,324.347534 
	C274.419983,330.544281 270.625580,336.234985 267.387878,342.226501 
	C262.363464,351.524384 257.469757,360.911072 252.995941,370.482269 
	C249.787827,377.345612 247.251328,384.532959 244.604126,391.646088 
	C240.975693,401.395844 237.526199,411.212189 234.000000,421.000000 
	C225.645767,421.000000 217.291534,421.000000 208.468658,421.000000 
z"/>
<path fill="#24D1FF" opacity="1.000000" stroke="none" 
	d="
M264.531342,1.000000 
	C264.804535,6.492918 261.954437,10.120152 257.320923,12.894006 
	C240.909897,22.718430 222.841309,25.546579 204.222214,24.841856 
	C190.958969,24.339848 177.781387,22.085875 165.857529,15.657081 
	C160.380386,12.704057 155.803864,8.603432 155.004532,1.388411 
	C191.354233,1.000000 227.708450,1.000000 264.531342,1.000000 
z"/>
<path fill="#6A5EFB" opacity="1.000000" stroke="none" 
	d="
M421.000000,314.531738 
	C405.447601,317.133423 389.881256,319.171936 374.349609,321.446960 
	C368.133545,322.357452 361.993805,323.788727 355.068542,324.754120 
	C352.526733,324.349426 350.730347,323.980499 348.945557,324.029846 
	C339.294891,324.296448 329.647064,324.666656 319.998840,324.736755 
	C320.000244,324.296082 320.001099,324.119812 320.237732,323.707275 
	C318.633972,320.691040 316.794464,317.911102 315.056732,314.785522 
	C320.770416,312.314026 326.226929,309.477112 332.026428,308.209503 
	C344.307800,305.525146 356.708344,303.203552 369.169586,301.568634 
	C386.393463,299.308929 403.718353,297.819397 421.000000,296.000000 
	C421.000000,302.021149 421.000000,308.042297 421.000000,314.531738 
z"/>
<path fill="#6855F9" opacity="1.000000" stroke="none" 
	d="
M320.001953,323.943542 
	C320.001099,324.119812 320.000244,324.296082 319.684418,324.888092 
	C316.562195,326.711334 313.554138,327.830505 311.004059,329.607056 
	C308.432281,331.398712 306.315125,333.842896 303.653046,336.062897 
	C302.553864,336.462494 301.598877,336.611176 301.077118,337.166718 
	C293.016266,345.749664 284.491974,353.968231 277.140381,363.126465 
	C269.800201,372.270508 263.095856,382.042328 257.136749,392.143066 
	C251.710373,401.340698 247.658020,411.349030 243.000000,421.000000 
	C240.299988,421.000000 237.599976,421.000000 234.449982,421.000000 
	C237.526199,411.212189 240.975693,401.395844 244.604126,391.646088 
	C247.251328,384.532959 249.787827,377.345612 252.995941,370.482269 
	C257.469757,360.911072 262.363464,351.524384 267.387878,342.226501 
	C270.625580,336.234985 274.419983,330.544281 278.443481,324.249146 
	C292.615326,323.834198 306.308655,323.888855 320.001953,323.943542 
z"/>
<path fill="#4188FB" opacity="1.000000" stroke="none" 
	d="
M421.000000,204.536819 
	C410.513977,206.449066 400.022064,207.857010 389.543335,209.356918 
	C374.317780,211.536270 359.101776,213.781937 343.026672,215.999146 
	C339.249023,215.086990 336.317871,213.375900 333.405304,213.406876 
	C323.008331,213.517548 312.621490,214.448746 302.223297,214.624527 
	C294.155090,214.760910 286.075653,214.233551 278.079468,213.650696 
	C281.175110,211.829391 284.068420,209.970856 287.232391,208.958237 
	C298.102966,205.479233 309.068329,202.296356 320.462036,199.000412 
	C335.695312,198.663803 350.476898,198.596466 365.228516,197.896790 
	C375.126007,197.427353 384.988403,196.131073 394.852783,195.076202 
	C403.578400,194.143127 412.285004,193.032333 421.000000,192.000000 
	C421.000000,196.024551 421.000000,200.049088 421.000000,204.536819 
z"/>
<path fill="#000000" opacity="1.000000" stroke="none" 
	d="
M374.113159,13.952953 
	C365.691315,8.539853 356.494629,5.071923 346.742157,2.956466 
	C345.879974,2.769451 345.128601,2.071457 344.662903,1.305396 
	C370.260193,1.000000 395.520416,1.000000 421.000000,1.000000 
	C421.000000,26.020468 421.000000,51.041576 421.000000,76.531342 
	C420.335663,76.407906 419.311432,75.935318 419.068390,75.203339 
	C417.927124,71.765953 417.000580,68.257286 415.933746,64.091545 
	C415.524963,62.938721 415.179840,62.468407 414.792053,61.634029 
	C410.206024,53.498554 405.662628,45.727139 401.065491,37.653854 
	C400.714081,36.888077 400.416382,36.424171 399.983643,35.650192 
	C397.864075,33.357925 395.990021,31.247782 393.872253,29.419975 
	C389.354370,25.520571 384.710175,21.767544 379.979492,17.639734 
	C377.931915,16.200932 376.022552,15.076943 374.113159,13.952953 
z"/>
<path fill="#000000" opacity="1.000000" stroke="none" 
	d="
M76.531342,1.000000 
	C76.394287,1.664940 75.907867,2.691704 75.163811,2.937004 
	C69.705482,4.736485 64.195580,6.379502 58.116333,8.505978 
	C49.981625,13.613172 42.432526,18.286230 34.576485,23.084957 
	C28.496750,29.771290 22.723957,36.331955 16.631021,43.052437 
	C12.929461,50.474136 9.548045,57.736019 6.166628,64.997902 
	C4.647348,69.222862 3.128068,73.447823 1.304394,77.336395 
	C1.000000,51.739792 1.000000,26.479588 1.000000,1.000000 
	C26.020468,1.000000 51.041576,1.000000 76.531342,1.000000 
z"/>
<path fill="#000000" opacity="1.000000" stroke="none" 
	d="
M77.000000,421.000000 
	C51.739792,421.000000 26.479582,421.000000 1.000000,421.000000 
	C1.000000,395.979523 1.000000,370.958435 1.357697,345.227478 
	C3.442497,349.359955 5.169600,354.202271 6.941641,359.423157 
	C12.106164,373.518402 19.588360,385.631104 31.094027,395.410889 
	C38.168945,402.544617 46.066021,407.956940 55.332134,411.996765 
	C62.108234,414.384338 68.556290,416.609131 75.405991,418.917725 
	C76.205101,419.667725 76.602554,420.333862 77.000000,421.000000 
z"/>
<path fill="#000000" opacity="1.000000" stroke="none" 
	d="
M345.468658,421.000000 
	C345.790710,420.329987 346.483337,419.280396 347.386841,419.046967 
	C360.747955,415.595093 373.121033,410.209961 384.029327,401.545471 
	C399.833221,388.992310 411.222534,373.466553 417.040863,354.019958 
	C417.176605,353.566254 417.496307,353.167572 417.783081,352.373047 
	C418.690521,349.447510 419.545105,346.892151 420.699829,344.668396 
	C421.000000,370.260193 421.000000,395.520416 421.000000,421.000000 
	C395.979523,421.000000 370.958435,421.000000 345.468658,421.000000 
z"/>
<path fill="#5C68FB" opacity="1.000000" stroke="none" 
	d="
M421.000000,267.000000 
	C421.000000,271.025177 421.000000,275.050385 420.571716,279.538391 
	C418.014374,280.310699 415.878937,280.581909 413.757233,280.935364 
	C382.091797,286.210632 349.889343,288.149536 318.667664,296.149811 
	C312.978516,297.607574 307.435028,299.633942 301.529175,301.222229 
	C296.473358,296.060120 291.712738,291.073578 287.200836,285.824036 
	C297.300537,283.373230 307.151489,281.185394 317.422607,278.970886 
	C326.432831,278.296173 335.035065,277.777435 343.609924,276.968384 
	C355.315369,275.863922 367.030579,274.772522 378.685577,273.247589 
	C392.820892,271.398132 406.897827,269.102539 421.000000,267.000000 
z"/>
<path fill="#5277FB" opacity="1.000000" stroke="none" 
	d="
M421.000000,233.000000 
	C421.000000,239.687637 421.000000,246.375290 420.564636,253.530609 
	C408.689301,255.515015 397.254272,257.070312 385.807983,258.537750 
	C373.877655,260.067261 361.936462,261.512054 349.903992,262.666260 
	C346.470581,258.972748 342.887421,256.433533 337.690948,256.989502 
	C329.812531,257.832428 321.898743,258.344757 314.099060,258.666504 
	C314.901733,257.678040 315.493073,256.743103 316.326324,256.405914 
	C325.269348,252.786713 334.268890,249.306870 343.202240,245.664459 
	C344.597778,245.095444 345.739624,243.904160 347.416443,242.993805 
	C350.934601,242.478439 354.063446,242.101547 357.130951,241.440140 
	C378.194458,236.898621 399.532166,234.464188 421.000000,233.000000 
z"/>
<path fill="#3D90FC" opacity="1.000000" stroke="none" 
	d="
M421.000000,161.000000 
	C421.000000,165.689255 421.000000,170.378510 420.566040,175.534088 
	C401.129944,179.705872 382.111664,183.330948 363.131012,187.143280 
	C349.061615,189.969193 335.041107,193.038422 320.695190,195.775269 
	C313.289886,194.123276 306.187469,192.698853 299.086853,191.265839 
	C295.390015,190.519760 291.696198,189.758484 288.284790,188.768127 
	C297.061371,186.695511 305.591980,185.015060 314.035645,182.974976 
	C321.391571,181.197723 328.677002,179.106110 335.923462,176.920837 
	C337.132477,176.556244 337.983612,175.004837 339.437134,174.001465 
	C344.496094,173.523514 349.159546,173.293579 353.732849,172.526367 
	C376.168396,168.762695 398.579956,164.856110 421.000000,161.000000 
z"/>
<path fill="#564DF4" opacity="1.000000" stroke="none" 
	d="
M146.468658,421.000000 
	C146.998444,417.003723 147.519470,412.809204 149.081757,409.047058 
	C154.510605,395.973999 160.223801,383.016724 165.977692,370.081635 
	C170.594528,359.702728 175.349777,349.383026 180.223007,339.122253 
	C181.337906,336.774811 183.189804,334.777374 185.243759,332.287598 
	C187.857254,331.638367 189.929489,331.320404 192.001343,331.465759 
	C191.175262,337.947174 190.714783,344.045471 189.416595,349.959869 
	C188.225250,355.387604 185.795578,360.537170 184.505096,365.950836 
	C181.958527,376.633942 179.776855,387.405396 177.532410,398.158691 
	C175.946503,405.756775 174.505630,413.385162 173.000000,421.000000 
	C164.312439,421.000000 155.624863,421.000000 146.468658,421.000000 
z"/>
<path fill="#6464FB" opacity="1.000000" stroke="none" 
	d="
M301.824310,301.397827 
	C307.435028,299.633942 312.978516,297.607574 318.667664,296.149811 
	C349.889343,288.149536 382.091797,286.210632 413.757233,280.935364 
	C415.878937,280.581909 418.014374,280.310699 420.571716,280.000610 
	C421.000000,285.022095 421.000000,290.044189 421.000000,295.533142 
	C403.718353,297.819397 386.393463,299.308929 369.169586,301.568634 
	C356.708344,303.203552 344.307800,305.525146 332.026428,308.209503 
	C326.226929,309.477112 320.770416,312.314026 314.758087,314.626953 
	C310.179901,310.341949 306.002106,305.869873 301.824310,301.397827 
z"/>
<path fill="#2194F6" opacity="1.000000" stroke="none" 
	d="
M1.000000,145.468277 
	C12.305964,146.494385 23.629108,147.870941 34.913128,149.515839 
	C46.534908,151.209991 58.118656,153.165085 69.718758,155.007828 
	C70.861137,155.189316 72.038261,155.261002 73.137077,155.590820 
	C84.368034,158.961884 95.589920,162.363388 106.803482,165.791885 
	C108.383911,166.275085 109.906136,166.948669 111.399567,167.996857 
	C97.229523,169.973419 83.115204,171.487274 68.563812,173.000580 
	C56.693825,171.484192 45.259197,169.981125 33.828487,168.448837 
	C22.883539,166.981674 11.942666,165.484161 1.000000,164.000000 
	C1.000000,157.978851 1.000000,151.957703 1.000000,145.468277 
z"/>
<path fill="#5950F5" opacity="1.000000" stroke="none" 
	d="
M173.416656,421.000000 
	C174.505630,413.385162 175.946503,405.756775 177.532410,398.158691 
	C179.776855,387.405396 181.958527,376.633942 184.505096,365.950836 
	C185.795578,360.537170 188.225250,355.387604 189.416595,349.959869 
	C190.714783,344.045471 191.175262,337.947174 192.340607,331.230103 
	C203.785309,330.739532 214.953354,326.468750 225.997574,331.000000 
	C222.940521,337.977600 220.385635,345.236969 216.676147,351.848511 
	C213.386414,357.711914 208.321365,362.565979 204.906067,368.374817 
	C196.777191,382.200623 189.063263,396.274780 181.414856,410.375122 
	C179.783051,413.383423 179.141434,416.928864 178.021820,420.613403 
	C176.611115,421.000000 175.222214,421.000000 173.416656,421.000000 
z"/>
<path fill="#4743EF" opacity="1.000000" stroke="none" 
	d="
M77.468628,421.000000 
	C76.602554,420.333862 76.205101,419.667725 75.491302,418.566742 
	C76.784065,412.746094 78.730347,407.432953 79.911324,401.954834 
	C81.196945,395.991333 81.609482,389.845184 82.699715,383.832520 
	C83.964386,376.857788 85.552162,369.941589 87.243614,362.771851 
	C94.325218,355.362885 101.162903,348.182098 108.229698,341.323242 
	C108.424469,349.430145 109.535164,357.119293 108.218002,365.026154 
	C106.451584,375.629761 106.419518,386.511536 104.960297,397.180573 
	C103.863922,405.196564 101.692711,413.065552 99.999992,421.000000 
	C92.645744,421.000000 85.291496,421.000000 77.468628,421.000000 
z"/>
<path fill="#6F55FB" opacity="1.000000" stroke="none" 
	d="
M303.998779,336.001221 
	C306.315125,333.842896 308.432281,331.398712 311.004059,329.607056 
	C313.554138,327.830505 316.562195,326.711334 319.683838,325.152496 
	C329.647064,324.666656 339.294891,324.296448 348.945557,324.029846 
	C350.730347,323.980499 352.526733,324.349426 354.658325,324.759979 
	C352.225372,326.951935 349.451843,328.909271 345.999634,331.000122 
	C343.449341,332.483246 341.436890,333.675842 339.728760,335.207703 
	C328.140198,345.600281 315.912262,355.404144 305.295959,366.716766 
	C296.972565,375.586151 290.112152,386.004669 283.653076,396.388855 
	C278.890167,404.046112 275.822845,412.758026 272.000000,421.000000 
	C271.250000,421.000000 270.500000,421.000000 269.442444,420.631104 
	C270.498322,416.162811 271.746704,412.020721 273.247253,407.972107 
	C277.446075,396.643097 281.462738,385.233551 286.102112,374.085022 
	C289.794128,365.212921 294.310303,356.684570 298.433777,347.990906 
	C300.321930,344.010071 302.145782,339.998718 303.998779,336.001221 
z"/>
<path fill="#4948F0" opacity="1.000000" stroke="none" 
	d="
M100.399986,421.000000 
	C101.692711,413.065552 103.863922,405.196564 104.960297,397.180573 
	C106.419518,386.511536 106.451584,375.629761 108.218002,365.026154 
	C109.535164,357.119293 108.424469,349.430145 108.252411,340.938751 
	C108.703575,338.069519 109.037483,335.726135 110.113853,333.797058 
	C111.100929,332.028046 112.655907,329.820496 114.372017,329.368652 
	C118.111382,328.384125 122.112572,328.394043 126.006760,327.997559 
	C129.566742,329.965240 133.209625,331.802307 136.637589,333.977997 
	C137.705444,334.655701 138.619324,336.168365 138.860535,337.439789 
	C139.466110,340.631775 139.647156,343.904236 139.848450,347.884949 
	C133.288116,359.770874 126.669228,370.803009 120.535652,382.098633 
	C115.901276,390.633270 111.666603,399.405975 107.696922,408.271027 
	C105.908440,412.264984 105.199020,416.742096 104.000000,421.000000 
	C102.933327,421.000000 101.866661,421.000000 100.399986,421.000000 
z"/>
<path fill="#7253FB" opacity="1.000000" stroke="none" 
	d="
M272.468658,421.000000 
	C275.822845,412.758026 278.890167,404.046112 283.653076,396.388855 
	C290.112152,386.004669 296.972565,375.586151 305.295959,366.716766 
	C315.912262,355.404144 328.140198,345.600281 339.728760,335.207703 
	C341.436890,333.675842 343.449341,332.483246 345.659882,331.067444 
	C345.359863,332.469330 345.107330,334.372986 344.020996,335.336823 
	C335.142334,343.214264 329.516449,353.190247 324.476440,363.744141 
	C321.570557,369.829041 317.397430,375.300629 313.913300,381.119293 
	C307.169525,392.381744 301.563843,404.099701 299.881012,417.334961 
	C299.756622,418.313171 299.396637,419.261475 299.073120,420.611816 
	C290.312439,421.000000 281.624878,421.000000 272.468658,421.000000 
z"/>
<path fill="#2373F1" opacity="1.000000" stroke="none" 
	d="
M1.000000,236.000000 
	C1.000000,226.979111 1.000000,217.958206 1.453122,208.469421 
	C16.462553,209.059174 31.061478,209.736221 45.554543,211.358810 
	C51.486923,212.022980 57.320480,214.504059 60.831177,220.284851 
	C58.365955,222.627563 58.134262,224.659195 60.038918,227.322968 
	C61.696365,229.641068 62.706146,232.422241 63.533875,234.999146 
	C50.709778,235.671799 38.353939,236.344070 25.533913,237.015045 
	C17.046482,236.675812 9.023241,236.337906 1.000000,236.000000 
z"/>
<path fill="#6C53FA" opacity="1.000000" stroke="none" 
	d="
M303.653015,336.062897 
	C302.145782,339.998718 300.321930,344.010071 298.433777,347.990906 
	C294.310303,356.684570 289.794128,365.212921 286.102112,374.085022 
	C281.462738,385.233551 277.446075,396.643097 273.247253,407.972107 
	C271.746704,412.020721 270.498322,416.162811 269.067444,420.631104 
	C260.645752,421.000000 252.291534,421.000000 243.468658,421.000000 
	C247.658020,411.349030 251.710373,401.340698 257.136749,392.143066 
	C263.095856,382.042328 269.800201,372.270508 277.140381,363.126465 
	C284.491974,353.968231 293.016266,345.749664 301.077118,337.166718 
	C301.598877,336.611176 302.553864,336.462494 303.653015,336.062897 
z"/>
<path fill="#267EF3" opacity="1.000000" stroke="none" 
	d="
M60.998558,220.002838 
	C57.320480,214.504059 51.486923,212.022980 45.554543,211.358810 
	C31.061478,209.736221 16.462553,209.059174 1.453122,208.000763 
	C1.000000,203.310745 1.000000,198.621490 1.447968,193.466873 
	C9.762501,193.881470 17.628435,194.767120 25.495760,195.640228 
	C42.322094,197.507660 58.861233,202.082565 76.355804,201.154449 
	C86.141968,203.875580 95.572929,206.441650 104.918282,209.365784 
	C99.343010,212.764877 93.864265,215.826080 88.346275,218.814804 
	C87.813454,219.103409 87.038040,218.961060 86.373985,218.987869 
	C77.915649,219.329483 69.457069,219.665451 60.998558,220.002838 
z"/>
<path fill="#2861EE" opacity="1.000000" stroke="none" 
	d="
M1.000000,236.468658 
	C9.023241,236.337906 17.046482,236.675812 25.600231,237.350952 
	C30.794168,241.979843 35.282703,246.487961 40.201847,250.463211 
	C42.353943,252.202362 45.386436,252.852066 48.084251,254.342163 
	C50.769691,259.457336 53.390015,264.226807 55.611008,269.020599 
	C49.805904,270.032776 44.400131,271.020660 38.532452,272.007935 
	C25.713701,271.338226 13.356851,270.669098 1.000000,270.000000 
	C1.000000,258.979095 1.000000,247.958206 1.000000,236.468658 
z"/>
<path fill="#4E47F1" opacity="1.000000" stroke="none" 
	d="
M104.468658,421.000000 
	C105.199020,416.742096 105.908440,412.264984 107.696922,408.271027 
	C111.666603,399.405975 115.901276,390.633270 120.535652,382.098633 
	C126.669228,370.803009 133.288116,359.770874 139.850128,348.313354 
	C143.083862,347.735382 144.278275,349.297424 143.987488,352.198944 
	C143.259491,359.462891 142.689835,366.749451 141.708054,373.979614 
	C140.303619,384.322327 138.625397,394.628784 136.975937,404.936584 
	C136.637299,407.052826 135.791824,409.084381 135.390625,411.195038 
	C134.821838,414.187317 134.448517,417.216705 133.995834,420.615112 
	C124.312439,421.000000 114.624878,421.000000 104.468658,421.000000 
z"/>
<path fill="#3349EC" opacity="1.000000" stroke="none" 
	d="
M1.000000,317.000000 
	C1.000000,309.312408 1.000000,301.624847 1.411221,293.476929 
	C6.718570,293.894714 11.699096,294.452271 16.494099,295.714569 
	C28.171509,298.788757 39.533279,303.474854 52.320335,302.145172 
	C60.753426,307.194885 68.874344,312.092529 76.922318,317.332916 
	C74.232971,319.452057 71.616577,321.228455 68.531792,323.003296 
	C60.375355,323.334473 52.687309,323.667236 44.806629,323.707153 
	C34.395695,318.570129 23.809309,315.372742 12.323981,316.194397 
	C8.549426,316.464417 4.774666,316.731537 1.000000,317.000000 
z"/>
<path fill="#4D7BFB" opacity="1.000000" stroke="none" 
	d="
M421.000000,232.533875 
	C399.532166,234.464188 378.194458,236.898621 357.130951,241.440140 
	C354.063446,242.101547 350.934601,242.478439 346.959778,242.993805 
	C336.836060,243.333542 327.584106,243.965347 318.338257,243.886078 
	C312.887543,243.839340 307.446472,242.665375 302.001068,241.998383 
	C310.251099,239.671524 318.406525,236.903000 326.771301,235.111938 
	C342.998138,231.637482 359.318726,228.581772 375.645447,225.598618 
	C390.437927,222.895782 405.290192,220.520294 420.558044,218.000244 
	C421.000000,222.689255 421.000000,227.378510 421.000000,232.533875 
z"/>
<path fill="#2E53ED" opacity="1.000000" stroke="none" 
	d="
M52.008160,301.993073 
	C39.533279,303.474854 28.171509,298.788757 16.494099,295.714569 
	C11.699096,294.452271 6.718570,293.894714 1.411221,293.008301 
	C1.000000,285.645752 1.000000,278.291504 1.000000,270.468628 
	C13.356851,270.669098 25.713701,271.338226 38.534225,272.421112 
	C39.451344,277.417572 39.373711,282.248993 45.216217,283.847076 
	C52.493767,285.837738 59.740162,287.942352 66.976059,290.377625 
	C65.750969,291.843109 64.633980,293.044128 63.332764,293.992371 
	C59.597839,296.714081 55.788345,299.333466 52.008160,301.993073 
z"/>
<path fill="#313FE9" opacity="1.000000" stroke="none" 
	d="
M1.000000,317.468658 
	C4.774666,316.731537 8.549426,316.464417 12.323981,316.194397 
	C23.809309,315.372742 34.395695,318.570129 44.741310,324.069885 
	C43.439545,327.785797 41.934204,330.813477 40.606510,333.917175 
	C39.618187,336.227539 38.859856,338.636292 37.626293,341.019745 
	C32.669930,343.254120 27.890669,345.145905 23.551153,347.765991 
	C17.819271,351.226746 12.432058,355.258362 6.896702,359.044617 
	C5.169600,354.202271 3.442497,349.359955 1.357697,344.758789 
	C1.000000,335.979095 1.000000,326.958221 1.000000,317.468658 
z"/>
<path fill="#218CF4" opacity="1.000000" stroke="none" 
	d="
M1.000000,164.467606 
	C11.942666,165.484161 22.883539,166.981674 33.828487,168.448837 
	C45.259197,169.981125 56.693825,171.484192 68.664703,173.332718 
	C70.553726,174.526718 71.824554,175.565567 73.269699,176.218750 
	C79.649315,179.102325 85.581650,182.489304 88.625710,188.998322 
	C87.499146,188.999710 86.748085,189.000351 85.614029,188.836838 
	C83.594376,188.448807 81.964272,188.136490 80.320068,188.015045 
	C66.917374,187.025040 53.497360,186.237381 40.111698,185.058090 
	C27.056623,183.907928 14.035839,182.368515 1.000000,181.000000 
	C1.000000,175.645065 1.000000,170.290146 1.000000,164.467606 
z"/>
<path fill="#3A98FC" opacity="1.000000" stroke="none" 
	d="
M421.000000,160.545898 
	C398.579956,164.856110 376.168396,168.762695 353.732849,172.526367 
	C349.159546,173.293579 344.496094,173.523514 339.010803,173.993713 
	C334.054413,173.654877 329.938202,173.496750 325.873810,172.951920 
	C319.564117,172.106110 313.289673,170.996933 307.000305,169.999390 
	C310.062744,168.822311 313.037659,167.258560 316.204315,166.542023 
	C325.041260,164.542435 333.926086,162.713303 342.850983,161.154556 
	C352.946564,159.391312 363.079834,157.788666 373.244202,156.487335 
	C388.833801,154.491394 404.464050,152.812637 420.538513,150.999634 
	C421.000000,154.030594 421.000000,157.061188 421.000000,160.545898 
z"/>
<path fill="#5B6FFC" opacity="1.000000" stroke="none" 
	d="
M350.000000,262.993896 
	C361.936462,261.512054 373.877655,260.067261 385.807983,258.537750 
	C397.254272,257.070312 408.689301,255.515015 420.564636,253.999146 
	C421.000000,258.024536 421.000000,262.049103 421.000000,266.536804 
	C406.897827,269.102539 392.820892,271.398132 378.685577,273.247589 
	C367.030579,274.772522 355.315369,275.863922 343.609924,276.968384 
	C335.035065,277.777435 326.432831,278.296173 317.519836,278.641296 
	C324.171051,275.240784 331.179230,272.217041 338.106232,269.017487 
	C342.138062,267.155212 346.039764,265.011169 350.000000,262.993896 
z"/>
<path fill="#428EFC" opacity="1.000000" stroke="none" 
	d="
M320.998810,195.999268 
	C335.041107,193.038422 349.061615,189.969193 363.131012,187.143280 
	C382.111664,183.330948 401.129944,179.705872 420.566040,176.000214 
	C421.000000,181.022095 421.000000,186.044189 421.000000,191.533142 
	C412.285004,193.032333 403.578400,194.143127 394.852783,195.076202 
	C384.988403,196.131073 375.126007,197.427353 365.228516,197.896790 
	C350.476898,198.596466 335.695312,198.663803 320.511230,198.686188 
	C320.396942,197.581207 320.697876,196.790222 320.998810,195.999268 
z"/>
<path fill="#2286F4" opacity="1.000000" stroke="none" 
	d="
M1.000000,181.460632 
	C14.035839,182.368515 27.056623,183.907928 40.111698,185.058090 
	C53.497360,186.237381 66.917374,187.025040 80.320068,188.015045 
	C81.964272,188.136490 83.594376,188.448807 85.548401,189.174652 
	C84.431274,191.210526 82.947067,192.701416 81.574287,194.288696 
	C79.672501,196.487625 77.854492,198.759018 76.000610,200.999390 
	C58.861233,202.082565 42.322094,197.507660 25.495760,195.640228 
	C17.628435,194.767120 9.762501,193.881470 1.447968,193.000763 
	C1.000000,189.307098 1.000000,185.614182 1.000000,181.460632 
z"/>
<path fill="#FEFEFF" opacity="1.000000" stroke="none" 
	d="
M301.529175,301.222229 
	C306.002106,305.869873 310.179901,310.341949 314.656342,314.972595 
	C316.794464,317.911102 318.633972,320.691040 320.237732,323.707275 
	C306.308655,323.888855 292.615326,323.834198 278.462280,323.877930 
	C276.608521,323.913635 275.214508,323.850983 273.017029,323.791779 
	C271.139496,323.864105 270.065460,323.933014 268.647644,323.923035 
	C267.861053,323.676331 267.287994,323.632019 266.994415,323.322601 
	C258.883453,314.774261 250.800949,306.198944 242.517944,297.335297 
	C238.592148,293.339844 234.862122,289.637207 230.990479,285.616211 
	C226.046524,280.458893 221.244232,275.619904 216.263245,270.484863 
	C209.911545,263.815826 203.907806,257.267151 197.522583,251.114395 
	C189.555023,243.436905 181.273254,236.085510 173.785202,229.198578 
	C173.785202,243.759796 173.785202,259.853210 173.656799,276.400604 
	C173.609238,281.585236 173.690109,286.315948 173.655792,291.497101 
	C173.623810,297.976593 173.707031,304.005615 173.669708,310.478394 
	C173.027969,315.267212 172.506729,319.612305 171.985489,323.957367 
	C158.491501,323.810577 144.997498,323.663757 131.195221,322.819275 
	C130.828964,320.081909 130.771027,318.042236 130.795303,315.540558 
	C130.824341,300.722504 130.771149,286.366425 130.799805,271.547791 
	C130.828705,264.721375 130.775742,258.357574 130.799500,251.531326 
	C130.821732,244.382248 130.767227,237.695587 130.792572,230.545715 
	C130.821808,223.060532 130.771194,216.038544 130.801224,208.553146 
	C130.830231,202.059280 130.778595,196.028839 130.803986,189.590836 
	C130.592484,187.293335 130.036377,185.398956 130.067749,183.514343 
	C130.148346,178.671219 130.489471,173.832428 130.726471,168.991913 
	C130.776245,161.304031 130.826004,153.616150 130.800156,145.465088 
	C130.776367,139.976212 130.828171,134.950531 130.804932,129.463318 
	C130.780487,123.976166 130.831085,118.950539 130.807159,113.463318 
	C130.732651,110.205818 130.732651,107.409912 130.732651,103.613945 
	C141.106552,103.613945 151.087616,103.613945 161.971558,103.616997 
	C165.281082,103.651848 167.776382,103.310196 170.061752,103.852798 
	C171.476089,104.188599 172.571289,105.868591 173.678528,107.400360 
	C173.631653,114.903099 173.716003,121.950645 173.684265,129.453293 
	C173.644760,137.258148 173.721329,144.607880 173.670135,152.411667 
	C173.621307,158.604065 173.700241,164.342438 173.669800,170.474823 
	C173.560425,178.867508 173.560425,186.866150 173.560425,194.864807 
	C173.986252,194.999771 174.412094,195.134735 174.837921,195.269699 
	C182.208450,187.175400 189.578979,179.081100 197.232513,170.809479 
	C202.739899,164.882919 207.964249,159.133682 213.482300,153.208557 
	C220.715149,145.401642 227.654312,137.770599 234.863998,129.986542 
	C236.389771,128.524002 237.674164,127.241020 238.895248,125.900360 
	C244.619354,119.615692 250.326065,113.315170 256.364014,106.838631 
	C258.810425,105.674820 260.846191,104.297340 263.075684,103.814636 
	C265.631226,103.261337 268.358704,103.501945 271.011475,103.397659 
	C284.585602,103.397659 298.159729,103.397659 312.906128,103.397659 
	C311.484070,105.438683 310.884399,106.299362 310.111725,107.487534 
	C302.687714,115.330284 295.436737,122.845543 288.040009,130.664948 
	C279.998352,139.100159 272.102386,147.231232 264.079285,155.673737 
	C259.008118,161.101593 254.064133,166.218002 248.689758,171.794785 
	C241.768021,179.146301 235.276672,186.037460 228.489243,193.066986 
	C222.830063,198.809280 217.466980,204.413193 211.971771,210.155151 
	C215.909180,214.054367 219.441849,217.552795 223.100845,221.359741 
	C228.083862,226.468414 232.940552,231.268585 237.797241,236.068756 
	C242.327362,240.981537 246.857468,245.894302 251.931763,251.144653 
	C257.990295,256.970001 263.504639,262.457764 269.132965,268.262390 
	C275.148651,274.415161 281.050385,280.251099 286.952087,286.087036 
	C291.712738,291.073578 296.473358,296.060120 301.529175,301.222229 
z"/>
<path fill="#27B6FC" opacity="1.000000" stroke="none" 
	d="
M271.061707,103.066666 
	C268.358704,103.501945 265.631226,103.261337 263.075684,103.814636 
	C260.846191,104.297340 258.810425,105.674820 255.989243,106.676865 
	C250.688385,106.798248 246.087524,106.975578 241.486252,106.987244 
	C226.539169,107.025154 211.591385,107.073944 196.645126,106.957291 
	C192.428665,106.924385 188.216522,106.338646 184.020767,105.637772 
	C184.384506,102.754845 185.045227,100.935211 188.382751,101.380196 
	C189.711349,101.557343 191.751770,100.530907 192.603775,99.400764 
	C195.604645,95.420166 198.230591,91.156929 201.451187,87.000664 
	C206.935928,86.667351 211.968277,86.334282 217.266739,86.210999 
	C225.440109,86.610764 233.350815,87.046646 241.253815,86.935120 
	C254.253021,86.751678 267.287598,86.721832 280.233093,85.693184 
	C295.538300,84.477028 310.861328,82.851440 326.000305,80.340393 
	C343.936890,77.365341 361.676849,73.213516 379.522644,69.675697 
	C383.077209,68.971024 386.795105,69.038666 390.315338,68.222481 
	C398.528015,66.318321 406.666290,64.093201 414.834686,61.998093 
	C415.179840,62.468407 415.524963,62.938721 415.854401,63.704430 
	C409.834045,65.638000 403.792145,67.151756 397.831940,68.938210 
	C381.495392,73.834808 365.325806,79.350784 348.843048,83.681175 
	C329.281647,88.820381 309.471619,93.018272 289.748077,97.531235 
	C285.231049,98.564789 280.590149,99.061806 276.081818,100.125961 
	C274.318115,100.542267 272.762390,101.839600 271.061707,103.066666 
z"/>
<path fill="#5458F6" opacity="1.000000" stroke="none" 
	d="
M242.713715,297.628082 
	C250.800949,306.198944 258.883453,314.774261 266.994415,323.322601 
	C267.287994,323.632019 267.861053,323.676331 268.648102,324.296387 
	C268.991638,325.494843 268.990936,326.241119 268.990234,326.987396 
	C267.924957,326.989838 266.859711,326.992279 265.394775,326.996155 
	C255.779282,328.132843 246.570282,329.328522 237.344086,330.372314 
	C233.889191,330.763123 230.394287,330.800385 226.457596,330.999451 
	C214.953354,326.468750 203.785309,330.739532 192.341003,330.766815 
	C189.929489,331.320404 187.857254,331.638367 185.392990,331.979980 
	C180.344009,330.189819 174.865219,329.812195 172.058014,324.298187 
	C172.506729,319.612305 173.027969,315.267212 174.073517,310.469055 
	C182.515915,309.350586 190.425079,308.281067 198.354004,308.105499 
	C213.933624,307.760498 228.170090,302.131805 242.713715,297.628082 
z"/>
<path fill="#3793FA" opacity="1.000000" stroke="none" 
	d="
M228.785324,192.928619 
	C235.276672,186.037460 241.768021,179.146301 248.549866,172.103897 
	C268.024414,174.353607 286.985016,170.205933 306.540192,169.999542 
	C313.289673,170.996933 319.564117,172.106110 325.873810,172.951920 
	C329.938202,173.496750 334.054413,173.654877 338.573730,173.994080 
	C337.983612,175.004837 337.132477,176.556244 335.923462,176.920837 
	C328.677002,179.106110 321.391571,181.197723 314.035645,182.974976 
	C305.591980,185.015060 297.061371,186.695511 287.819122,188.767517 
	C283.086243,189.079285 279.077911,188.898605 275.123993,189.280777 
	C263.598450,190.394821 252.104858,191.843094 240.576584,192.923859 
	C236.680252,193.289154 232.717651,192.947311 228.785324,192.928619 
z"/>
<path fill="#268FF6" opacity="1.000000" stroke="none" 
	d="
M130.277649,168.993530 
	C130.489471,173.832428 130.148346,178.671219 130.067749,183.514343 
	C130.036377,185.398956 130.592484,187.293335 130.359467,189.591644 
	C116.225700,189.665848 102.613457,189.331711 89.001221,188.997559 
	C85.581650,182.489304 79.649315,179.102325 73.269699,176.218750 
	C71.824554,175.565567 70.553726,174.526718 69.101776,173.333252 
	C83.115204,171.487274 97.229523,169.973419 111.672401,168.226501 
	C117.943573,168.327332 123.886185,168.661240 130.277649,168.993530 
z"/>
<path fill="#4382FA" opacity="1.000000" stroke="none" 
	d="
M238.218521,236.031799 
	C232.940552,231.268585 228.083862,226.468414 223.307129,221.055054 
	C225.006729,219.691345 226.578766,218.424744 228.253342,218.270294 
	C244.826248,216.741852 261.416138,215.397598 278.001221,214.001221 
	C286.075653,214.233551 294.155090,214.760910 302.223297,214.624527 
	C312.621490,214.448746 323.008331,213.517548 333.405304,213.406876 
	C336.317871,213.375900 339.249023,215.086990 342.584595,215.999496 
	C342.035858,216.990463 341.232666,218.575119 340.088196,218.880402 
	C327.151459,222.331314 314.252045,226.019363 301.153381,228.729156 
	C293.432953,230.326309 285.352966,230.105896 277.472748,231.028076 
	C264.512177,232.544785 251.582504,234.325470 238.218521,236.031799 
z"/>
<path fill="#4C76FA" opacity="1.000000" stroke="none" 
	d="
M269.019012,267.945526 
	C263.504639,262.457764 257.990295,256.970001 252.260132,251.233032 
	C268.427399,248.005127 284.810516,245.026413 301.597351,242.023026 
	C307.446472,242.665375 312.887543,243.839340 318.338257,243.886078 
	C327.584106,243.965347 336.836060,243.333542 346.542114,243.000610 
	C345.739624,243.904160 344.597778,245.095444 343.202240,245.664459 
	C334.268890,249.306870 325.269348,252.786713 316.326324,256.405914 
	C315.493073,256.743103 314.901733,257.678040 313.653503,258.667206 
	C299.019043,261.445374 284.926025,263.874390 270.848785,266.391449 
	C270.167999,266.513184 269.625763,267.409760 269.019012,267.945526 
z"/>
<path fill="#22B6FB" opacity="1.000000" stroke="none" 
	d="
M200.998779,87.000916 
	C198.230591,91.156929 195.604645,95.420166 192.603775,99.400764 
	C191.751770,100.530907 189.711349,101.557343 188.382751,101.380196 
	C185.045227,100.935211 184.384506,102.754845 183.590988,105.637085 
	C180.031815,106.318451 176.920776,106.631813 173.809753,106.945175 
	C172.571289,105.868591 171.476089,104.188599 170.061752,103.852798 
	C167.776382,103.310196 165.281082,103.651848 162.423828,103.498474 
	C160.919449,102.589394 159.917084,101.197273 158.804443,101.102722 
	C130.457596,98.693985 102.674187,93.053406 75.158798,86.144249 
	C60.541641,82.473846 46.162827,77.831573 31.738316,73.425400 
	C23.380909,70.872520 15.146371,67.917404 6.511584,65.070602 
	C9.548045,57.736019 12.929461,50.474136 16.857286,43.309345 
	C21.574980,45.775265 25.557539,48.601303 29.957018,50.417305 
	C38.989670,54.145779 48.292198,57.213890 57.400467,60.767025 
	C79.896729,69.542824 103.155579,75.535492 126.796768,80.223671 
	C151.300003,85.082802 176.076340,86.806259 200.998779,87.000916 
z"/>
<path fill="#4045EE" opacity="1.000000" stroke="none" 
	d="
M130.713074,316.002563 
	C130.771027,318.042236 130.828964,320.081909 130.855225,322.559021 
	C129.259537,324.442902 127.695572,325.889343 126.069183,327.666687 
	C122.112572,328.394043 118.111382,328.384125 114.372017,329.368652 
	C112.655907,329.820496 111.100929,332.028046 110.113853,333.797058 
	C109.037483,335.726135 108.703575,338.069519 108.023293,340.616760 
	C101.162903,348.182098 94.325218,355.362885 86.955490,362.600403 
	C81.615829,360.104736 76.808220,357.552368 72.027451,354.580475 
	C72.371910,347.298828 73.181976,340.409576 72.806122,333.585663 
	C72.608620,329.999756 70.335846,326.528107 69.000183,323.004883 
	C71.616577,321.228455 74.232971,319.452057 77.279793,317.269684 
	C79.380013,316.122101 81.031975,315.336853 82.722641,314.646332 
	C90.628448,311.417297 98.513702,308.906036 107.335548,311.222198 
	C115.016937,313.238892 122.912277,314.440674 130.713074,316.002563 
z"/>
<path fill="#22C1FD" opacity="1.000000" stroke="none" 
	d="
M34.883423,22.959290 
	C42.432526,18.286230 49.981625,13.613172 57.826302,8.778603 
	C61.510307,11.678756 65.021797,14.615991 68.265472,17.824017 
	C81.064934,30.482800 96.869453,37.915623 113.358932,44.317776 
	C132.066269,51.581032 151.569458,55.607250 171.273239,58.645470 
	C177.779404,59.648682 184.557358,59.058403 191.205627,58.925858 
	C198.607193,58.778290 206.020935,58.541588 213.394592,57.926704 
	C218.776810,57.477875 224.102737,56.353844 229.726685,55.265987 
	C233.428177,55.061829 236.883179,55.424183 240.280365,55.126633 
	C250.513046,54.230381 260.840485,53.715256 270.912781,51.864281 
	C283.750275,49.505150 296.592621,46.679398 309.029877,42.772076 
	C321.777130,38.767368 334.129639,33.431843 346.465851,28.230362 
	C351.299927,26.192110 355.844879,23.244263 360.109802,20.144270 
	C364.185150,17.182100 368.167084,14.461633 373.746460,14.110937 
	C376.022552,15.076943 377.931915,16.200932 379.569763,17.650061 
	C376.693970,18.882240 373.749451,19.286243 371.541779,20.779594 
	C359.093781,29.199867 345.700836,35.619087 331.835175,41.365807 
	C316.801544,47.596584 301.509552,52.851864 285.702606,56.578400 
	C272.838440,59.611172 259.878326,62.235126 246.977829,65.116806 
	C243.287979,65.941032 239.657639,67.031570 235.556046,68.000015 
	C222.771851,68.695984 210.424927,69.294891 198.095444,70.146698 
	C194.372055,70.403923 190.697128,71.362625 186.562103,71.999695 
	C179.027222,71.322128 171.916611,70.761902 164.836792,69.937263 
	C156.436356,68.958809 147.956650,68.255157 139.703949,66.517502 
	C129.501526,64.369347 119.370201,61.679035 109.434387,58.513023 
	C90.325272,52.423965 71.276459,46.099602 54.306515,34.914326 
	C47.961910,30.732449 41.365189,26.933067 34.883423,22.959290 
z"/>
<path fill="#5F53F7" opacity="1.000000" stroke="none" 
	d="
M269.328186,326.932678 
	C268.990936,326.241119 268.991638,325.494843 268.991882,324.375244 
	C270.065460,323.933014 271.139496,323.864105 272.608276,323.890930 
	C271.890747,324.950409 270.778442,325.914185 269.328186,326.932678 
z"/>
<path fill="#3A88F9" opacity="1.000000" stroke="none" 
	d="
M278.079468,213.650696 
	C261.416138,215.397598 244.826248,216.741852 228.253342,218.270294 
	C226.578766,218.424744 225.006729,219.691345 223.180817,220.746536 
	C219.441849,217.552795 215.909180,214.054367 211.971771,210.155151 
	C217.466980,204.413193 222.830063,198.809280 228.489243,193.066986 
	C232.717651,192.947311 236.680252,193.289154 240.576584,192.923859 
	C252.104858,191.843094 263.598450,190.394821 275.123993,189.280777 
	C279.077911,188.898605 283.086243,189.079285 287.535370,189.003448 
	C291.696198,189.758484 295.390015,190.519760 299.086853,191.265839 
	C306.187469,192.698853 313.289886,194.123276 320.695190,195.775269 
	C320.697876,196.790222 320.396942,197.581207 320.046783,198.686401 
	C309.068329,202.296356 298.102966,205.479233 287.232391,208.958237 
	C284.068420,209.970856 281.175110,211.829391 278.079468,213.650696 
z"/>
<path fill="#29BBFD" opacity="1.000000" stroke="none" 
	d="
M414.792053,61.634033 
	C406.666290,64.093201 398.528015,66.318321 390.315338,68.222481 
	C386.795105,69.038666 383.077209,68.971024 379.522644,69.675697 
	C361.676849,73.213516 343.936890,77.365341 326.000305,80.340393 
	C310.861328,82.851440 295.538300,84.477028 280.233093,85.693184 
	C267.287598,86.721832 254.253021,86.751678 241.253815,86.935120 
	C233.350815,87.046646 225.440109,86.610764 217.500183,85.995720 
	C218.311874,84.713455 219.156250,83.856247 220.464859,82.999268 
	C232.966141,81.915443 245.091583,81.414291 257.018616,79.605034 
	C273.231293,77.145683 289.386719,74.107109 305.386719,70.515236 
	C316.995178,67.909225 328.373077,64.197899 339.741760,60.623108 
	C351.874786,56.807964 363.960938,52.806465 375.906311,48.444633 
	C384.448334,45.325542 392.724457,41.478153 401.119202,37.955727 
	C405.662628,45.727139 410.206024,53.498554 414.792053,61.634033 
z"/>
<path fill="#27C1FE" opacity="1.000000" stroke="none" 
	d="
M236.000000,68.000000 
	C239.657639,67.031570 243.287979,65.941032 246.977829,65.116806 
	C259.878326,62.235126 272.838440,59.611172 285.702606,56.578400 
	C301.509552,52.851864 316.801544,47.596584 331.835175,41.365807 
	C345.700836,35.619087 359.093781,29.199867 371.541779,20.779594 
	C373.749451,19.286243 376.693970,18.882240 379.707977,17.964872 
	C384.710175,21.767544 389.354370,25.520571 393.872253,29.419975 
	C395.990021,31.247782 397.864075,33.357925 399.582794,35.662983 
	C398.181885,36.196747 397.007080,36.285355 395.918060,36.638493 
	C389.086060,38.853886 382.268890,41.115505 375.457092,43.392548 
	C373.885956,43.917751 372.370911,44.609932 370.802338,45.143864 
	C365.047699,47.102745 359.370239,49.375114 353.496735,50.875935 
	C346.316376,52.710693 338.946625,53.790211 331.697327,55.372761 
	C321.912140,57.508915 312.254272,60.418598 302.377197,61.896877 
	C289.083466,63.886528 275.643341,64.940987 262.245911,66.179306 
	C253.515762,66.986229 244.749878,67.406509 236.000000,68.000000 
z"/>
<path fill="#26BEFD" opacity="1.000000" stroke="none" 
	d="
M235.556046,68.000023 
	C244.749878,67.406509 253.515762,66.986229 262.245911,66.179306 
	C275.643341,64.940987 289.083466,63.886528 302.377197,61.896877 
	C312.254272,60.418598 321.912140,57.508915 331.697327,55.372761 
	C338.946625,53.790211 346.316376,52.710693 353.496735,50.875935 
	C359.370239,49.375114 365.047699,47.102745 370.802338,45.143864 
	C372.370911,44.609932 373.885956,43.917751 375.457092,43.392548 
	C382.268890,41.115505 389.086060,38.853886 395.918060,36.638493 
	C397.007080,36.285355 398.181885,36.196747 399.717834,35.973053 
	C400.416382,36.424171 400.714081,36.888077 401.065491,37.653851 
	C392.724457,41.478153 384.448334,45.325542 375.906311,48.444633 
	C363.960938,52.806465 351.874786,56.807964 339.741760,60.623108 
	C328.373077,64.197899 316.995178,67.909225 305.386719,70.515236 
	C289.386719,74.107109 273.231293,77.145683 257.018616,79.605034 
	C245.091583,81.414291 232.966141,81.915443 220.173157,82.777267 
	C208.777740,78.525986 196.977081,78.063324 187.000000,72.000000 
	C190.697128,71.362625 194.372055,70.403923 198.095444,70.146698 
	C210.424927,69.294891 222.771851,68.695984 235.556046,68.000023 
z"/>
<path fill="#22BCFC" opacity="1.000000" stroke="none" 
	d="
M186.562103,71.999695 
	C196.977081,78.063324 208.777740,78.525986 219.708893,82.777031 
	C219.156250,83.856247 218.311874,84.713455 217.234055,85.785934 
	C211.968277,86.334282 206.935928,86.667351 201.451187,87.000664 
	C176.076340,86.806259 151.300003,85.082802 126.796768,80.223671 
	C103.155579,75.535492 79.896729,69.542824 57.400467,60.767025 
	C48.292198,57.213890 38.989670,54.145779 29.957018,50.417305 
	C25.557539,48.601303 21.574980,45.775265 17.177429,43.149529 
	C22.723957,36.331955 28.496750,29.771290 34.576485,23.084957 
	C41.365189,26.933067 47.961910,30.732449 54.306515,34.914326 
	C71.276459,46.099602 90.325272,52.423965 109.434387,58.513023 
	C119.370201,61.679035 129.501526,64.369347 139.703949,66.517502 
	C147.956650,68.255157 156.436356,68.958809 164.836792,69.937263 
	C171.916611,70.761902 179.027222,71.322128 186.562103,71.999695 
z"/>
<path fill="#423FED" opacity="1.000000" stroke="none" 
	d="
M72.000610,355.000000 
	C76.808220,357.552368 81.615829,360.104736 86.711563,362.828552 
	C85.552162,369.941589 83.964386,376.857788 82.699715,383.832520 
	C81.609482,389.845184 81.196945,395.991333 79.911324,401.954834 
	C78.730347,407.432953 76.784065,412.746094 75.089645,418.482910 
	C68.556290,416.609131 62.108234,414.384338 55.337406,411.605103 
	C56.372543,405.439117 57.919521,399.865173 59.045124,394.207367 
	C60.843525,385.167755 62.362034,376.072479 64.246468,366.756775 
	C66.996246,362.675201 69.498428,358.837616 72.000610,355.000000 
z"/>
<path fill="#373AEA" opacity="1.000000" stroke="none" 
	d="
M6.941639,359.423157 
	C12.432058,355.258362 17.819271,351.226746 23.551153,347.765991 
	C27.890669,345.145905 32.669930,343.254120 37.631050,341.409485 
	C40.916874,348.209015 41.886112,355.020142 41.994011,362.415955 
	C41.078213,367.027863 40.604370,371.380524 39.162300,375.384491 
	C36.752357,382.075653 33.723759,388.544006 30.955578,395.106171 
	C19.588360,385.631104 12.106164,373.518402 6.941639,359.423157 
z"/>
<path fill="#3D3AEB" opacity="1.000000" stroke="none" 
	d="
M31.094025,395.410889 
	C33.723759,388.544006 36.752357,382.075653 39.162300,375.384491 
	C40.604370,371.380524 41.078213,367.027863 42.402321,362.441345 
	C46.753944,362.972351 50.690254,363.895050 54.627151,364.815247 
	C57.750687,365.545349 60.874947,366.272369 63.998878,367.000732 
	C62.362034,376.072479 60.843525,385.167755 59.045124,394.207367 
	C57.919521,399.865173 56.372543,405.439117 55.009361,411.442352 
	C46.066021,407.956940 38.168945,402.544617 31.094025,395.410889 
z"/>
<path fill="#536FFA" opacity="1.000000" stroke="none" 
	d="
M269.132965,268.262390 
	C269.625763,267.409760 270.167999,266.513184 270.848785,266.391449 
	C284.926025,263.874390 299.019043,261.445374 313.554443,258.998260 
	C321.898743,258.344757 329.812531,257.832428 337.690948,256.989502 
	C342.887421,256.433533 346.470581,258.972748 349.903992,262.666290 
	C346.039764,265.011169 342.138062,267.155212 338.106232,269.017487 
	C331.179230,272.217041 324.171051,275.240784 317.099670,278.667908 
	C307.151489,281.185394 297.300537,283.373230 287.200836,285.824036 
	C281.050385,280.251099 275.148651,274.415161 269.132965,268.262390 
z"/>
<path fill="#2D6EF2" opacity="1.000000" stroke="none" 
	d="
M130.712723,231.008942 
	C130.767227,237.695587 130.821732,244.382248 130.379135,251.531464 
	C128.556793,251.907837 127.228584,251.853302 125.906754,251.730255 
	C118.025772,250.996765 110.274124,250.194138 102.244118,251.693207 
	C94.875755,253.068756 87.124519,253.422134 79.637611,252.887238 
	C69.000008,252.127228 58.495449,251.685379 48.019142,253.996490 
	C45.386436,252.852066 42.353943,252.202362 40.201847,250.463211 
	C35.282703,246.487961 30.794168,241.979843 26.064419,237.352264 
	C38.353939,236.344070 50.709778,235.671799 63.995895,234.999481 
	C78.320229,235.387268 91.662331,237.117554 105.088425,234.139481 
	C113.449936,232.284805 122.159409,231.998917 130.712723,231.008942 
z"/>
<path fill="#2A77F3" opacity="1.000000" stroke="none" 
	d="
M130.792572,230.545731 
	C122.159409,231.998917 113.449936,232.284805 105.088425,234.139481 
	C91.662331,237.117554 78.320229,235.387268 64.464157,234.999115 
	C62.706146,232.422241 61.696365,229.641068 60.038918,227.322968 
	C58.134262,224.659195 58.365955,222.627563 60.831177,220.284866 
	C69.457069,219.665451 77.915649,219.329483 86.373985,218.987869 
	C87.038040,218.961060 87.813454,219.103409 88.346275,218.814804 
	C93.864265,215.826080 99.343010,212.764877 105.386490,209.364517 
	C114.200409,209.008987 122.460495,209.012772 130.720581,209.016571 
	C130.771194,216.038544 130.821808,223.060532 130.792572,230.545731 
z"/>
<path fill="#2986F5" opacity="1.000000" stroke="none" 
	d="
M130.801224,208.553146 
	C122.460495,209.012772 114.200409,209.008987 105.472107,209.006470 
	C95.572929,206.441650 86.141968,203.875580 76.355804,201.154449 
	C77.854492,198.759018 79.672501,196.487625 81.574287,194.288696 
	C82.947067,192.701416 84.431274,191.210526 85.931412,189.338806 
	C86.748085,189.000351 87.499146,188.999710 88.625710,188.998322 
	C102.613457,189.331711 116.225700,189.665848 130.282440,189.999207 
	C130.778595,196.028839 130.830231,202.059280 130.801224,208.553146 
z"/>
<path fill="#3469F2" opacity="1.000000" stroke="none" 
	d="
M48.084255,254.342163 
	C58.495449,251.685379 69.000008,252.127228 79.637611,252.887238 
	C87.124519,253.422134 94.875755,253.068756 102.244118,251.693207 
	C110.274124,250.194138 118.025772,250.996765 125.906754,251.730255 
	C127.228584,251.853302 128.556793,251.907837 130.302414,251.993896 
	C130.775742,258.357574 130.828705,264.721375 130.381378,271.548767 
	C127.916252,272.015656 125.951393,272.018921 123.692032,271.790741 
	C116.455368,270.054779 109.567932,268.150299 102.551277,267.190460 
	C98.091454,266.580353 93.423058,267.183105 88.877747,267.580261 
	C81.358963,268.237213 73.878281,269.377838 66.352615,269.887238 
	C62.940918,270.118164 59.459900,269.324951 56.010330,268.996307 
	C53.390015,264.226807 50.769691,259.457336 48.084255,254.342163 
z"/>
<path fill="#305CEF" opacity="1.000000" stroke="none" 
	d="
M55.611008,269.020599 
	C59.459900,269.324951 62.940918,270.118164 66.352615,269.887238 
	C73.878281,269.377838 81.358963,268.237213 88.877747,267.580261 
	C93.423058,267.183105 98.091454,266.580353 102.551277,267.190460 
	C109.567932,268.150299 116.455368,270.054779 123.516022,272.081055 
	C120.761818,274.512299 118.110817,276.997284 114.968796,278.207764 
	C109.002243,280.506409 102.547325,284.108124 96.668472,283.508636 
	C85.685699,282.388641 76.570267,286.491028 67.000000,289.997742 
	C59.740162,287.942352 52.493767,285.837738 45.216217,283.847076 
	C39.373711,282.248993 39.451344,277.417572 38.996124,272.421722 
	C44.400131,271.020660 49.805904,270.032776 55.611008,269.020599 
z"/>
<path fill="#3858F0" opacity="1.000000" stroke="none" 
	d="
M66.976051,290.377655 
	C76.570267,286.491028 85.685699,282.388641 96.668472,283.508636 
	C102.547325,284.108124 109.002243,280.506409 114.968796,278.207764 
	C118.110817,276.997284 120.761818,274.512299 123.810539,272.312500 
	C125.951393,272.018921 127.916252,272.015656 130.299530,272.011353 
	C130.771149,286.366425 130.824341,300.722504 130.795303,315.540558 
	C122.912277,314.440674 115.016937,313.238892 107.335548,311.222198 
	C98.513702,308.906036 90.628448,311.417297 82.722641,314.646332 
	C81.031975,315.336853 79.380013,316.122101 77.352737,316.926941 
	C68.874344,312.092529 60.753426,307.194885 52.320335,302.145172 
	C55.788345,299.333466 59.597839,296.714081 63.332764,293.992371 
	C64.633980,293.044128 65.750969,291.843109 66.976051,290.377655 
z"/>
<path fill="#3B40EC" opacity="1.000000" stroke="none" 
	d="
M64.246475,366.756775 
	C60.874947,366.272369 57.750687,365.545349 54.627151,364.815247 
	C50.690254,363.895050 46.753944,362.972351 42.409073,362.025360 
	C41.886112,355.020142 40.916874,348.209015 38.003841,341.390991 
	C38.859856,338.636292 39.618187,336.227539 40.606510,333.917175 
	C41.934204,330.813477 43.439545,327.785797 44.933945,324.362732 
	C52.687309,323.667236 60.375355,323.334473 68.531799,323.003296 
	C70.335846,326.528107 72.608620,329.999756 72.806122,333.585663 
	C73.181976,340.409576 72.371910,347.298828 72.027451,354.580475 
	C69.498428,358.837616 66.996246,362.675201 64.246475,366.756775 
z"/>
<path fill="#2FAFFB" opacity="1.000000" stroke="none" 
	d="
M173.678528,107.400368 
	C176.920776,106.631813 180.031815,106.318451 183.572617,106.005783 
	C188.216522,106.338646 192.428665,106.924385 196.645126,106.957291 
	C211.591385,107.073944 226.539169,107.025154 241.486252,106.987244 
	C246.087524,106.975578 250.688385,106.798248 255.664200,106.858536 
	C250.326065,113.315170 244.619354,119.615692 238.895248,125.900360 
	C237.674164,127.241020 236.389771,128.524002 234.426575,129.945068 
	C232.080612,129.818863 230.444321,129.387482 228.804337,129.372986 
	C210.470001,129.210968 192.135101,129.113235 173.800354,128.998184 
	C173.716003,121.950645 173.631653,114.903099 173.678528,107.400368 
z"/>
<path fill="#426DF6" opacity="1.000000" stroke="none" 
	d="
M173.785202,275.946655 
	C173.785202,259.853210 173.785202,243.759796 173.785202,229.198578 
	C181.273254,236.085510 189.555023,243.436905 197.522583,251.114395 
	C203.907806,257.267151 209.911545,263.815826 215.884216,270.654175 
	C202.026260,275.407349 187.977097,276.296509 173.785202,275.946655 
z"/>
<path fill="#2AA3FA" opacity="1.000000" stroke="none" 
	d="
M173.684265,129.453293 
	C192.135101,129.113235 210.470001,129.210968 228.804337,129.372986 
	C230.444321,129.387482 232.080612,129.818863 234.156052,130.098083 
	C227.654312,137.770599 220.715149,145.401642 213.160645,152.913208 
	C208.143631,152.530594 203.744461,152.107132 199.339752,152.038467 
	C190.827454,151.905762 182.312042,151.973160 173.797913,151.957611 
	C173.721329,144.607880 173.644760,137.258148 173.684265,129.453293 
z"/>
<path fill="#4E62F6" opacity="1.000000" stroke="none" 
	d="
M242.517944,297.335297 
	C228.170090,302.131805 213.933624,307.760498 198.354004,308.105499 
	C190.425079,308.281067 182.515915,309.350586 174.194031,310.025330 
	C173.707031,304.005615 173.623810,297.976593 174.063858,291.482697 
	C181.855194,290.691833 189.151978,290.665344 196.384750,289.971405 
	C207.989487,288.858032 219.551834,287.302948 231.132111,285.934509 
	C234.862122,289.637207 238.592148,293.339844 242.517944,297.335297 
z"/>
<path fill="#4F6DF6" opacity="1.000000" stroke="none" 
	d="
M230.990479,285.616211 
	C219.551834,287.302948 207.989487,288.858032 196.384750,289.971405 
	C189.151978,290.665344 181.855194,290.691833 174.179047,291.032227 
	C173.690109,286.315948 173.609238,281.585236 173.656799,276.400604 
	C187.977097,276.296509 202.026260,275.407349 216.062897,270.950256 
	C221.244232,275.619904 226.046524,280.458893 230.990479,285.616211 
z"/>
<path fill="#359BFB" opacity="1.000000" stroke="none" 
	d="
M173.670135,152.411652 
	C182.312042,151.973160 190.827454,151.905762 199.339752,152.038467 
	C203.744461,152.107132 208.143631,152.530594 212.866943,153.089096 
	C207.964249,159.133682 202.739899,164.882919 196.768646,170.812973 
	C188.607574,170.689453 181.193375,170.385132 173.779175,170.080795 
	C173.700241,164.342438 173.621307,158.604065 173.670135,152.411652 
z"/>
<path fill="#3793FA" opacity="1.000000" stroke="none" 
	d="
M173.669800,170.474823 
	C181.193375,170.385132 188.607574,170.689453 196.485641,170.990295 
	C189.578979,179.081100 182.208450,187.175400 174.837921,195.269699 
	C174.412094,195.134735 173.986252,194.999771 173.560425,194.864807 
	C173.560425,186.866150 173.560425,178.867508 173.669800,170.474823 
z"/>
</svg>