<svg width="24" height="24" viewBox="0 0 24 24" fill="none" xmlns="http://www.w3.org/2000/svg">
<path d="M15.0059 9C15.0059 7.34038 13.6606 5.99512 12.001 5.99512C10.3414 5.99512 8.99609 7.34038 8.99609 9C8.99609 10.6596 10.3414 12.0049 12.001 12.0049V14C9.23955 14 7.00098 11.7614 7.00098 9C7.00098 6.23858 9.23955 4 12.001 4C14.7624 4 17.001 6.23858 17.001 9C17.001 11.7614 14.7624 14 12.001 14V12.0049C13.6606 12.0049 15.0059 10.6596 15.0059 9Z" fill="#30313E"/>
<path d="M14.001 15.0039C17.8656 15.0039 20.998 18.1364 20.998 22.001H19.0039C19.0039 19.2382 16.7638 16.998 14.001 16.998H10.001C7.23817 16.998 4.99805 19.2382 4.99805 22.001H3.00391C3.00391 18.1364 6.13636 15.0039 10.001 15.0039H14.001Z" fill="#30313E"/>
</svg>
