<svg width="24" height="24" viewBox="0 0 24 24" fill="none" xmlns="http://www.w3.org/2000/svg">
<path fill-rule="evenodd" clip-rule="evenodd" d="M12 7H8C5.79086 7 4 8.79086 4 11V19C4 21.2091 5.79086 23 8 23H16C18.2091 23 20 21.2091 20 19V15.0003H18V19C18 20.1046 17.1046 21 16 21H8C6.89543 21 6 20.1046 6 19V11C6 9.89543 6.89543 9 8 9H12V7Z" fill="#141414"/>
<path fill-rule="evenodd" clip-rule="evenodd" d="M14.2858 6H20.0001C20.5524 6 21.0001 6.44772 21.0001 7V12.7143H19.0001V9.41421L12.7072 15.7071L11.293 14.2929L17.5859 8H14.2858V6Z" fill="#141414"/>
</svg>
