<svg width="24" height="24" viewBox="0 0 24 24" fill="none" xmlns="http://www.w3.org/2000/svg">
<path fill-rule="evenodd" clip-rule="evenodd" d="M11 4H7C4.79086 4 3 5.79086 3 8V16C3 18.2091 4.79086 20 7 20H15C17.2091 20 19 18.2091 19 16V12.0003H17V16C17 17.1046 16.1046 18 15 18H7C5.89543 18 5 17.1046 5 16V8C5 6.89543 5.89543 6 7 6H11V4Z" fill="#141414"/>
<path fill-rule="evenodd" clip-rule="evenodd" d="M13.2858 3H19.0001C19.5524 3 20.0001 3.44772 20.0001 4V9.71429H18.0001V6.41421L11.7072 12.7071L10.293 11.2929L16.5859 5H13.2858V3Z" fill="#141414"/>
</svg>
