<svg width="12" height="12" viewBox="0 0 12 12" fill="none" xmlns="http://www.w3.org/2000/svg">
<path d="M0.153005 3.99541V11.7324H2.7246V3.99541H0.153005Z" fill="#30313E"/>
<path d="M1.42188 2.93945H1.4388C2.33594 2.93945 2.89387 2.34508 2.89387 1.60227C2.87695 0.843064 2.33594 0.265625 1.4556 0.265625C0.575522 0.265625 0 0.843064 0 1.60227C0 2.34508 0.559124 2.93945 1.42188 2.93945Z" fill="#30313E"/>
<path d="M9.42761 11.7324H12V7.29567C12 4.91939 10.7311 3.81384 9.03828 3.81384C7.67182 3.81384 7.06178 4.56584 6.72006 5.09184V3.99547H4.14714C4.18166 4.72129 4.14714 11.7325 4.14714 11.7325H6.72006V7.41151C6.72006 7.32978 6.72231 7.24832 6.72813 7.16984C6.73871 7.02563 6.76159 6.89153 6.80536 6.78448C6.99143 6.32163 7.41394 5.84377 8.12501 5.84377C9.056 5.84377 9.42761 6.55345 9.42761 7.59315V11.7324Z" fill="#30313E"/>
</svg>
