<svg width="132" height="44" viewBox="0 0 132 44" fill="none" xmlns="http://www.w3.org/2000/svg">
<path d="M36.7449 25.6346L28.2796 30.8284C28.1081 30.9337 27.8919 30.9337 27.7204 30.8284L19.2551 25.6346C19.0966 25.5374 19 25.3648 19 25.1789V13.4585C19 13.2053 19.2053 13 19.4585 13C19.6328 13 19.792 13.0988 19.8693 13.255L23.8602 21.3114C23.9723 21.5379 23.9106 21.812 23.7122 21.9686L20.2366 24.7103C20.0374 24.8673 20.1485 25.1875 20.4021 25.1875H25.2867C25.4967 25.1875 25.6872 25.3104 25.7738 25.5017L27.7565 29.8808C27.8513 30.0903 28.1487 30.0903 28.2435 29.8808L30.2262 25.5017C30.3128 25.3104 30.5033 25.1875 30.7133 25.1875H35.5979C35.8515 25.1875 35.9626 24.8673 35.7634 24.7103L32.2878 21.9686C32.0894 21.812 32.0277 21.5379 32.1398 21.3114L36.1307 13.255C36.208 13.0988 36.3672 13 36.5415 13C36.7947 13 37 13.2053 37 13.4585V25.1789C37 25.3648 36.9034 25.5374 36.7449 25.6346Z" fill="white"/>
<path d="M105.934 18.0704V15.9648H115V18.0704H111.748V26.6918H109.191V18.0704H105.934Z" fill="white"/>
<path d="M98.4798 26.6937H95.6934L99.3126 15.9668H102.764L106.384 26.6937H103.597L101.078 18.6695H100.994L98.4798 26.6937ZM98.108 22.4721H103.932V24.4415H98.108V22.4721Z" fill="white"/>
<path d="M95.3073 19.8514H92.6884C92.6535 19.5826 92.5819 19.3399 92.4737 19.1234C92.3654 18.9069 92.2223 18.7218 92.0442 18.5682C91.8661 18.4145 91.6548 18.2976 91.4104 18.2173C91.1695 18.1334 90.9023 18.0915 90.609 18.0915C90.0887 18.0915 89.64 18.219 89.2629 18.4739C88.8893 18.7288 88.6012 19.0972 88.3987 19.5791C88.1997 20.0609 88.1001 20.6441 88.1001 21.3285C88.1001 22.0408 88.2014 22.6379 88.4039 23.1198C88.61 23.5982 88.898 23.9596 89.2682 24.204C89.6418 24.445 90.0835 24.5654 90.5933 24.5654C90.8796 24.5654 91.1398 24.5288 91.3737 24.4554C91.6112 24.3821 91.819 24.2756 91.997 24.1359C92.1786 23.9928 92.327 23.8199 92.4422 23.6174C92.561 23.4114 92.643 23.1792 92.6884 22.9208L95.3073 22.9365C95.2619 23.4114 95.124 23.8793 94.8935 24.3402C94.6665 24.8011 94.354 25.2219 93.956 25.6025C93.5579 25.9796 93.0725 26.2799 92.4999 26.5034C91.9307 26.7269 91.2777 26.8386 90.5409 26.8386C89.5702 26.8386 88.7007 26.6256 87.9325 26.1996C87.1678 25.7701 86.5637 25.1451 86.1203 24.3245C85.6768 23.5039 85.4551 22.5052 85.4551 21.3285C85.4551 20.1482 85.6803 19.1478 86.1307 18.3272C86.5812 17.5067 87.1905 16.8834 87.9587 16.4574C88.7269 16.0314 89.5877 15.8184 90.5409 15.8184C91.1904 15.8184 91.791 15.9091 92.3427 16.0907C92.8944 16.2688 93.3798 16.5307 93.7988 16.8764C94.2178 17.2186 94.5583 17.6394 94.8202 18.1387C95.0821 18.638 95.2444 19.2089 95.3073 19.8514Z" fill="white"/>
<path d="M79.1662 26.5941H75.2012V15.8672H79.1609C80.2539 15.8672 81.1949 16.0819 81.9841 16.5114C82.7767 16.9374 83.3878 17.552 83.8173 18.3551C84.2468 19.1548 84.4615 20.1115 84.4615 21.2254C84.4615 22.3428 84.2468 23.3031 83.8173 24.1062C83.3913 24.9093 82.782 25.5256 81.9893 25.9551C81.1967 26.3811 80.2556 26.5941 79.1662 26.5941ZM77.7939 24.3838H79.0666C79.6672 24.3838 80.1753 24.2825 80.5908 24.08C81.0098 23.874 81.3259 23.5405 81.5389 23.0796C81.7554 22.6152 81.8636 21.9971 81.8636 21.2254C81.8636 20.4537 81.7554 19.8392 81.5389 19.3817C81.3224 18.9208 81.0029 18.5891 80.5803 18.3866C80.1613 18.1805 79.6445 18.0775 79.03 18.0775H77.7939V24.3838Z" fill="white"/>
<path d="M67.377 26.5941V15.8672H69.9696V24.4885H74.4322V26.5941H67.377Z" fill="white"/>
<path d="M65.4091 15.8672V26.5941H62.8164V15.8672H65.4091Z" fill="white"/>
<path d="M49.9967 26.5941L46.875 15.8672H49.7401L51.3585 22.8963H51.4476L53.2965 15.8672H55.6325L57.4815 22.912H57.5705L59.1942 15.8672H62.054L58.9376 26.5941H56.4391L54.5064 20.0888H54.4226L52.4899 26.5941H49.9967Z" fill="white"/>
</svg>
