<svg width="142" height="32" viewBox="0 0 142 32" fill="none" xmlns="http://www.w3.org/2000/svg">
<path d="M38.0745 20.7442L30.1863 25.5839C30.0275 25.6813 29.8275 25.6813 29.6687 25.5839L21.7805 20.7442C21.6338 20.6542 21.5444 20.4945 21.5444 20.3224V9.40362C21.5444 9.16776 21.7356 8.97656 21.9715 8.97656C22.1338 8.97656 22.2821 9.0686 22.3542 9.21406L26.0726 16.7206C26.1764 16.9302 26.1193 17.1839 25.9357 17.3287L22.6926 19.887C22.5083 20.0324 22.6111 20.3286 22.8458 20.3286H27.4023C27.5966 20.3286 27.7729 20.4423 27.8531 20.6193L29.7021 24.7035C29.7899 24.8973 30.0651 24.8973 30.1529 24.7035L32.0019 20.6193C32.0821 20.4423 32.2584 20.3286 32.4527 20.3286H37.0092C37.2439 20.3286 37.3467 20.0324 37.1624 19.887L33.9193 17.3287C33.7357 17.1839 33.6786 16.9302 33.7824 16.7206L37.5008 9.21406C37.5729 9.0686 37.7212 8.97656 37.8835 8.97656C38.1194 8.97656 38.3106 9.16776 38.3106 9.40362V20.3224C38.3106 20.4945 38.2212 20.6542 38.0745 20.7442Z" fill="white"/>
<path d="M101.509 13.4273V11.5156H109.74V13.4273H106.787V21.2545H104.467V13.4273H101.509Z" fill="white"/>
<path d="M94.7432 21.2545H92.2134L95.4993 11.5156H98.633L101.919 21.2545H99.3891L97.1018 13.9694H97.0257L94.7432 21.2545ZM94.4056 17.4217H99.6935V19.2097H94.4056V17.4217Z" fill="white"/>
<path d="M91.8605 15.0366H89.4828C89.4511 14.7925 89.3862 14.5721 89.2879 14.3756C89.1896 14.179 89.0596 14.011 88.8979 13.8715C88.7363 13.732 88.5445 13.6258 88.3225 13.5529C88.1038 13.4768 87.8613 13.4388 87.595 13.4388C87.1226 13.4388 86.7153 13.5545 86.3729 13.7859C86.0337 14.0174 85.7721 14.3518 85.5883 14.7893C85.4076 15.2268 85.3172 15.7562 85.3172 16.3776C85.3172 17.0243 85.4091 17.5664 85.593 18.0039C85.78 18.4382 86.0416 18.7663 86.3776 18.9882C86.7168 19.207 87.1179 19.3164 87.5807 19.3164C87.8407 19.3164 88.0769 19.2831 88.2893 19.2165C88.5048 19.1499 88.6935 19.0532 88.8551 18.9264C89.02 18.7964 89.1547 18.6395 89.2593 18.4556C89.3671 18.2686 89.4416 18.0578 89.4828 17.8232L91.8605 17.8375C91.8193 18.2686 91.6941 18.6934 91.4848 19.1119C91.2788 19.5303 90.995 19.9124 90.6336 20.2579C90.2722 20.6003 89.8316 20.8729 89.3117 21.0758C88.7949 21.2787 88.2021 21.3802 87.5332 21.3802C86.6519 21.3802 85.8625 21.1868 85.165 20.8C84.4708 20.4101 83.9223 19.8426 83.5197 19.0976C83.1171 18.3526 82.9158 17.4459 82.9158 16.3776C82.9158 15.3061 83.1202 14.3978 83.5292 13.6528C83.9382 12.9078 84.4914 12.3419 85.1888 11.9551C85.8862 11.5684 86.6677 11.375 87.5332 11.375C88.1228 11.375 88.6681 11.4574 89.169 11.6223C89.6699 11.784 90.1105 12.0217 90.491 12.3356C90.8714 12.6463 91.1805 13.0283 91.4183 13.4816C91.656 13.9349 91.8034 14.4533 91.8605 15.0366Z" fill="white"/>
<path d="M77.2062 21.1607H73.6064V11.4219H77.2015C78.1937 11.4219 79.0481 11.6168 79.7646 12.0068C80.4842 12.3935 81.039 12.9515 81.4289 13.6806C81.8189 14.4066 82.0138 15.2753 82.0138 16.2866C82.0138 17.301 81.8189 18.1728 81.4289 18.902C81.0422 19.6311 80.489 20.1907 79.7693 20.5806C79.0497 20.9674 78.1953 21.1607 77.2062 21.1607ZM75.9603 19.154H77.1159C77.6611 19.154 78.1224 19.0621 78.4997 18.8782C78.8801 18.6911 79.167 18.3884 79.3604 17.9699C79.5569 17.5483 79.6552 16.9872 79.6552 16.2866C79.6552 15.5859 79.5569 15.028 79.3604 14.6127C79.1638 14.1942 78.8737 13.893 78.4901 13.7092C78.1097 13.5221 77.6405 13.4286 77.0826 13.4286H75.9603V19.154Z" fill="white"/>
<path d="M66.5027 21.1607V11.4219H68.8566V19.2491H72.9081V21.1607H66.5027Z" fill="white"/>
<path d="M64.7189 11.4219V21.1607H62.365V11.4219H64.7189Z" fill="white"/>
<path d="M50.7253 21.1607L47.8911 11.4219H50.4923L51.9617 17.8035H52.0425L53.7211 11.4219H55.842L57.5206 17.8178H57.6014L59.0756 11.4219H61.672L58.8426 21.1607H56.5743L54.8196 15.2546H54.7435L52.9888 21.1607H50.7253Z" fill="white"/>
</svg>
