<svg width="24" height="24" viewBox="0 0 24 24" fill="none" xmlns="http://www.w3.org/2000/svg">
<path fill-rule="evenodd" clip-rule="evenodd" d="M8.68198 4.65H5.62571C5.08684 4.65 4.65 5.08684 4.65 5.62571V8.68198C4.65 9.22085 5.08684 9.65769 5.62571 9.65769H8.68198C9.22085 9.65769 9.65769 9.22085 9.65769 8.68198V5.62571C9.65769 5.08684 9.22085 4.65 8.68198 4.65ZM5.62571 3C4.17557 3 3 4.17557 3 5.62571V8.68198C3 10.1321 4.17557 11.3077 5.62571 11.3077H8.68198C10.1321 11.3077 11.3077 10.1321 11.3077 8.68198V5.62571C11.3077 4.17557 10.1321 3 8.68198 3H5.62571Z" fill="#30313E"/>
<path fill-rule="evenodd" clip-rule="evenodd" d="M8.68198 14.3414H5.62571C5.08684 14.3414 4.65 14.7782 4.65 15.3171V18.3734C4.65 18.9123 5.08684 19.3491 5.62571 19.3491H8.68198C9.22085 19.3491 9.65769 18.9123 9.65769 18.3734V15.3171C9.65769 14.7782 9.22085 14.3414 8.68198 14.3414ZM5.62571 12.6914C4.17557 12.6914 3 13.867 3 15.3171V18.3734C3 19.8235 4.17557 20.9991 5.62571 20.9991H8.68198C10.1321 20.9991 11.3077 19.8235 11.3077 18.3734V15.3171C11.3077 13.867 10.1321 12.6914 8.68198 12.6914H5.62571Z" fill="#30313E"/>
<path fill-rule="evenodd" clip-rule="evenodd" d="M18.3734 4.65H15.3171C14.7782 4.65 14.3414 5.08684 14.3414 5.62571V8.68198C14.3414 9.22085 14.7782 9.65769 15.3171 9.65769H18.3734C18.9123 9.65769 19.3491 9.22085 19.3491 8.68198V5.62571C19.3491 5.08684 18.9123 4.65 18.3734 4.65ZM15.3171 3C13.867 3 12.6914 4.17557 12.6914 5.62571V8.68198C12.6914 10.1321 13.867 11.3077 15.3171 11.3077H18.3734C19.8235 11.3077 20.9991 10.1321 20.9991 8.68198V5.62571C20.9991 4.17557 19.8235 3 18.3734 3H15.3171Z" fill="#30313E"/>
<path fill-rule="evenodd" clip-rule="evenodd" d="M18.3734 14.3414H15.3171C14.7782 14.3414 14.3414 14.7782 14.3414 15.3171V18.3734C14.3414 18.9123 14.7782 19.3491 15.3171 19.3491H18.3734C18.9123 19.3491 19.3491 18.9123 19.3491 18.3734V15.3171C19.3491 14.7782 18.9123 14.3414 18.3734 14.3414ZM15.3171 12.6914C13.867 12.6914 12.6914 13.867 12.6914 15.3171V18.3734C12.6914 19.8235 13.867 20.9991 15.3171 20.9991H18.3734C19.8235 20.9991 20.9991 19.8235 20.9991 18.3734V15.3171C20.9991 13.867 19.8235 12.6914 18.3734 12.6914H15.3171Z" fill="#30313E"/>
</svg>
