<svg width="24" height="24" viewBox="0 0 24 24" fill="none" xmlns="http://www.w3.org/2000/svg">
<path d="M20.0029 10.2295H3.99707V18.6006C3.99707 19.3752 4.62581 20.0039 5.40039 20.0039H18.5996C19.3742 20.0039 20.0029 19.3752 20.0029 18.6006V10.2295ZM15.8486 5.77051V5.38281H8.15137V5.77051C8.15121 6.32112 7.70489 6.76733 7.1543 6.76758C6.60349 6.76758 6.15641 6.32127 6.15625 5.77051V5.38281H5.40039C4.62596 5.38281 3.99731 6.01078 3.99707 6.78516V8.23438H20.0029V6.78516C20.0027 6.01078 19.374 5.38281 18.5996 5.38281H17.8438V5.77051C17.8436 6.32127 17.3965 6.76758 16.8457 6.76758C16.2951 6.76733 15.8488 6.32112 15.8486 5.77051ZM21.9971 18.6006C21.9971 20.477 20.476 21.998 18.5996 21.998H5.40039C3.524 21.998 2.00293 20.477 2.00293 18.6006V6.78516C2.00317 4.90897 3.52415 3.3877 5.40039 3.3877H6.15625V3.00098C6.15625 2.45007 6.60339 2.00391 7.1543 2.00391C7.70499 2.00415 8.15137 2.45022 8.15137 3.00098V3.3877H15.8486V3.00098C15.8486 2.45022 16.295 2.00415 16.8457 2.00391C17.3966 2.00391 17.8438 2.45007 17.8438 3.00098V3.3877H18.5996C20.4759 3.3877 21.9968 4.90897 21.9971 6.78516V18.6006Z" fill="#30313E"/>
</svg>
