<svg width="24" height="24" viewBox="0 0 24 24" fill="none" xmlns="http://www.w3.org/2000/svg">
<path d="M18.0787 15.0869C16.8697 15.7465 15.3001 16.0598 13.7669 16.0619C12.2337 16.064 10.6637 15.7545 9.45401 15.0957C8.23595 14.4324 7.31161 13.3646 7.31143 11.8729L8.51109 11.8727C8.51116 12.7814 9.05049 13.5098 10.0273 14.0419C11.0131 14.5787 12.3712 14.8638 13.7653 14.8619C15.159 14.8599 16.5167 14.5714 17.5031 14.0333C18.4821 13.4992 19.0211 12.7717 19.0211 11.8714C19.0211 11.0248 18.3271 10.1406 16.9718 9.47431C15.6494 8.82418 13.8619 8.47754 12.0809 8.6299C10.3025 8.78211 8.58447 9.42608 7.34518 10.6931C6.11674 11.9491 5.29459 13.8822 5.4147 16.7478L4.21587 16.7984C4.0845 13.6643 4.98725 11.3882 6.48761 9.85422C7.97715 8.33135 9.99221 7.60418 11.978 7.43421C13.961 7.26448 15.9692 7.64409 17.5013 8.3973C19.0005 9.13436 20.2206 10.3311 20.2207 11.8712C20.2207 13.3566 19.2951 14.4232 18.0787 15.0869Z" fill="#A0A0B0"/>
</svg>
