<svg width="18" height="16" viewBox="0 0 18 16" fill="none" xmlns="http://www.w3.org/2000/svg">
<path d="M16.2105 1L9.95703 5.62582L11.123 2.89887L16.2105 1Z" fill="#E17726" stroke="#E17726" stroke-width="0.118977" stroke-linecap="round" stroke-linejoin="round"/>
<path d="M1.78846 1L7.98478 5.66389L6.87591 2.90363L1.78846 1ZM13.9574 11.7222L12.2917 14.2635L15.8563 15.2439L16.8747 11.7793L13.9574 11.7222ZM1.12695 11.7793L2.14064 15.2439L5.69566 14.2635L4.03951 11.7222L1.12695 11.7793Z" fill="#E27625" stroke="#E27625" stroke-width="0.118977" stroke-linecap="round" stroke-linejoin="round"/>
<path d="M5.50747 7.43051L4.51758 8.92486L8.03929 9.08666L7.92507 5.29368L5.50747 7.43527V7.43051ZM12.4938 7.43527L10.0381 5.24609L9.9572 9.08666L13.4789 8.92486L12.4938 7.43527ZM5.69783 14.2645L7.83465 13.2366L5.99765 11.8089L5.69783 14.2645ZM10.1714 13.2318L12.2939 14.2645L12.0084 11.8041L10.1714 13.2318Z" fill="#E27625" stroke="#E27625" stroke-width="0.118977" stroke-linecap="round" stroke-linejoin="round"/>
<path d="M12.2933 14.2623L10.1708 13.2344L10.3421 14.6145L10.3231 15.1999L12.2933 14.2623ZM5.69727 14.2623L7.67704 15.1999L7.66276 14.6145L7.83409 13.2344L5.69727 14.2623Z" fill="#D5BFB2" stroke="#D5BFB2" stroke-width="0.118977" stroke-linecap="round" stroke-linejoin="round"/>
<path d="M7.71008 10.8867L5.94922 10.3727L7.1961 9.80163L7.71483 10.8867H7.71008ZM10.2847 10.8867L10.8082 9.79688L12.0599 10.368L10.2847 10.8915V10.8867Z" fill="#233447" stroke="#233447" stroke-width="0.118977" stroke-linecap="round" stroke-linejoin="round"/>
<path d="M5.69717 14.2616L6.00651 11.7202L4.04102 11.7773L5.69717 14.2616ZM11.9934 11.7202L12.2932 14.2616L13.9589 11.7773L11.9934 11.7202ZM13.483 8.92188L9.9613 9.08368L10.2849 10.8921L10.8084 9.79754L12.0601 10.3686L13.483 8.92188ZM5.9494 10.3734L7.19628 9.8023L7.71502 10.8874L8.0434 9.07892L4.52168 8.92188L5.9494 10.3734Z" fill="#CC6228" stroke="#CC6228" stroke-width="0.118977" stroke-linecap="round" stroke-linejoin="round"/>
<path d="M4.52148 8.92188L5.9968 11.8011L5.94921 10.3734L4.52148 8.92188ZM12.0599 10.3734L12.0027 11.8011L13.4781 8.92188L12.0599 10.3734ZM8.0432 9.08368L7.71006 10.8921L8.12886 13.0242L8.22404 10.2116L8.0432 9.08368ZM9.95634 9.08368L9.78502 10.2068L9.87068 13.0242L10.2847 10.8874L9.95634 9.07892V9.08368Z" fill="#E27525" stroke="#E27525" stroke-width="0.118977" stroke-linecap="round" stroke-linejoin="round"/>
<path d="M10.2856 10.889L9.87155 13.0258L10.1714 13.2352L12.0036 11.8075L12.0607 10.375L10.2856 10.889ZM5.95007 10.375L5.99766 11.8027L7.83466 13.2304L8.12973 13.0258L7.71569 10.889L5.94531 10.375H5.95007Z" fill="#F5841F" stroke="#F5841F" stroke-width="0.118977" stroke-linecap="round" stroke-linejoin="round"/>
<path d="M10.3278 15.2032L10.3421 14.6178L10.1803 14.4845H7.81981L7.66276 14.6178L7.67704 15.2032L5.69727 14.2656L6.39209 14.8367L7.79602 15.8028H10.1993L11.608 14.832L12.2933 14.2656L10.3231 15.2032H10.3278Z" fill="#C0AC9D" stroke="#C0AC9D" stroke-width="0.118977" stroke-linecap="round" stroke-linejoin="round"/>
<path d="M10.1721 13.2281L9.87227 13.0234H8.13045L7.83539 13.2328L7.66406 14.613L7.82111 14.4797H10.1816L10.3434 14.613L10.1721 13.2328V13.2281Z" fill="#161616" stroke="#161616" stroke-width="0.118977" stroke-linecap="round" stroke-linejoin="round"/>
<path d="M16.4765 5.92564L17 3.37954L16.21 1L10.166 5.47353L12.4932 7.42951L15.7769 8.38608L16.5003 7.54372L16.1862 7.31529L16.6859 6.85842L16.3052 6.56335L16.8049 6.18263L16.4717 5.92564H16.4765ZM1 3.37478L1.53302 5.92564L1.19036 6.17787L1.69958 6.5586L1.31886 6.85842L1.8138 7.31529L1.4997 7.54372L2.22308 8.38608L5.50684 7.43427L7.83403 5.46877L1.79001 1L1 3.37478Z" fill="#763E1A" stroke="#763E1A" stroke-width="0.118977" stroke-linecap="round" stroke-linejoin="round"/>
<path d="M15.7754 8.38565L12.4916 7.43383L13.4815 8.92342L12.0062 11.8027L13.9574 11.7789H16.8747L15.7754 8.38565ZM5.5053 7.42907L2.22154 8.38565L1.12695 11.7789H4.04426L5.99548 11.8027L4.52017 8.92342L5.51006 7.42907H5.5053ZM9.95503 9.08523L10.1692 5.46834L11.121 2.89844H6.87591L7.82773 5.46834L8.04189 9.08523L8.12279 10.2179V13.0257H9.86937L9.87889 10.2179L9.95503 9.08523Z" fill="#F5841F" stroke="#F5841F" stroke-width="0.118977" stroke-linecap="round" stroke-linejoin="round"/>
</svg>
