<svg width="26" height="24" viewBox="0 0 26 24" fill="none" xmlns="http://www.w3.org/2000/svg">
<path d="M23.8137 1.19922L14.4336 8.13795L16.1826 4.04752L23.8137 1.19922Z" fill="#E17726" stroke="#E17726" stroke-width="0.178465" stroke-linecap="round" stroke-linejoin="round"/>
<path d="M2.18172 1.19922L11.4762 8.19505L9.81289 4.05466L2.18172 1.19922ZM20.4351 17.2825L17.9366 21.0945L23.2834 22.5651L24.8111 17.3682L20.4351 17.2825ZM1.18945 17.3682L2.70998 22.5651L8.04252 21.0945L5.55828 17.2825L1.18945 17.3682Z" fill="#E27625" stroke="#E27625" stroke-width="0.178465" stroke-linecap="round" stroke-linejoin="round"/>
<path d="M7.76022 10.8469L6.27539 13.0885L11.558 13.3312L11.3866 7.6417L7.76022 10.8541V10.8469ZM18.2397 10.8541L14.5562 7.57031L14.4348 13.3312L19.7174 13.0885L18.2397 10.8541ZM8.04577 21.098L11.251 19.556L8.4955 17.4145L8.04577 21.098ZM14.7561 19.5489L17.9399 21.098L17.5116 17.4073L14.7561 19.5489Z" fill="#E27625" stroke="#E27625" stroke-width="0.178465" stroke-linecap="round" stroke-linejoin="round"/>
<path d="M17.939 21.0927L14.7552 19.5508L15.0122 21.621L14.9836 22.499L17.939 21.0927ZM8.04492 21.0927L11.0146 22.499L10.9932 21.621L11.2502 19.5508L8.04492 21.0927Z" fill="#D5BFB2" stroke="#D5BFB2" stroke-width="0.178465" stroke-linecap="round" stroke-linejoin="round"/>
<path d="M11.0671 16.0293L8.42578 15.2583L10.2961 14.4017L11.0742 16.0293H11.0671ZM14.9291 16.0293L15.7143 14.3945L17.5918 15.2512L14.9291 16.0364V16.0293Z" fill="#233447" stroke="#233447" stroke-width="0.178465" stroke-linecap="round" stroke-linejoin="round"/>
<path d="M8.04478 21.0915L8.50879 17.2795L5.56055 17.3652L8.04478 21.0915ZM17.4892 17.2795L17.9389 21.0915L20.4374 17.3652L17.4892 17.2795ZM19.7235 13.082L14.441 13.3247L14.9264 16.0374L15.7116 14.3955L17.5891 15.2522L19.7235 13.082ZM8.42313 15.2593L10.2934 14.4027L11.0716 16.0303L11.5641 13.3176L6.28155 13.082L8.42313 15.2593Z" fill="#CC6228" stroke="#CC6228" stroke-width="0.178465" stroke-linecap="round" stroke-linejoin="round"/>
<path d="M6.2832 13.082L8.49617 17.4009L8.42479 15.2593L6.2832 13.082ZM17.5908 15.2593L17.5051 17.4009L19.7181 13.082L17.5908 15.2593ZM11.5658 13.3247L11.0661 16.0374L11.6943 19.2355L11.837 15.0166L11.5658 13.3247ZM14.4355 13.3247L14.1785 15.0095L14.307 19.2355L14.9281 16.0303L14.4355 13.3176V13.3247Z" fill="#E27525" stroke="#E27525" stroke-width="0.178465" stroke-linecap="round" stroke-linejoin="round"/>
<path d="M14.9284 16.0327L14.3073 19.2379L14.7571 19.552L17.5054 17.4104L17.5911 15.2617L14.9284 16.0327ZM8.42511 15.2617L8.49649 17.4033L11.252 19.5449L11.6946 19.2379L11.0735 16.0327L8.41797 15.2617H8.42511Z" fill="#F5841F" stroke="#F5841F" stroke-width="0.178465" stroke-linecap="round" stroke-linejoin="round"/>
<path d="M14.9908 22.504L15.0122 21.6259L14.7695 21.426H11.2287L10.9932 21.6259L11.0146 22.504L8.04492 21.0977L9.08716 21.9543L11.193 23.4034H14.798L16.9111 21.9471L17.939 21.0977L14.9836 22.504H14.9908Z" fill="#C0AC9D" stroke="#C0AC9D" stroke-width="0.178465" stroke-linecap="round" stroke-linejoin="round"/>
<path d="M14.7581 19.5452L14.3084 19.2383H11.6957L11.2531 19.5524L10.9961 21.6226L11.2317 21.4227H14.7724L15.0151 21.6226L14.7581 19.5524V19.5452Z" fill="#161616" stroke="#161616" stroke-width="0.178465" stroke-linecap="round" stroke-linejoin="round"/>
<path d="M24.2148 8.58768L25 4.76852L23.815 1.19922L14.749 7.90951L18.2397 10.8435L23.1654 12.2783L24.2504 11.0148L23.7793 10.6722L24.5289 9.98685L23.9578 9.54425L24.7073 8.97316L24.2076 8.58768H24.2148ZM1 4.76138L1.79952 8.58768L1.28554 8.96603L2.04938 9.53711L1.47829 9.98685L2.2207 10.6722L1.74955 11.0148L2.83462 12.2783L7.76026 10.8506L11.251 7.90237L2.18501 1.19922L1 4.76138Z" fill="#763E1A" stroke="#763E1A" stroke-width="0.178465" stroke-linecap="round" stroke-linejoin="round"/>
<path d="M23.1621 12.2816L18.2365 10.8539L19.7213 13.0883L17.5083 17.4071L20.4351 17.3714H24.8111L23.1621 12.2816ZM7.75697 10.8467L2.83133 12.2816L1.18945 17.3714H5.56542L8.49225 17.4071L6.27928 13.0883L7.76411 10.8467H7.75697ZM14.4316 13.331L14.7528 7.90563L16.1805 4.05078H9.81289L11.2406 7.90563L11.5619 13.331L11.6832 15.03V19.2417H14.3031L14.3174 15.03L14.4316 13.331Z" fill="#F5841F" stroke="#F5841F" stroke-width="0.178465" stroke-linecap="round" stroke-linejoin="round"/>
</svg>
