<svg width="24" height="24" viewBox="0 0 24 24" fill="none" xmlns="http://www.w3.org/2000/svg">
<path d="M21 13.3369C21 13.5815 21.0003 13.7042 20.9727 13.8193L20.9238 13.9688C20.9038 14.017 20.8799 14.0637 20.8525 14.1084L20.8008 14.1826C20.7423 14.2577 20.6611 14.3389 20.5312 14.4688L14.4688 20.5312L14.2617 20.7334C14.2058 20.7845 14.1589 20.8216 14.1084 20.8525L13.9688 20.9238C13.9204 20.9439 13.8704 20.9604 13.8193 20.9727L13.7295 20.9883C13.6351 20.9999 13.5202 21 13.3369 21H9.40039V19H13.1719L19 13.1719V9.40039C19 8.24728 18.9984 7.50222 18.9521 6.93555C18.9078 6.39231 18.8326 6.19068 18.7822 6.0918C18.5905 5.71554 18.2845 5.40951 17.9082 5.21777C17.8093 5.16739 17.6077 5.09224 17.0645 5.04785C16.4978 5.00155 15.7527 5 14.5996 5H9.40039C8.24728 5 7.50222 5.00155 6.93555 5.04785C6.39231 5.09224 6.19068 5.16739 6.0918 5.21777C5.71554 5.40951 5.40951 5.71554 5.21777 6.0918C5.16739 6.19068 5.09224 6.39231 5.04785 6.93555C5.00155 7.50222 5 8.24728 5 9.40039V14.5996C5 15.7527 5.00155 16.4978 5.04785 17.0645C5.09224 17.6077 5.16739 17.8093 5.21777 17.9082C5.40951 18.2845 5.71554 18.5905 6.0918 18.7822C6.19068 18.8326 6.39231 18.9078 6.93555 18.9521C7.50222 18.9984 8.24728 19 9.40039 19V21L7.91602 20.9932C6.72431 20.9744 5.96088 20.9041 5.34766 20.6406L5.18359 20.5645C4.52512 20.2289 3.97413 19.7183 3.58984 19.0918L3.43555 18.8164C2.99957 17.9608 3 16.8398 3 14.5996V9.40039C3 7.16018 2.99957 6.03924 3.43555 5.18359C3.81902 4.43109 4.43109 3.81902 5.18359 3.43555C5.82525 3.10861 6.61607 3.02728 7.91602 3.00684L9.40039 3H14.5996C16.8398 3 17.9608 2.99957 18.8164 3.43555C19.5689 3.81902 20.181 4.43109 20.5645 5.18359C21.0004 6.03924 21 7.16018 21 9.40039V13.3369Z" fill="#30313E"/>
<path d="M12 20V16.2002C12 15.6566 11.9989 15.1884 12.0303 14.8047C12.0626 14.4094 12.1344 14.016 12.3272 13.6377C12.6147 13.0735 13.0735 12.6147 13.6377 12.3272C14.016 12.1344 14.4094 12.0626 14.8047 12.0303C15.1884 11.9989 15.6566 12 16.2002 12H20C20.5523 12 21 12.4477 21 13C21 13.5523 20.5523 14 20 14H16.2002C15.6236 14 15.2511 14.0013 14.9678 14.0244C14.6962 14.0466 14.5953 14.0842 14.5459 14.1094C14.3579 14.2052 14.2052 14.3579 14.1094 14.5459C14.0842 14.5953 14.0466 14.6962 14.0244 14.9678C14.0013 15.2511 14 15.6236 14 16.2002V20C14 20.5523 13.5523 21 13 21C12.4477 21 12 20.5523 12 20Z" fill="#30313E"/>
</svg>
