<svg width="24" height="24" viewBox="0 0 24 24" fill="none" xmlns="http://www.w3.org/2000/svg">
<g clip-path="url(#clip0_12583_88106)">
<!--<circle opacity="0.4" cx="12" cy="12" r="12" fill="#DADAE3"/>-->
<path d="M6.75 14.3203V7.27576C6.75 7.12484 6.94779 7.06841 7.02742 7.19661L9.94202 11.8888C9.98389 11.9562 9.96602 12.0445 9.90125 12.0903L6.75 14.3203Z" fill="#141414"/>
<path d="M17.31 14.3203V7.2756C17.31 7.12469 17.1122 7.06825 17.0326 7.19643L14.1168 11.8887C14.075 11.9561 14.0928 12.0445 14.1576 12.0904L17.31 14.3203Z" fill="#141414"/>
<path d="M12.03 18.0461L10.8216 14.4228C10.8012 14.3616 10.7439 14.3203 10.6793 14.3203H6.75L12.03 18.0461Z" fill="#141414"/>
<path d="M12.03 18.0461L13.2384 14.4228C13.2588 14.3616 13.3161 14.3203 13.3807 14.3203H17.31L12.03 18.0461Z" fill="#141414"/>
</g>
<defs>
<clipPath id="clip0_12583_88106">
<rect width="24" height="24" rx="12" fill="white"/>
</clipPath>
</defs>
</svg>
