<svg width="22" height="22" viewBox="0 0 20 20" fill="none" xmlns="http://www.w3.org/2000/svg">
<path d="M5.46471 7.90909C5.46471 5.47825 7.46656 3.5 9.90588 3.5C12.3452 3.5 14.3471 5.47825 14.3471 7.90909V10.0972C14.3471 10.5529 14.4907 10.9969 14.7575 11.3662L15.6852 12.6501C16.2427 13.4216 15.6914 14.5 14.7395 14.5H5.1473C4.21084 14.5 3.65602 13.4523 4.18229 12.6777L5.0902 11.3414C5.33423 10.9822 5.46471 10.558 5.46471 10.1237V7.90909Z" stroke="white" stroke-linejoin="round"/>
<path d="M11.5 15C11.5 15.3978 11.342 15.7794 11.0607 16.0607C10.7794 16.342 10.3978 16.5 10 16.5C9.60218 16.5 9.22064 16.342 8.93934 16.0607C8.65804 15.7794 8.5 15.3978 8.5 15" stroke="white"/>
</svg>
