<svg width="20" height="20" viewBox="0 0 20 20" fill="none" xmlns="http://www.w3.org/2000/svg">
<path d="M14.8471 7.90909V10.0972C14.8471 10.4477 14.9575 10.7893 15.1628 11.0734L16.0905 12.3572C16.8868 13.4594 16.0993 15 14.7395 15H5.1473C3.80951 15 3.0169 13.5033 3.76871 12.3967L4.67663 11.0604C4.86434 10.7841 4.96471 10.4578 4.96471 10.1237V7.90909V7.90909C4.96471 5.19788 7.19467 3 9.90588 3V3" stroke="white" stroke-linecap="round" stroke-linejoin="round"/>
<path d="M11.5 15C11.5 15.3978 11.342 15.7794 11.0607 16.0607C10.7794 16.342 10.3978 16.5 10 16.5C9.60218 16.5 9.22064 16.342 8.93934 16.0607C8.65804 15.7794 8.5 15.3978 8.5 15" stroke="white"/>
</svg>
