<svg xmlns="http://www.w3.org/2000/svg" width="24" height="24" viewBox="0 0 16 16" fill="none">
    <path d="M7.66667 2.66797H6.26667C4.77319 2.66797 4.02646 2.66797 3.45602 2.95862C2.95426 3.21428 2.54631 3.62223 2.29065 4.12399C2 4.69443 2 5.44116 2 6.93464V10.4013C2 11.8948 2 12.6415 2.29065 13.2119C2.54631 13.7137 2.95426 14.1217 3.45602 14.3773C4.02646 14.668 4.77319 14.668 6.26667 14.668H9.73333C11.2268 14.668 11.9735 14.668 12.544 14.3773C13.0457 14.1217 13.4537 13.7137 13.7094 13.2119C14 12.6415 14 11.8948 14 10.4013V8.66797L14 7.0013" stroke="#30313E" stroke-width="1.33333"/>
    <rect width="3.33333" height="3.33333" rx="0.666667" transform="matrix(-1 0 0 1 13.3334 2)" fill="#30313E"/>
    <rect width="3.33333" height="3.33333" rx="0.666667" transform="matrix(-1 0 0 1 12 9.33203)" fill="#30313E"/>
    <rect width="3.33333" height="3.33333" rx="0.666667" transform="matrix(-1 0 0 1 7.33337 4.66797)" fill="#30313E"/>
    <rect width="3.33333" height="3.33333" rx="0.666667" transform="matrix(-1 0 0 1 7.33337 9.33203)" fill="#30313E"/>
</svg>