<svg xmlns="http://www.w3.org/2000/svg" width="24" height="24" viewBox="0 0 24 24" fill="none">
    <path d="M22.0005 15.6006V10.5H19.9995V15.6006C19.9995 16.7371 19.9986 17.5297 19.9482 18.1465C19.8988 18.7514 19.807 19.099 19.6729 19.3623C19.3852 19.9268 18.9263 20.3857 18.3618 20.6733C18.0985 20.8075 17.7509 20.8993 17.146 20.9487C16.5292 20.9991 15.7367 21 14.6001 21H9.3999C8.26335 21 7.47083 20.9991 6.854 20.9487C6.24905 20.8993 5.90149 20.8075 5.63818 20.6733C5.0737 20.3857 4.61477 19.9268 4.32715 19.3623C4.193 19.099 4.1012 18.7514 4.05176 18.1465C4.00136 17.5297 4.00049 16.7371 4.00049 15.6006V10.4004C4.00049 9.26384 4.00136 8.47132 4.05176 7.85449C4.1012 7.24954 4.193 6.90198 4.32715 6.63867C4.61477 6.07419 5.0737 5.61526 5.63818 5.32764C5.90149 5.19349 6.24905 5.10169 6.854 5.05225C7.47083 5.00185 8.26335 5.00098 9.3999 5.00098H11.5005V3H9.3999C8.29635 3 7.40856 3 6.69141 3.05859C5.96263 3.11814 5.32223 3.24319 4.72998 3.54492C3.78917 4.02429 3.0238 4.78966 2.54443 5.73047C2.24271 6.32271 2.11765 6.96311 2.05811 7.69189C1.99951 8.40905 1.99951 9.29684 1.99951 10.4004V15.6006C1.99951 16.7041 1.99951 17.5919 2.05811 18.3091C2.11765 19.0379 2.24271 19.6783 2.54443 20.2705C3.0238 21.2113 3.78917 21.9767 4.72998 22.4561C5.32223 22.7578 5.96263 22.8828 6.69141 22.9424C7.40856 23.001 8.29635 23.001 9.3999 23.001H14.6001C15.7037 23.001 16.5914 23.001 17.3086 22.9424C18.0374 22.8828 18.6778 22.7578 19.27 22.4561C20.2108 21.9767 20.9762 21.2113 21.4556 20.2705C21.7573 19.6783 21.8824 19.0379 21.9419 18.3091C22.0005 17.5919 22.0005 16.7041 22.0005 15.6006Z" fill="#30313E"/>
    <path d="M20 4C20 3.44771 19.5523 3 19 3H16C15.4477 3 15 3.44772 15 4V7C15 7.55229 15.4477 8 16 8H19C19.5523 8 20 7.55228 20 7V4Z" fill="#30313E"/>
    <path d="M18 15C18 14.4477 17.5523 14 17 14H14C13.4477 14 13 14.4477 13 15V18C13 18.5523 13.4477 19 14 19H17C17.5523 19 18 18.5523 18 18V15Z" fill="#30313E"/>
    <path d="M11 8C11 7.44771 10.5523 7 10 7H7C6.44771 7 6 7.44772 6 8V11C6 11.5523 6.44772 12 7 12H10C10.5523 12 11 11.5523 11 11V8Z" fill="#30313E"/>
    <path d="M11 15C11 14.4477 10.5523 14 10 14H7C6.44771 14 6 14.4477 6 15V18C6 18.5523 6.44772 19 7 19H10C10.5523 19 11 18.5523 11 18V15Z" fill="#30313E"/>
</svg>