<svg width="24" height="24" viewBox="0 0 24 24" fill="none" xmlns="http://www.w3.org/2000/svg">
<path d="M10.1331 12.998C12.2315 12.9981 13.9329 14.6993 13.9329 16.7979H12.7327C12.7327 15.3621 11.5688 14.1973 10.1331 14.1973H8.00024C6.56445 14.1973 5.39966 15.3621 5.39966 16.7979H4.20044C4.20044 14.6993 5.90171 12.998 8.00024 12.998H10.1331Z" fill="#A0A0B0"/>
<path d="M10.5326 9.86518C10.5324 9.0555 9.8756 8.39939 9.06586 8.39939C8.25633 8.39962 7.60031 9.05564 7.60007 9.86518C7.60007 10.6749 8.25618 11.3317 9.06586 11.3319V12.5321L8.79341 12.5184C7.44898 12.3818 6.3999 11.2457 6.3999 9.86518C6.40014 8.39291 7.5936 7.19945 9.06586 7.19922C10.5383 7.19922 11.7326 8.39277 11.7328 9.86518L11.7191 10.1386C11.5824 11.483 10.4463 12.5321 9.06586 12.5321V11.3319C9.87574 11.3319 10.5326 10.6751 10.5326 9.86518Z" fill="#A0A0B0"/>
<path d="M16.9321 9.86518C16.9319 9.0555 16.2751 8.39939 15.4653 8.39939C14.6558 8.39962 13.9998 9.05564 13.9995 9.86518C13.9995 10.6749 14.6557 11.3317 15.4653 11.3319V12.5321L15.1929 12.5184C13.8485 12.3818 12.7994 11.2457 12.7994 9.86518C12.7996 8.39291 13.9931 7.19945 15.4653 7.19922C16.9378 7.19922 18.132 8.39277 18.1323 9.86518L18.1186 10.1386C17.9819 11.483 16.8458 12.5321 15.4653 12.5321V11.3319C16.2752 11.3319 16.9321 10.6751 16.9321 9.86518Z" fill="#A0A0B0"/>
<path d="M16.6249 13.1211C18.7234 13.1212 20.4247 14.8224 20.4247 16.9209H19.2245C19.2245 15.4851 18.0606 14.3204 16.6249 14.3203H14.4921C14.2476 14.3203 14.0113 14.3548 13.787 14.418C13.5642 14.0544 13.2946 13.7228 12.9862 13.4316C13.448 13.232 13.957 13.1211 14.4921 13.1211H16.6249Z" fill="#A0A0B0"/>
</svg>
