<svg width="24" height="24" viewBox="0 0 24 24" fill="none" xmlns="http://www.w3.org/2000/svg">
<path fill-rule="evenodd" clip-rule="evenodd" d="M8.17578 7.14922C8.17578 6.69358 8.54515 6.32422 9.00078 6.32422H15.0008C15.4564 6.32422 15.8258 6.69358 15.8258 7.14922C15.8258 7.60485 15.4564 7.97422 15.0008 7.97422H9.00078C8.54515 7.97422 8.17578 7.60485 8.17578 7.14922Z" fill="#30313E"/>
<path fill-rule="evenodd" clip-rule="evenodd" d="M8.17578 10.1492C8.17578 9.69358 8.54515 9.32422 9.00078 9.32422H15.0008C15.4564 9.32422 15.8258 9.69358 15.8258 10.1492C15.8258 10.6049 15.4564 10.9742 15.0008 10.9742H9.00078C8.54515 10.9742 8.17578 10.6049 8.17578 10.1492Z" fill="#30313E"/>
<path fill-rule="evenodd" clip-rule="evenodd" d="M3.67578 4.14922C3.67578 2.86516 4.71672 1.82422 6.00078 1.82422H18.0008C19.2848 1.82422 20.3258 2.86516 20.3258 4.14922V14.6492C20.3258 14.8491 20.2532 15.0421 20.1217 15.1925L14.8717 21.1925C14.715 21.3715 14.4887 21.4742 14.2508 21.4742H6.00078C4.71672 21.4742 3.67578 20.4333 3.67578 19.1492V4.14922ZM6.00078 3.47422C5.62799 3.47422 5.32578 3.77643 5.32578 4.14922V19.1492C5.32578 19.522 5.62799 19.8242 6.00078 19.8242H13.4258V16.1492C13.4258 14.8652 14.4667 13.8242 15.7508 13.8242H18.6758V4.14922C18.6758 3.77643 18.3736 3.47422 18.0008 3.47422H6.00078ZM17.6827 15.4742H15.7508C15.378 15.4742 15.0758 15.7764 15.0758 16.1492V18.4535L17.6827 15.4742Z" fill="#30313E"/>
</svg>
