<svg xmlns="http://www.w3.org/2000/svg" width="24" height="24" viewBox="0 0 24 24" fill="none">
    <path d="M11.1384 1.8418C11.3409 1.65598 11.6566 1.65602 11.8591 1.8418C12.4688 2.40137 13.7442 3.49885 14.8337 3.9502C15.9233 4.40151 17.6017 4.52806 18.4285 4.56348C18.7028 4.57542 18.9254 4.79787 18.9373 5.07227C18.9727 5.89908 19.0992 7.57743 19.5505 8.66699C20.0019 9.75635 21.0984 11.0319 21.658 11.6416C21.8438 11.8441 21.8438 12.1588 21.658 12.3613C21.0984 12.971 20.0019 14.2473 19.5505 15.3369C19.0993 16.4264 18.9727 18.1038 18.9373 18.9307C18.9255 19.2051 18.7029 19.4285 18.4285 19.4404C17.6017 19.4758 15.9233 19.6024 14.8337 20.0537C13.7443 20.5051 12.4688 21.6015 11.8591 22.1611C11.6567 22.347 11.3409 22.347 11.1384 22.1611C10.5287 21.6015 9.25321 20.505 8.16382 20.0537C7.07446 19.6025 5.39705 19.4759 4.57007 19.4404C4.29548 19.4287 4.07207 19.2053 4.0603 18.9307C4.02487 18.1038 3.89827 16.4264 3.44702 15.3369C2.99571 14.2473 1.8992 12.971 1.3396 12.3613C1.15385 12.1588 1.15379 11.844 1.3396 11.6416C1.89916 11.0319 2.99563 9.75639 3.44702 8.66699C3.89833 7.57743 4.02488 5.89908 4.0603 5.07227C4.07214 4.79775 4.29553 4.57524 4.57007 4.56348C5.39704 4.52803 7.07445 4.40142 8.16382 3.9502C9.25338 3.49889 10.5287 2.4014 11.1384 1.8418ZM10.6541 12.291C9.40927 12.2913 8.40015 13.3011 8.40015 14.5459C8.40031 14.8569 8.65256 15.1093 8.96362 15.1094H14.5994C14.9105 15.1094 15.1627 14.857 15.1628 14.5459C15.1628 13.301 14.1538 12.2912 12.9089 12.291H10.6541ZM11.7781 8.40039C10.8445 8.4006 10.0876 9.15817 10.0876 10.0918C10.0879 11.0252 10.8446 11.782 11.7781 11.7822C12.7117 11.7822 13.4693 11.0254 13.4695 10.0918C13.4695 9.15804 12.7118 8.40039 11.7781 8.40039Z" fill="#30313E"/>
</svg>