<svg width="16" height="16" viewBox="0 0 16 16" fill="none" xmlns="http://www.w3.org/2000/svg">
<path fill-rule="evenodd" clip-rule="evenodd" d="M9.99349 6.0013C11.0981 6.0013 11.9935 5.10587 11.9935 4.0013C11.9935 2.89673 11.0981 2.0013 9.99349 2.0013C8.88892 2.0013 7.99349 2.89673 7.99349 4.0013C7.99349 5.10587 8.88892 6.0013 9.99349 6.0013ZM9.99349 7.33464C11.8344 7.33464 13.3268 5.84225 13.3268 4.0013C13.3268 2.16035 11.8344 0.66797 9.99349 0.667969C8.15254 0.667969 6.66016 2.16035 6.66016 4.0013C6.66016 5.84225 8.15254 7.33464 9.99349 7.33464Z" fill="#BEBECE"/>
<path fill-rule="evenodd" clip-rule="evenodd" d="M5.35858 9.41083L8.05232 12.1046C8.31267 12.3649 8.31267 12.787 8.05232 13.0474L5.35858 15.7411L4.41577 14.7983L5.97144 13.2426L0.0384462 13.2426L0.0384463 11.9093L5.97144 11.9093L4.41577 10.3536L5.35858 9.41083Z" fill="#BEBECE"/>
<path fill-rule="evenodd" clip-rule="evenodd" d="M7.00507 9.77645C7.49425 9.49458 8.06171 9.33333 8.66683 9.33333L11.3335 9.33333C13.1744 9.33333 14.6668 10.8257 14.6668 12.6667H16.0002C16.0002 10.0893 13.9108 8 11.3335 8H8.66683C7.69207 8 6.7871 8.29886 6.03857 8.80995L7.00507 9.77645Z" fill="#BEBECE"/>
</svg>
