<svg width="24" height="24" viewBox="0 0 24 24" fill="none" xmlns="http://www.w3.org/2000/svg">
<path fill-rule="evenodd" clip-rule="evenodd" d="M12 12C13.6569 12 15 10.6569 15 9C15 7.34315 13.6569 6 12 6C10.3431 6 9 7.34315 9 9C9 10.6569 10.3431 12 12 12ZM12 14C14.7614 14 17 11.7614 17 9C17 6.23858 14.7614 4 12 4C9.23858 4 7 6.23858 7 9C7 11.7614 9.23858 14 12 14Z" fill="black"/>
<path fill-rule="evenodd" clip-rule="evenodd" d="M3 22C3 18.134 6.13401 15 10 15H14C17.866 15 21 18.134 21 22H19C19 19.2386 16.7614 17 14 17H10C7.23858 17 5 19.2386 5 22H3Z" fill="black"/>
</svg>
