<svg xmlns="http://www.w3.org/2000/svg" width="24" height="24" viewBox="0 0 24 24" fill="none">
  <path d="M13.7998 3C16.3199 3 17.5804 2.99982 18.543 3.49023C19.3897 3.92166 20.0783 4.6103 20.5098 5.45703C21.0002 6.41962 21 7.68002 21 10.2002V13.7998C21 16.32 21.0002 17.5804 20.5098 18.543C20.0783 19.3897 19.3897 20.0783 18.543 20.5098C17.5804 21.0002 16.3199 21 13.7998 21H10.2002C7.68001 21 6.41963 21.0002 5.45703 20.5098C4.6103 20.0783 3.92166 19.3897 3.49023 18.543C2.99982 17.5804 3 16.32 3 13.7998V10.2002C3 7.68005 2.99981 6.41962 3.49023 5.45703C3.92166 4.6103 4.6103 3.92166 5.45703 3.49023C6.41963 2.99979 7.68001 3 10.2002 3H13.7998ZM12 12H21C21 10.8181 20.7667 9.64759 20.3145 8.55566C19.8622 7.46386 19.1999 6.47139 18.3643 5.63574C17.5286 4.8001 16.5361 4.13784 15.4443 3.68555C14.3524 3.23325 13.1819 3 12 3V12Z" fill="#30313E"/>
</svg>