<svg width="16" height="16" viewBox="0 0 16 16" fill="none" xmlns="http://www.w3.org/2000/svg">
<g clip-path="url(#clip0_2544_7177)">
<circle cx="8" cy="8" r="7.5" stroke="black"/>
<path d="M7.24805 9.90749V9.84002C7.25278 9.39968 7.29658 9.0493 7.37944 8.78888C7.46467 8.52847 7.5854 8.31777 7.74165 8.15678C7.8979 7.9958 8.08612 7.84902 8.30629 7.71644C8.44833 7.62648 8.57617 7.52586 8.68981 7.4146C8.80344 7.30333 8.89341 7.17549 8.95969 7.03107C9.02598 6.88666 9.05913 6.72686 9.05913 6.55167C9.05913 6.34097 9.00941 6.15868 8.90998 6.00479C8.81055 5.85091 8.67797 5.73254 8.51225 5.64968C8.3489 5.56445 8.16661 5.52184 7.96538 5.52184C7.78308 5.52184 7.60908 5.55972 7.44336 5.63548C7.27764 5.71123 7.14033 5.8296 7.03143 5.99059C6.92253 6.14921 6.85979 6.35399 6.84322 6.60494H5.76367C5.78024 6.1788 5.88796 5.81895 6.08683 5.52539C6.28569 5.22946 6.54847 5.00574 6.87518 4.85423C7.20425 4.70271 7.56765 4.62695 7.96538 4.62695C8.40098 4.62695 8.78214 4.70863 9.10884 4.87198C9.43555 5.03297 9.68886 5.25906 9.86879 5.55025C10.0511 5.83907 10.1422 6.17643 10.1422 6.56232C10.1422 6.82747 10.1008 7.06658 10.0179 7.27965C9.93507 7.49035 9.8167 7.67856 9.66282 7.84428C9.5113 8.01 9.32901 8.15678 9.11594 8.28462C8.91471 8.4101 8.75136 8.54031 8.62589 8.67525C8.50278 8.81019 8.41282 8.96999 8.356 9.15465C8.29918 9.33931 8.26841 9.56777 8.26367 9.84002V9.90749H7.24805ZM7.78427 12.0666C7.59014 12.0666 7.42324 11.9979 7.28356 11.8606C7.14388 11.7209 7.07404 11.5529 7.07404 11.3564C7.07404 11.1622 7.14388 10.9965 7.28356 10.8592C7.42324 10.7195 7.59014 10.6497 7.78427 10.6497C7.97603 10.6497 8.14175 10.7195 8.28143 10.8592C8.42347 10.9965 8.4945 11.1622 8.4945 11.3564C8.4945 11.4866 8.46135 11.6061 8.39506 11.715C8.33114 11.8216 8.24592 11.9068 8.13938 11.9707C8.03285 12.0346 7.91448 12.0666 7.78427 12.0666Z" fill="black"/>
</g>
<defs>
<clipPath id="clip0_2544_7177">
<rect width="16" height="16" fill="white"/>
</clipPath>
</defs>
</svg>
