<svg width="24" height="24" viewBox="0 0 24 24" fill="none" xmlns="http://www.w3.org/2000/svg">
<path fill-rule="evenodd" clip-rule="evenodd" d="M11.4349 3.35984C11.7885 3.78412 11.7311 4.41468 11.3069 4.76825L8.76205 6.88891H16C18.7614 6.88891 21 9.12749 21 11.8889V14C21 16.7614 18.7614 19 16 19H12.2222C11.6699 19 11.2222 18.5523 11.2222 18C11.2222 17.4477 11.6699 17 12.2222 17H16C17.6569 17 19 15.6569 19 14V11.8889C19 10.2321 17.6569 8.88891 16 8.88891H8.76205L11.3069 11.0096C11.7311 11.3631 11.7885 11.9937 11.4349 12.418C11.0813 12.8423 10.4508 12.8996 10.0265 12.546L5.35982 8.65714C5.13182 8.46714 5 8.18569 5 7.88891C5 7.59213 5.13182 7.31069 5.35982 7.12069L10.0265 3.2318C10.4508 2.87824 11.0813 2.93556 11.4349 3.35984Z" fill="#141414"/>
</svg>
