<svg width="142" height="32" viewBox="0 0 142 32" fill="none" xmlns="http://www.w3.org/2000/svg">
<path d="M38.0745 20.7442L30.1863 25.5839C30.0275 25.6813 29.8275 25.6813 29.6687 25.5839L21.7805 20.7442C21.6338 20.6542 21.5444 20.4945 21.5444 20.3224V9.40362C21.5444 9.16776 21.7356 8.97656 21.9715 8.97656C22.1338 8.97656 22.2821 9.0686 22.3542 9.21406L26.0726 16.7206C26.1764 16.9302 26.1193 17.1839 25.9357 17.3287L22.6926 19.887C22.5083 20.0324 22.6111 20.3286 22.8458 20.3286H27.4023C27.5966 20.3286 27.7729 20.4423 27.8531 20.6193L29.7021 24.7035C29.7899 24.8973 30.0651 24.8973 30.1529 24.7035L32.0019 20.6193C32.0821 20.4423 32.2584 20.3286 32.4527 20.3286H37.0092C37.2439 20.3286 37.3467 20.0324 37.1624 19.887L33.9193 17.3287C33.7357 17.1839 33.6786 16.9302 33.7824 16.7206L37.5008 9.21406C37.5729 9.0686 37.7212 8.97656 37.8835 8.97656C38.1194 8.97656 38.3106 9.16776 38.3106 9.40362V20.3224C38.3106 20.4945 38.2212 20.6542 38.0745 20.7442Z" fill="#1A1A1A"/>
<path d="M101.509 13.4194V11.5078H109.74V13.4194H106.787V21.2467H104.467V13.4194H101.509Z" fill="#1A1A1A"/>
<path d="M94.7432 21.2467H92.2134L95.4993 11.5078H98.633L101.919 21.2467H99.3891L97.1018 13.9615H97.0257L94.7432 21.2467ZM94.4056 17.4139H99.6935V19.2019H94.4056V17.4139Z" fill="#1A1A1A"/>
<path d="M91.8602 15.0327H89.4826C89.4509 14.7886 89.3859 14.5682 89.2876 14.3717C89.1894 14.1751 89.0594 14.0071 88.8977 13.8676C88.736 13.7281 88.5442 13.6219 88.3223 13.549C88.1036 13.4729 87.861 13.4349 87.5947 13.4349C87.1224 13.4349 86.715 13.5506 86.3726 13.782C86.0334 14.0135 85.7719 14.3479 85.588 14.7854C85.4073 15.2229 85.317 15.7523 85.317 16.3737C85.317 17.0204 85.4089 17.5625 85.5928 18C85.7798 18.4343 86.0413 18.7624 86.3774 18.9843C86.7166 19.2031 87.1176 19.3125 87.5805 19.3125C87.8404 19.3125 88.0766 19.2792 88.289 19.2126C88.5046 19.146 88.6932 19.0493 88.8549 18.9225C89.0198 18.7925 89.1545 18.6356 89.2591 18.4517C89.3669 18.2647 89.4414 18.0539 89.4826 17.8193L91.8602 17.8336C91.819 18.2647 91.6938 18.6895 91.4846 19.108C91.2785 19.5264 90.9948 19.9084 90.6334 20.254C90.272 20.5964 89.8313 20.869 89.3114 21.0719C88.7947 21.2748 88.2018 21.3763 87.5329 21.3763C86.6516 21.3763 85.8622 21.1829 85.1648 20.7961C84.4705 20.4062 83.9221 19.8387 83.5195 19.0937C83.1168 18.3487 82.9155 17.442 82.9155 16.3737C82.9155 15.3021 83.12 14.3939 83.529 13.6489C83.9379 12.9039 84.4911 12.338 85.1886 11.9512C85.886 11.5645 86.6675 11.3711 87.5329 11.3711C88.1226 11.3711 88.6679 11.4535 89.1687 11.6184C89.6696 11.78 90.1103 12.0178 90.4907 12.3317C90.8711 12.6423 91.1802 13.0244 91.418 13.4777C91.6558 13.931 91.8032 14.4494 91.8602 15.0327Z" fill="#1A1A1A"/>
<path d="M77.2062 21.1568H73.6064V11.418H77.2015C78.1937 11.418 79.0481 11.6129 79.7646 12.0029C80.4842 12.3896 81.039 12.9476 81.4289 13.6767C81.8189 14.4027 82.0138 15.2713 82.0138 16.2826C82.0138 17.2971 81.8189 18.1689 81.4289 18.8981C81.0422 19.6272 80.489 20.1867 79.7693 20.5767C79.0497 20.9634 78.1953 21.1568 77.2062 21.1568ZM75.9603 19.1501H77.1159C77.6611 19.1501 78.1224 19.0582 78.4997 18.8743C78.8801 18.6872 79.167 18.3845 79.3604 17.966C79.5569 17.5444 79.6552 16.9833 79.6552 16.2826C79.6552 15.582 79.5569 15.0241 79.3604 14.6088C79.1638 14.1903 78.8737 13.8891 78.4901 13.7053C78.1097 13.5182 77.6405 13.4247 77.0826 13.4247H75.9603V19.1501Z" fill="#1A1A1A"/>
<path d="M66.5029 21.1568V11.418H68.8568V19.2452H72.9083V21.1568H66.5029Z" fill="#1A1A1A"/>
<path d="M64.7191 11.418V21.1568H62.3652V11.418H64.7191Z" fill="#1A1A1A"/>
<path d="M50.7253 21.1568L47.8911 11.418H50.4923L51.9617 17.7996H52.0425L53.7211 11.418H55.842L57.5206 17.8139H57.6014L59.0756 11.418H61.672L58.8426 21.1568H56.5743L54.8196 15.2507H54.7435L52.9888 21.1568H50.7253Z" fill="#1A1A1A"/>
</svg>
