<svg width="20" height="20" viewBox="0 0 20 20" fill="none" xmlns="http://www.w3.org/2000/svg">
<path d="M4.29841 8.11527C4.44427 7.28803 4.78209 6.56233 5.31185 5.93818C5.85475 5.31634 6.51121 4.85668 7.28123 4.55921C8.04893 4.27486 8.8464 4.20562 9.67364 4.35149C10.514 4.49967 11.2397 4.83748 11.8507 5.36493C12.4726 5.90783 12.9257 6.56313 13.21 7.33084C13.5075 8.10086 13.5833 8.89948 13.4374 9.72672C13.3795 10.055 13.2823 10.3763 13.1456 10.6907C13.0089 11.0051 12.8394 11.3137 12.6371 11.6165L15.8803 14.3004L15.0753 15.2957L11.7637 12.5388C11.2601 12.9374 10.6886 13.2225 10.0491 13.3941C9.4073 13.5788 8.74499 13.6109 8.06219 13.4905C7.23495 13.3446 6.51041 13.0003 5.88857 12.4574C5.26441 11.9276 4.8036 11.2777 4.50612 10.5077C4.21947 9.75311 4.15023 8.95564 4.29841 8.11527ZM5.65744 8.3549C5.55325 8.94579 5.60276 9.50962 5.80597 10.0464C6.00918 10.5832 6.32824 11.0388 6.76314 11.4134C7.19804 11.7879 7.71094 12.0273 8.30182 12.1315C8.89271 12.2357 9.45769 12.1796 9.99678 11.9632C10.5336 11.76 10.9892 11.441 11.3638 11.0061C11.7383 10.5712 11.9765 10.0648 12.0784 9.48709C12.1803 8.90933 12.1307 8.3455 11.9299 7.7956C11.7266 7.25882 11.4076 6.80317 10.9727 6.42862C10.5378 6.05408 10.0249 5.81471 9.43401 5.71052C8.84312 5.60633 8.27929 5.65585 7.74252 5.85906C7.20574 6.06227 6.75008 6.38132 6.37554 6.81622C6.001 7.25113 5.76163 7.76402 5.65744 8.3549Z" fill="black"/>
</svg>
