<svg width="13" height="14" viewBox="0 0 13 14" fill="none" xmlns="http://www.w3.org/2000/svg">
<circle cx="6.5" cy="7" r="6.05682" stroke="#30313E" stroke-width="0.886364"/>
<path d="M9.01156 7C9.01156 8.74655 8.68888 10.3063 8.18592 11.4128C7.66478 12.5593 7.03542 13.0568 6.5002 13.0568C5.96498 13.0568 5.33562 12.5593 4.81448 11.4128C4.31152 10.3063 3.98884 8.74655 3.98884 7C3.98884 5.25345 4.31152 3.6937 4.81448 2.5872C5.33562 1.44069 5.96498 0.943182 6.5002 0.943182C7.03542 0.943182 7.66478 1.44069 8.18592 2.5872C8.68888 3.6937 9.01156 5.25345 9.01156 7Z" stroke="#30313E" stroke-width="0.886364"/>
<path d="M0.886475 4.92969H12.4092" stroke="#30313E" stroke-width="0.886364"/>
<path d="M0.59082 9.36719H12.1135" stroke="#30313E" stroke-width="0.886364"/>
</svg>
