<svg xmlns="http://www.w3.org/2000/svg" width="24" height="24" viewBox="0 0 16 16" fill="none">
    <path d="M2 6.83203V10.5654C2 12.0588 2 12.8056 2.29065 13.376C2.54631 13.8778 2.95426 14.2857 3.45603 14.5414C4.02646 14.832 4.77319 14.832 6.26667 14.832H9.73333C11.2268 14.832 11.9735 14.832 12.544 14.5414C13.0457 14.2857 13.4537 13.8778 13.7094 13.376C14 12.8056 14 12.0588 14 10.5654V8.13436L14 6.83203" stroke="#30313E" stroke-width="1.33333"/>
    <path d="M2 3.83203V6.56536C2 8.05884 2 8.80557 2.29065 9.37601C2.54631 9.87777 2.95426 10.2857 3.45603 10.5414C4.02646 10.832 4.77319 10.832 6.26667 10.832H9.73333C11.2268 10.832 11.9735 10.832 12.544 10.5414C13.0457 10.2857 13.4537 9.87777 13.7094 9.37601C14 8.80557 14 8.05884 14 6.56536V4.97157L14 3.83203" stroke="#30313E" stroke-width="1.33333"/>
    <path d="M2 3.83276C2 4.14164 2 4.29608 2.01278 4.42617C2.13725 5.6927 3.13933 6.69478 4.40586 6.81925C4.53595 6.83203 4.69039 6.83203 4.99927 6.83203H11C11.3096 6.83203 11.4643 6.83203 11.5947 6.81919C12.8608 6.69449 13.8625 5.69282 13.9872 4.42674C14 4.29637 14 4.14159 14 3.83203" stroke="#30313E" stroke-width="1.33333"/>
    <path d="M2 4.83203C2 3.58952 2 2.96827 2.20299 2.47821C2.47364 1.8248 2.99277 1.30567 3.64618 1.03502C4.13623 0.832031 4.75749 0.832031 6 0.832031H10.6512C11.2851 0.832031 11.6021 0.832031 11.8655 0.885674C12.9137 1.09915 13.7329 1.91833 13.9464 2.96652C14 3.22991 14 3.54689 14 4.18087L14 4.83203" stroke="#30313E" stroke-width="1.33333"/>
</svg>