<svg xmlns="http://www.w3.org/2000/svg" width="24" height="24" viewBox="0 0 24 24" fill="none">
    <path d="M21.8994 15.8501V10.25H20.1006V15.8501C20.1006 16.9847 20.0986 17.7816 20.0479 18.4033C19.9979 19.0146 19.9047 19.3774 19.7622 19.6572C19.465 20.2405 18.9905 20.715 18.4072 21.0122C18.1274 21.1547 17.7646 21.2479 17.1533 21.2979C16.5316 21.3486 15.7347 21.3506 14.6001 21.3506H9.3999C8.26532 21.3506 7.46844 21.3486 6.84668 21.2979C6.23544 21.2479 5.87255 21.1547 5.59277 21.0122C5.00947 20.715 4.535 20.2405 4.23779 19.6572C4.09527 19.3774 4.00209 19.0146 3.95215 18.4033C3.90138 17.7816 3.89941 16.9847 3.89941 15.8501V10.25H2.10058V15.8501C2.10058 16.955 2.09958 17.8378 2.15771 18.5498C2.21675 19.2724 2.3404 19.8988 2.63379 20.4746C3.10356 21.3966 3.85339 22.1464 4.77539 22.6162C5.35121 22.9096 5.97756 23.0332 6.70019 23.0923C7.41222 23.1504 8.29503 23.1494 9.3999 23.1494H14.6001C15.705 23.1494 16.5878 23.1504 17.2998 23.0923C18.0224 23.0332 18.6488 22.9096 19.2246 22.6162C20.1466 22.1464 20.8964 21.3966 21.3662 20.4746C21.6596 19.8988 21.7832 19.2724 21.8423 18.5498C21.9004 17.8378 21.8994 16.955 21.8994 15.8501Z" fill="#30313E"/>
    <path d="M21.8994 9.8501V5.75H20.1006V9.8501C20.1006 10.9847 20.0986 11.7816 20.0479 12.4033C19.9979 13.0146 19.9047 13.3774 19.7622 13.6572C19.465 14.2405 18.9905 14.715 18.4072 15.0122C18.1274 15.1547 17.7646 15.2479 17.1533 15.2979C16.5316 15.3486 15.7347 15.3506 14.6001 15.3506H9.3999C8.26532 15.3506 7.46844 15.3486 6.84668 15.2979C6.23544 15.2479 5.87255 15.1547 5.59277 15.0122C5.00947 14.715 4.535 14.2405 4.23779 13.6572C4.09527 13.3774 4.00209 13.0146 3.95215 12.4033C3.90138 11.7816 3.89941 10.9847 3.89941 9.8501V5.75H2.10058V9.8501C2.10058 10.955 2.09958 11.8378 2.15771 12.5498C2.21675 13.2724 2.3404 13.8988 2.63379 14.4746C3.10356 15.3966 3.85339 16.1464 4.77539 16.6162C5.35121 16.9096 5.97756 17.0332 6.70019 17.0923C7.41222 17.1504 8.29503 17.1494 9.3999 17.1494H14.6001C15.705 17.1494 16.5878 17.1504 17.2998 17.0923C18.0224 17.0332 18.6488 16.9096 19.2246 16.6162C20.1466 16.1464 20.8964 15.3966 21.3662 14.4746C21.6596 13.8988 21.7832 13.2724 21.8423 12.5498C21.9004 11.8378 21.8994 10.955 21.8994 9.8501Z" fill="#30313E"/>
    <path d="M20.1006 5.75C20.1006 6.23575 20.0983 6.41373 20.0845 6.5542C19.9393 8.02568 18.7757 9.18935 17.3042 9.33447C17.1637 9.34831 16.9857 9.35059 16.5 9.35059H7.49853C7.01456 9.35059 6.83732 9.34821 6.69726 9.33447C5.22492 9.18978 4.06021 8.02508 3.91552 6.55273C3.90178 6.41267 3.8994 6.23543 3.8994 5.75146H2.10058C2.10058 6.19282 2.09951 6.47863 2.12401 6.72852C2.35272 9.05576 4.19423 10.8973 6.52147 11.126C6.77136 11.1505 7.05717 11.1494 7.49853 11.1494H16.5C16.9428 11.1494 17.2294 11.1506 17.48 11.126C19.8064 10.8968 21.6468 9.05639 21.876 6.72998C21.9006 6.47939 21.8994 6.19277 21.8994 5.75H20.1006Z" fill="#30313E"/>
    <path d="M2.10055 7.25C2.10055 6.33043 2.09946 5.59557 2.1401 5C2.18127 4.39666 2.26759 3.87075 2.47262 3.37549C2.96994 2.17485 3.92481 1.21998 5.12545 0.722656C5.62071 0.51763 6.14663 0.431309 6.74996 0.390137C7.34553 0.349502 8.08039 0.350586 8.99996 0.350586H15.977C16.8836 0.350585 17.4717 0.345611 17.978 0.44873C19.9039 0.841041 21.4089 2.34607 21.8012 4.27197C21.9044 4.77829 21.8994 5.36632 21.8994 6.27295V7.25H20.1005V6.27295C20.1005 5.27806 20.0953 4.91461 20.0376 4.63086C19.7893 3.41272 18.8372 2.46069 17.6191 2.2124C17.3354 2.15461 16.9719 2.14942 15.977 2.14941H8.99996C8.05601 2.14941 7.39304 2.15058 6.87301 2.18604C6.36136 2.22094 6.05346 2.28612 5.81393 2.38525C5.05434 2.69989 4.44985 3.30438 4.13522 4.06396C4.03608 4.30349 3.97091 4.6114 3.936 5.12305C3.90054 5.64307 3.89938 6.30604 3.89938 7.25H2.10055Z" fill="#30313E"/>
</svg>