<svg width="24" height="24" viewBox="0 0 24 24" fill="none" xmlns="http://www.w3.org/2000/svg">
<path d="M17 3C19.2091 3 21 4.79086 21 7V7.19531H19.0049V7C19.0049 5.89267 18.1073 4.99512 17 4.99512H7C5.89267 4.99512 4.99512 5.89267 4.99512 7V17C4.99512 18.1073 5.89267 19.0049 7 19.0049H17C18.1073 19.0049 19.0049 18.1073 19.0049 17V16.3379H21V17C21 19.14 19.3194 20.8879 17.2061 20.9951L17 21H7L6.79395 20.9951C4.7488 20.8913 3.10865 19.2512 3.00488 17.2061L3 17V7C3 4.79086 4.79086 3 7 3H17Z" fill="#30313E"/>
<path d="M21.1006 8.81815C21.5372 8.4823 22.1641 8.56413 22.5 9.00077C22.8358 9.43743 22.754 10.0643 22.3174 10.4002L17.1086 14.7911C16.7784 15.0451 16.3251 15.0665 15.9718 14.8458L12.6437 12.7657L8.20525 17.2052C7.8157 17.5947 7.18464 17.5947 6.79509 17.2052C6.40554 16.8157 6.40554 16.1846 6.79509 15.795L11.7951 10.795L11.926 10.6847C12.2493 10.4568 12.6838 10.4391 13.0285 10.6544L16.4396 12.7863L21.1006 8.81815Z" fill="#30313E"/>
</svg>
