<svg width="24" height="24" viewBox="0 0 24 24" fill="none" xmlns="http://www.w3.org/2000/svg">
<path d="M19.5 5.00391C20.0509 5.00391 20.4971 5.45007 20.4971 6.00098C20.4971 6.55188 20.0509 6.99805 19.5 6.99805H4.5C3.9491 6.99805 3.50293 6.55188 3.50293 6.00098C3.50293 5.45007 3.9491 5.00391 4.5 5.00391H19.5Z" fill="#30313E"/>
<path d="M19.5 11.0039C20.0509 11.0039 20.4971 11.4501 20.4971 12.001C20.4971 12.5519 20.0509 12.998 19.5 12.998H4.5C3.9491 12.998 3.50293 12.5519 3.50293 12.001C3.50293 11.4501 3.9491 11.0039 4.5 11.0039H19.5Z" fill="#30313E"/>
<path d="M13.5 17.0039C14.0509 17.0039 14.4971 17.4501 14.4971 18.001C14.4971 18.5519 14.0509 18.998 13.5 18.998H4.5C3.9491 18.998 3.50293 18.5519 3.50293 18.001C3.50293 17.4501 3.9491 17.0039 4.5 17.0039H13.5Z" fill="#30313E"/>
</svg>
