<svg width="24" height="24" viewBox="0 0 24 24" fill="none" xmlns="http://www.w3.org/2000/svg">
<path d="M22.9828 5.44034L12.6271 9.65933C12.2112 9.82879 12.2502 10.4301 12.6845 10.5444L14.978 11.148C15.4836 11.281 16.0218 11.1964 16.4621 10.9146L20.7413 8.17593C20.8789 8.08782 21.0305 8.26641 20.9211 8.38789L18.1467 11.4706C17.7599 11.9003 17.852 12.5746 18.3397 12.885L21.7475 15.0535C22.1221 15.2919 22.6176 15.0612 22.6763 14.6211L23.8146 6.08354C23.8763 5.62088 23.4151 5.26423 22.9828 5.44034Z" fill="#A0A0B0"/>
<path d="M1.22143 10.9784C1.22405 11.0966 1.13059 11.1944 1.01239 11.1972C0.894071 11.1999 0.795485 11.1063 0.792773 10.988C0.783179 10.5687 0.887719 10.1313 1.1153 9.71707L1.30283 9.81999L1.49062 9.92341C1.29808 10.2739 1.21361 10.6373 1.22143 10.9784ZM5.76906 9.40507C5.71567 9.51056 5.58699 9.55285 5.48142 9.49958C5.37577 9.44626 5.3336 9.31759 5.38691 9.21194C5.56188 8.86518 5.74931 8.50953 5.95013 8.14591C6.19822 7.69673 6.46952 7.33853 6.74562 7.06603C6.82986 6.98304 6.96546 6.98374 7.04855 7.06791C7.13168 7.15214 7.1304 7.28797 7.04617 7.37111C6.80346 7.6107 6.55669 7.93486 6.32549 8.35349C6.12713 8.71266 5.94153 9.06328 5.76906 9.40507ZM8.5093 9.10376C8.44924 9.20563 8.318 9.23964 8.21608 9.17972C8.11414 9.11961 8.07975 8.98795 8.13986 8.88601C8.49096 8.2905 8.62061 7.81231 8.61613 7.47117C8.61167 7.13377 8.48051 6.95196 8.3236 6.8757C8.21721 6.82403 8.17259 6.69588 8.22415 6.58947C8.27585 6.48301 8.40419 6.4388 8.51065 6.4905C8.85301 6.65682 9.03847 7.01546 9.04441 7.46559C9.05027 7.91204 8.88392 8.46836 8.5093 9.10376ZM4.29349 13.064C4.26118 13.1778 4.14255 13.2437 4.02875 13.2115C3.92193 13.1812 3.85864 13.0754 3.87773 12.9683C2.89864 13.2239 2.08386 13.0352 1.53177 12.5695C1.44138 12.4933 1.4296 12.3582 1.50573 12.2677C1.58204 12.1773 1.71733 12.1659 1.80779 12.2422C2.25702 12.6211 2.97149 12.8001 3.90979 12.5147C3.94456 12.5041 3.97993 12.5036 4.01327 12.5101C4.19542 11.9337 4.4229 11.3221 4.7005 10.6769C4.74727 10.5682 4.87362 10.5178 4.98233 10.5646C5.0908 10.6114 5.14098 10.7373 5.09436 10.8459C4.75172 11.6423 4.48693 12.3822 4.29349 13.064ZM5.53645 12.182C5.43843 12.2481 5.30525 12.2224 5.239 12.1245C5.17278 12.0264 5.19889 11.893 5.29698 11.8268C5.59524 11.6254 5.90619 11.3824 6.22856 11.0939C6.57208 10.7864 6.87238 10.4903 7.13305 10.2075C7.21328 10.1207 7.34907 10.1153 7.43604 10.1954C7.52295 10.2757 7.52831 10.4114 7.44813 10.4984C7.17738 10.7922 6.86695 11.0976 6.51409 11.4134C6.17864 11.7137 5.8524 11.9687 5.53645 12.182ZM3.8764 17.1501C3.76198 17.1804 3.64461 17.1118 3.61438 16.9974C3.43332 16.3119 3.40336 15.4875 3.53758 14.5342C3.55408 14.417 3.66257 14.3355 3.77975 14.352C3.89694 14.3685 3.97845 14.4769 3.96195 14.5941C3.83338 15.5075 3.86587 16.2722 4.02865 16.8884C4.05872 17.0027 3.9907 17.1199 3.8764 17.1501ZM6.99148 19.1041C6.99201 19.2223 6.89679 19.3186 6.77857 19.3193C5.82389 19.3249 5.01612 19.0466 4.43317 18.4731C4.34883 18.3901 4.34806 18.2541 4.43105 18.1698C4.51401 18.0856 4.64928 18.0846 4.7336 18.1674C5.21785 18.6439 5.90676 18.8958 6.77598 18.8907C6.89432 18.89 6.99079 18.9858 6.99148 19.1041ZM15.191 14.8101C15.1045 14.8907 14.9692 14.8861 14.8885 14.7997C14.8077 14.7132 14.8122 14.5776 14.8986 14.4968C15.1813 14.2329 15.4662 13.9567 15.7525 13.6682L16.0565 13.9702C15.7664 14.2624 15.4776 14.5424 15.191 14.8101ZM12.051 17.3208C11.9524 17.3861 11.8194 17.3592 11.754 17.2606C11.6888 17.162 11.7158 17.0289 11.8143 16.9635C12.4265 16.5578 13.0595 16.0865 13.7072 15.5483C13.7983 15.4726 13.9333 15.4851 14.009 15.5762C14.0846 15.6671 14.0724 15.802 13.9816 15.8776C13.3229 16.425 12.6773 16.9058 12.051 17.3208ZM10.6619 18.1519C9.86728 18.5744 9.11213 18.8819 8.40977 19.0749C8.29565 19.1063 8.17745 19.0391 8.14609 18.925C8.11489 18.8109 8.18226 18.6931 8.29631 18.6618C8.96299 18.4786 9.68866 18.1839 10.4607 17.7735C10.5651 17.7179 10.6953 17.7577 10.7509 17.8621C10.8064 17.9666 10.7664 18.0963 10.6619 18.1519Z" fill="#A0A0B0"/>
</svg>
