<svg width="24" height="24" viewBox="0 0 24 24" fill="none" xmlns="http://www.w3.org/2000/svg">
<path d="M6.7118 11.38C6.7118 11.38 11.8467 9.27265 13.6276 8.5306C14.3103 8.23379 16.6255 7.28397 16.6255 7.28397C16.6255 7.28397 17.694 6.86843 17.605 7.87761C17.5753 8.29315 17.3378 9.74755 17.1004 11.3207C16.7442 13.5468 16.3584 15.9807 16.3584 15.9807C16.3584 15.9807 16.299 16.6634 15.7944 16.7821C15.2898 16.9008 14.4587 16.3666 14.3103 16.2478C14.1916 16.1588 12.0842 14.8231 11.3125 14.1701C11.1047 13.992 10.8672 13.6359 11.3421 13.2203C12.4107 12.2408 13.687 11.0239 14.4587 10.2521C14.8149 9.89596 15.1711 9.06487 13.687 10.0741C11.5796 11.5285 9.50188 12.8938 9.50188 12.8938C9.50188 12.8938 9.02697 13.1906 8.13652 12.9235C7.24607 12.6564 6.20721 12.3002 6.20721 12.3002C6.20721 12.3002 5.49485 11.855 6.7118 11.38Z" fill="#A0A0B0"/>
</svg>
