<svg width="24" height="24" viewBox="0 0 24 24" fill="none" xmlns="http://www.w3.org/2000/svg">
<path d="M15.7991 20.9458C14.8919 21.8181 14.2532 22.3416 13.5813 22.6098L13.3899 22.6792C12.5991 22.9361 11.7546 22.9676 10.9504 22.7749L10.6087 22.6792C9.86363 22.4371 9.19078 21.9011 8.19752 20.9458C8.21727 20.9458 8.23713 20.9467 8.25709 20.9467H15.7424C15.7613 20.9467 15.7804 20.9458 15.7991 20.9458ZM3.05201 15.8003C2.09541 14.8059 1.55892 14.1327 1.31666 13.3872C1.02304 12.4834 1.02301 11.5097 1.31666 10.6059C1.55894 9.86036 2.09538 9.18732 3.05201 8.19284V15.8003ZM20.9465 8.19382C21.9027 9.18789 22.4397 9.86053 22.6819 10.6059L22.7776 10.9477C22.9704 11.7519 22.9388 12.5964 22.6819 13.3872L22.6116 13.5786C22.3432 14.2509 21.8199 14.8903 20.9465 15.7983C20.9465 15.7795 20.9475 15.7606 20.9475 15.7417V8.25632C20.9475 8.23541 20.9465 8.2145 20.9465 8.19382ZM10.6087 1.31394C11.5123 1.02039 12.4862 1.02031 13.3899 1.31394C14.1358 1.55633 14.8088 2.09377 15.804 3.05124H8.19264C9.18833 2.09321 9.86252 1.55637 10.6087 1.31394Z" fill="#8B8DA1"/>
<path d="M12.2988 17.5049V19.5H11.6992V17.5049H12.2988ZM17.5039 12.2998V11.7002C17.5039 10.4074 17.5023 9.55748 17.4492 8.90723C17.398 8.28021 17.3095 8.01549 17.2314 7.8623C16.9913 7.3911 16.6079 7.00772 16.1367 6.76758C15.9835 6.68952 15.7188 6.60103 15.0918 6.5498C14.4415 6.4967 13.5916 6.49512 12.2988 6.49512H11.6992C10.4064 6.49512 9.55651 6.4967 8.90625 6.5498C8.27924 6.60103 8.01452 6.68952 7.86133 6.76758C7.39012 7.00772 7.00674 7.3911 6.7666 7.8623C6.68855 8.01549 6.60006 8.28021 6.54883 8.90723C6.49572 9.55748 6.49414 10.4074 6.49414 11.7002V12.2998C6.49414 13.5926 6.49572 14.4425 6.54883 15.0928C6.60006 15.7198 6.68855 15.9845 6.7666 16.1377C7.00674 16.6089 7.39012 16.9923 7.86133 17.2324C8.01452 17.3105 8.27924 17.399 8.90625 17.4502C9.55651 17.5033 10.4064 17.5049 11.6992 17.5049V19.5L10.0303 19.4922C8.68946 19.4711 7.83056 19.392 7.14062 19.0957L6.95605 19.0098C6.21508 18.6322 5.59546 18.0576 5.16309 17.3525L4.98926 17.043C4.49883 16.0804 4.49902 14.82 4.49902 12.2998V11.7002C4.49902 9.18003 4.49883 7.91962 4.98926 6.95703C5.42069 6.1103 6.10933 5.42166 6.95605 4.99023C7.67802 4.6224 8.56746 4.5308 10.0303 4.50781L11.6992 4.5H12.2988C14.819 4.5 16.0794 4.49981 17.042 4.99023C17.8887 5.42166 18.5774 6.1103 19.0088 6.95703C19.4992 7.91962 19.499 9.18003 19.499 11.7002V12.2998C19.499 14.82 19.4992 16.0804 19.0088 17.043L18.835 17.3525C18.4026 18.0576 17.783 18.6322 17.042 19.0098L16.8574 19.0957C15.9166 19.4997 14.6614 19.5 12.2988 19.5V17.5049C13.5916 17.5049 14.4415 17.5033 15.0918 17.4502C15.7188 17.399 15.9835 17.3105 16.1367 17.2324C16.6079 16.9923 16.9913 16.6089 17.2314 16.1377C17.3095 15.9845 17.398 15.7198 17.4492 15.0928C17.5023 14.4425 17.5039 13.5926 17.5039 12.2998Z" fill="#8B8DA1"/>
</svg>
