<svg xmlns="http://www.w3.org/2000/svg" width="24" height="24" viewBox="0 0 24 24" fill="none">
    <path d="M13.7998 3C16.32 3 17.5804 2.99979 18.543 3.49023C19.3897 3.92166 20.0783 4.6103 20.5098 5.45703C21.0002 6.41962 21 7.68005 21 10.2002V13.7998C21 16.3199 21.0002 17.5804 20.5098 18.543C20.0783 19.3897 19.3897 20.0783 18.543 20.5098C17.5804 21.0002 16.32 21 13.7998 21H10.2002C7.68007 21 6.41962 21.0002 5.45703 20.5098C4.6103 20.0783 3.92166 19.3897 3.49023 18.543C2.9998 17.5804 3 16.32 3 13.7998V10.2002C3 7.68002 2.9998 6.41963 3.49023 5.45703C3.92166 4.6103 4.6103 3.92166 5.45703 3.49023C6.41962 2.99983 7.68007 3 10.2002 3H13.7998ZM12 5.25C8.27208 5.25 5.25 8.27208 5.25 12C5.25 15.7279 8.27208 18.75 12 18.75C15.7279 18.75 18.75 15.7279 18.75 12C18.75 8.2721 15.7279 5.25003 12 5.25Z" fill="#30313E"/>
    <circle cx="12" cy="12" r="3" fill="#30313E"/>
</svg>