<svg width="24" height="24" viewBox="0 0 24 24" fill="none" xmlns="http://www.w3.org/2000/svg">
<path fill-rule="evenodd" clip-rule="evenodd" d="M0.0898438 6.18164C0.0898438 3.42022 2.32842 1.18164 5.08984 1.18164H16.7262C19.4876 1.18164 21.7262 3.42022 21.7262 6.18164V8.99961C21.7262 9.55189 21.2785 9.99961 20.7262 9.99961C20.1739 9.99961 19.7262 9.55189 19.7262 8.99961V6.18164C19.7262 4.52479 18.3831 3.18164 16.7262 3.18164H5.08984C3.43299 3.18164 2.08984 4.52479 2.08984 6.18164V17.818C2.08984 19.4749 3.43299 20.818 5.08985 20.818H16.7262C18.3831 20.818 19.7262 19.4749 19.7262 17.818V16.7996C19.7262 16.2473 20.1739 15.7996 20.7262 15.7996C21.2785 15.7996 21.7262 16.2473 21.7262 16.7996V17.818C21.7262 20.5794 19.4876 22.818 16.7262 22.818H5.08985C2.32842 22.818 0.0898438 20.5794 0.0898438 17.818V6.18164Z" fill="black"/>
<path fill-rule="evenodd" clip-rule="evenodd" d="M20.7271 10.7285H17.4544C16.7515 10.7285 16.1816 11.2983 16.1816 12.0012C16.1816 12.7041 16.7515 13.274 17.4544 13.274H20.7271C21.43 13.274 21.9998 12.7042 21.9998 12.0012C21.9998 11.2983 21.43 10.7285 20.7271 10.7285ZM17.4544 8.72852C15.6469 8.72852 14.1816 10.1938 14.1816 12.0012C14.1816 13.8087 15.6469 15.274 17.4544 15.274H20.7271C22.5346 15.274 23.9998 13.8087 23.9998 12.0012C23.9998 10.1938 22.5346 8.72852 20.7271 8.72852H17.4544Z" fill="black"/>
</svg>
