<svg width="24" height="24" viewBox="0 0 24 24" fill="none" xmlns="http://www.w3.org/2000/svg">
<path d="M4.91462 7.9107C8.82902 4.02977 15.1737 4.02977 19.0881 7.9107L19.5585 8.37904C19.7531 8.5735 19.7531 8.88846 19.5585 9.08292L17.9473 10.6797C17.85 10.7755 17.6905 10.7755 17.5932 10.6797L16.9444 10.036C14.214 7.33007 9.78599 7.33007 7.05564 10.036L6.36089 10.7235C6.26357 10.8193 6.10408 10.8193 6.00676 10.7235L4.39558 9.12674C4.20095 8.93228 4.20095 8.61732 4.39558 8.42286L4.91192 7.9107H4.91462ZM22.4213 11.2137L23.854 12.6352C24.0487 12.8297 24.0487 13.1446 23.854 13.3391L17.3877 19.7507C17.1931 19.9452 16.8741 19.9452 16.6794 19.7507L12.0892 15.2015C12.0406 15.1522 11.9622 15.1522 11.9108 15.2015L7.32057 19.7507C7.12593 19.9452 6.80694 19.9452 6.6123 19.7507L0.145979 13.3391C-0.0486596 13.1446 -0.0486596 12.8297 0.145979 12.6352L1.57873 11.2137C1.77337 11.0193 2.09236 11.0193 2.287 11.2137L6.87723 15.763C6.92588 15.8123 7.00428 15.8123 7.05564 15.763L11.6459 11.2137C11.8405 11.0193 12.1595 11.0193 12.3541 11.2137L16.9444 15.7657C16.993 15.815 17.0714 15.815 17.1228 15.7657L21.713 11.2165C21.9076 11.022 22.2266 11.022 22.4213 11.2165V11.2137Z" fill="#5570FF"/>
</svg>
