<svg width="16" height="16" viewBox="0 0 16 16" fill="none" xmlns="http://www.w3.org/2000/svg">
<g clip-path="url(#clip0_2632_9060)">
<circle cx="8" cy="8" r="8" fill="#F1464B"/>
<path d="M8.79107 4.72656L8.65257 9.81889H7.35285L7.21081 4.72656H8.79107ZM8.00271 12.0916C7.76834 12.0916 7.56711 12.0088 7.39902 11.843C7.23093 11.675 7.14807 11.4737 7.15044 11.2393C7.14807 11.0073 7.23093 10.8085 7.39902 10.6428C7.56711 10.477 7.76834 10.3942 8.00271 10.3942C8.22762 10.3942 8.4253 10.477 8.59575 10.6428C8.76621 10.8085 8.85262 11.0073 8.85499 11.2393C8.85262 11.3956 8.81119 11.5388 8.7307 11.669C8.65257 11.7969 8.54959 11.8999 8.42175 11.978C8.29391 12.0537 8.15423 12.0916 8.00271 12.0916Z" fill="white"/>
</g>
<defs>
<clipPath id="clip0_2632_9060">
<rect width="16" height="16" fill="white"/>
</clipPath>
</defs>
</svg>
