<svg viewBox="7 0 50 50" fill="none" xmlns="http://www.w3.org/2000/svg">
<path d="M42.7102 29.4289L32.3177 35.8051C32.1228 35.9247 31.8772 35.9247 31.6823 35.8051L21.2898 29.4289C21.1098 29.3184 21 29.1223 21 28.911V14.5604C21 14.2509 21.2509 14 21.5604 14C21.7734 14 21.968 14.1208 22.0625 14.3116L26.9567 24.1918C27.0842 24.4492 27.0141 24.7606 26.7886 24.9385L22.4594 28.3535C22.2331 28.532 22.3593 28.8958 22.6476 28.8958H28.7134C28.952 28.8958 29.1685 29.0355 29.2669 29.2528L31.7232 34.6783C31.831 34.9163 32.169 34.9163 32.2768 34.6783L34.7331 29.2528C34.8315 29.0355 35.048 28.8958 35.2866 28.8958H41.3524C41.6407 28.8958 41.7669 28.532 41.5406 28.3535L37.2114 24.9385C36.9859 24.7606 36.9158 24.4492 37.0433 24.1918L41.9375 14.3116C42.032 14.1208 42.2266 14 42.4396 14C42.7491 14 43 14.2509 43 14.5604V28.911C43 29.1223 42.8902 29.3184 42.7102 29.4289Z" fill="#FFFFFF"/>
</svg>
