<svg xmlns="http://www.w3.org/2000/svg" width="24" height="24" viewBox="0 0 24 24" fill="none">
    <path fill-rule="evenodd" clip-rule="evenodd" d="M0.913746 8.6136L5.76248 3.76486C6.23111 3.29623 6.99091 3.29623 7.45954 3.76486L12.3083 8.61359L10.6112 10.3107L7.81101 7.51045L7.84958 16.1683L5.44958 16.1683L5.41101 7.51045L2.6108 10.3107L0.913746 8.6136Z" fill="#30313E"/>
    <path fill-rule="evenodd" clip-rule="evenodd" d="M19.3193 13.6973C21.1036 14.5775 22.2333 15.8794 22.2334 17.332C22.2329 19.9827 18.4727 22.1317 13.834 22.1318L13.4014 22.126C8.97233 21.9977 5.4493 19.9084 5.43457 17.3477H7.83594C7.84593 17.4766 7.97645 18.0091 9.08496 18.6426C10.1807 19.2686 11.855 19.7324 13.834 19.7324C15.813 19.7324 17.4874 19.2686 18.583 18.6426C19.7443 17.9789 19.8337 17.426 19.834 17.332C19.8339 17.2389 19.7455 16.6858 18.583 16.0215C18.311 15.8661 18.0032 15.7206 17.6641 15.5898L20 14.5L19.3193 13.6973Z" fill="#30313E"/>
    <path d="M19.3447 8.90918C21.1147 9.78926 22.2333 11.0863 22.2334 12.5322C22.2334 15.1708 18.5078 17.3111 13.8984 17.3311V14.9307C15.8495 14.9207 17.4993 14.4621 18.583 13.8428C19.7463 13.1779 19.834 12.6248 19.834 12.5322C19.8339 12.4391 19.7457 11.8861 18.583 11.2217C18.0938 10.9421 17.4894 10.6946 16.7939 10.5068L19.3447 8.90918Z" fill="#30313E"/>
    <path fill-rule="evenodd" clip-rule="evenodd" d="M14.2656 2.91992C18.7039 3.04841 22.2332 5.14579 22.2334 7.71387C22.2329 10.3522 18.5075 12.4918 13.8984 12.5117V10.1123C15.8493 10.1023 17.4993 9.64363 18.583 9.02441C19.7443 8.36073 19.8337 7.80784 19.834 7.71387C19.8339 7.62076 19.7455 7.06769 18.583 6.40332C17.4874 5.77723 15.8131 5.31451 13.834 5.31445C13.2173 5.31445 12.6302 5.35864 12.0811 5.43945L10.0977 3.41406C11.2231 3.09414 12.4917 2.91406 13.834 2.91406L14.2656 2.91992Z" fill="#30313E"/>
</svg>