<svg width="24" height="24" viewBox="0 0 24 24" fill="none" xmlns="http://www.w3.org/2000/svg">
<path d="M17 3C19.2091 3 21 4.79086 21 7V7.19531H19.0049V7C19.0049 5.89267 18.1073 4.99512 17 4.99512H7C5.89267 4.99512 4.99512 5.89267 4.99512 7V17C4.99512 18.1073 5.89267 19.0049 7 19.0049H17C18.1073 19.0049 19.0049 18.1073 19.0049 17V16.3379H21V17C21 19.14 19.3194 20.8879 17.2061 20.9951L17 21H7L6.79395 20.9951C4.7488 20.8913 3.10865 19.2512 3.00488 17.2061L3 17V7C3 4.79086 4.79086 3 7 3H17Z" fill="#30313E"/>
<path d="M13.5343 6.90591L14.9444 8.31598L12.6062 10.6541H21.5127V12.6484H12.6062L14.9444 14.9865L13.5343 16.3966L9.49399 12.3563C9.10445 11.9668 9.10445 11.3358 9.49399 10.9462L13.5343 6.90591Z" fill="#30313E"/>
</svg>
