<svg width="150" height="50" viewBox="0 0 150 50" fill="none" xmlns="http://www.w3.org/2000/svg">
<path d="M42.7102 29.4289L32.3177 35.8051C32.1228 35.9247 31.8772 35.9247 31.6823 35.8051L21.2898 29.4289C21.1098 29.3184 21 29.1223 21 28.911V14.5604C21 14.2509 21.2509 14 21.5604 14C21.7734 14 21.968 14.1208 22.0625 14.3116L26.9567 24.1918C27.0842 24.4492 27.0141 24.7606 26.7886 24.9385L22.4594 28.3535C22.2331 28.532 22.3593 28.8958 22.6476 28.8958H28.7134C28.952 28.8958 29.1685 29.0355 29.2669 29.2528L31.7232 34.6783C31.831 34.9163 32.169 34.9163 32.2768 34.6783L34.7331 29.2528C34.8315 29.0355 35.048 28.8958 35.2866 28.8958H41.3524C41.6407 28.8958 41.7669 28.532 41.5406 28.3535L37.2114 24.9385C36.9859 24.7606 36.9158 24.4492 37.0433 24.1918L41.9375 14.3116C42.032 14.1208 42.2266 14 42.4396 14C42.7491 14 43 14.2509 43 14.5604V28.911C43 29.1223 42.8902 29.3184 42.7102 29.4289Z" fill="#FFFFFF"/>
<path d="M120.904 20.2547V17.9102H131V20.2547H127.378V29.8543H124.532V20.2547H120.904Z" fill="#FFFFFF"/>
<path d="M112.607 29.8563H109.504L113.534 17.9121H117.377L121.407 29.8563H118.305L115.499 20.9215H115.406L112.607 29.8563ZM112.193 25.1556H118.678V27.3484H112.193V25.1556Z" fill="#FFFFFF"/>
<path d="M109.072 22.2368H106.156C106.117 21.9374 106.037 21.6672 105.917 21.4261C105.796 21.1851 105.637 20.979 105.438 20.8079C105.24 20.6369 105.005 20.5066 104.733 20.4172C104.464 20.3239 104.167 20.2772 103.84 20.2772C103.261 20.2772 102.761 20.4191 102.341 20.703C101.925 20.9868 101.605 21.397 101.379 21.9335C101.158 22.4701 101.047 23.1194 101.047 23.8815C101.047 24.6746 101.16 25.3395 101.385 25.876C101.614 26.4087 101.935 26.8111 102.347 27.0833C102.763 27.3516 103.255 27.4857 103.823 27.4857C104.142 27.4857 104.431 27.4449 104.692 27.3632C104.956 27.2816 105.188 27.163 105.386 27.0075C105.588 26.8481 105.753 26.6556 105.882 26.4301C106.014 26.2007 106.105 25.9421 106.156 25.6544L109.072 25.6719C109.021 26.2007 108.868 26.7217 108.611 27.2349C108.358 27.7481 108.01 28.2167 107.567 28.6405C107.124 29.0604 106.583 29.3947 105.946 29.6436C105.312 29.8924 104.585 30.0168 103.765 30.0168C102.684 30.0168 101.716 29.7797 100.86 29.3053C100.009 28.8271 99.336 28.1311 98.8422 27.2174C98.3485 26.3037 98.1016 25.1917 98.1016 23.8815C98.1016 22.5673 98.3523 21.4534 98.8539 20.5397C99.3555 19.626 100.034 18.932 100.889 18.4576C101.745 17.9833 102.703 17.7461 103.765 17.7461C104.488 17.7461 105.156 17.8472 105.771 18.0494C106.385 18.2477 106.926 18.5393 107.392 18.9242C107.859 19.3052 108.238 19.7737 108.529 20.3297C108.821 20.8857 109.002 21.5214 109.072 22.2368Z" fill="#FFFFFF"/>
<path d="M91.1004 29.7449H86.6855V17.8008H91.0946C92.3116 17.8008 93.3594 18.0399 94.2381 18.5181C95.1207 18.9925 95.8011 19.6768 96.2794 20.571C96.7576 21.4614 96.9967 22.5267 96.9967 23.767C96.9967 25.0112 96.7576 26.0804 96.2794 26.9747C95.805 27.8689 95.1265 28.5552 94.2439 29.0334C93.3614 29.5078 92.3135 29.7449 91.1004 29.7449ZM89.5724 27.2838H90.9896C91.6584 27.2838 92.2241 27.171 92.6868 26.9455C93.1533 26.7161 93.5052 26.3448 93.7424 25.8316C93.9834 25.3145 94.104 24.6263 94.104 23.767C94.104 22.9078 93.9834 22.2235 93.7424 21.7141C93.5013 21.2009 93.1456 20.8315 92.6751 20.606C92.2085 20.3766 91.6331 20.2619 90.9488 20.2619H89.5724V27.2838Z" fill="#FFFFFF"/>
<path d="M77.9746 29.7449V17.8008H80.8615V27.4004H85.8305V29.7449H77.9746Z" fill="#FFFFFF"/>
<path d="M75.7814 17.8008V29.7449H72.8945V17.8008H75.7814Z" fill="#FFFFFF"/>
<path d="M58.6205 29.7449L55.1445 17.8008H58.3347L60.1368 25.6275H60.236L62.2947 17.8008H64.8958L66.9545 25.645H67.0537L68.8616 17.8008H72.046L68.5759 29.7449H65.7939L63.6419 22.5015H63.5486L61.3965 29.7449H58.6205Z" fill="#FFFFFF"/>
</svg>
