<svg width="150" height="50" viewBox="0 0 150 50" fill="none" xmlns="http://www.w3.org/2000/svg">
<g id="Logo">
<g id="WILDCAT &#226;&#128;&#147; LANDSCAPE LOGO &#226;&#128;&#147; WHITE">
<path d="M46 19.28H49.112L50.9687 27.8018H51.2771L53.2303 19.28H57.308L59.2612 27.8018H59.5696L61.4262 19.28H64.4043L61.7938 31.2375H57.2519L55.3579 22.9989H55.0682L53.1555 31.2375H48.6136L46.0031 19.28H46Z" fill="#2E2E2E"/>
<path d="M66.3388 28.678H68.7561V21.8396H66.3388V19.28H74.2076V21.8396H71.7903V28.678H74.2076V31.2375H66.3388V28.678Z" fill="#2E2E2E"/>
<path d="M76.5253 19.28H79.5782V28.6419H85.2415V31.2405H76.5253V19.28Z" fill="#2E2E2E"/>
<path d="M87.3317 19.28H92.4935C96.2629 19.28 98.9294 21.5415 98.9294 25.2603C98.9294 28.9791 96.3407 31.2405 92.4935 31.2405H87.3317V19.28ZM92.8611 28.6419C94.6773 28.6419 95.7987 27.2597 95.7987 25.2603C95.7987 23.2609 94.6773 21.8787 92.8611 21.8787H90.3877V28.6419H92.8611Z" fill="#2E2E2E"/>
<path d="M100.499 25.2603C100.499 21.5415 103.166 19 106.917 19C110.359 19 112.714 20.9422 112.832 23.7637H109.758C109.39 22.2491 108.54 21.6137 107.4 21.6137H106.241C104.733 21.6137 103.574 23.2578 103.574 25.2573C103.574 27.2567 104.733 28.9008 106.241 28.9008H107.4C108.54 28.9008 109.427 28.2655 109.798 26.7508H112.873C112.758 29.4971 110.359 31.5146 106.861 31.5146C103.362 31.5146 100.499 29.3856 100.499 25.2543V25.2603Z" fill="#2E2E2E"/>
<path d="M117.742 19.28H122.785L126.826 31.2375H123.695L122.844 28.7352H117.586L116.736 31.2375H113.701L117.742 19.28ZM122.013 26.269L120.661 22.2521H119.77L118.418 26.269H122.013Z" fill="#2E2E2E"/>
<path d="M129.981 21.8787H126.346V19.28H136.648V21.8787H133.034V31.2405H129.981V21.8787Z" fill="#2E2E2E"/>
</g>
<g id="WILDCAT &#226;&#128;&#147; LANDSCAPE LOGO &#226;&#128;&#147; WHITE_2">
<path d="M16 31.3549V13L20.9493 27.8526L16 31.3549Z" fill="#2E2E2E"/>
<path d="M32 31.3549V13L27.0489 27.8526L32 31.3549Z" fill="#2E2E2E"/>
<path d="M24 37L22.1173 31.3549H16L24 37Z" fill="#2E2E2E"/>
<path d="M24 37L25.8827 31.3549H32L24 37Z" fill="#2E2E2E"/>
</g>
</g>
</svg>
