<svg width="200" height="107" viewBox="0 0 200 107" fill="none" xmlns="http://www.w3.org/2000/svg">
<circle cx="4" cy="4" r="4" fill="#E6E7EB"/>
<circle cx="15" cy="4" r="4" fill="#E6E7EB"/>
<circle cx="26" cy="4" r="4" fill="#E6E7EB"/>
<circle cx="37" cy="4" r="4" fill="#E6E7EB"/>
<circle cx="48" cy="4" r="4" fill="#E6E7EB"/>
<circle cx="59" cy="4" r="4" fill="#E6E7EB"/>
<circle cx="70" cy="4" r="4" fill="#E6E7EB"/>
<circle cx="81" cy="4" r="4" fill="#E6E7EB"/>
<circle cx="92" cy="4" r="4" fill="#E6E7EB"/>
<circle cx="103" cy="4" r="4" fill="#E6E7EB"/>
<circle cx="114" cy="4" r="4" fill="#E6E7EB"/>
<circle cx="125" cy="4" r="4" fill="#E6E7EB"/>
<circle cx="136" cy="4" r="4" fill="#E6E7EB"/>
<circle cx="147" cy="4" r="4" fill="#E6E7EB"/>
<circle cx="158" cy="4" r="4" fill="#E6E7EB"/>
<circle cx="169" cy="4" r="4" fill="#E6E7EB"/>
<circle cx="180" cy="4" r="4" fill="#E6E7EB"/>
<circle cx="191" cy="4" r="4" fill="#E6E7EB"/>
<circle cx="4" cy="15" r="4" fill="#E6E7EB"/>
<circle cx="15" cy="15" r="4" fill="#E6E7EB"/>
<circle cx="26" cy="15" r="4" fill="#E6E7EB"/>
<circle cx="37" cy="15" r="4" fill="#E6E7EB"/>
<circle cx="48" cy="15" r="4" fill="#E6E7EB"/>
<circle cx="59" cy="15" r="4" fill="#E6E7EB"/>
<circle cx="70" cy="15" r="4" fill="#E6E7EB"/>
<circle cx="81" cy="15" r="4" fill="#E6E7EB"/>
<circle cx="92" cy="15" r="4" fill="#E6E7EB"/>
<circle cx="103" cy="15" r="4" fill="#E6E7EB"/>
<circle cx="114" cy="15" r="4" fill="#E6E7EB"/>
<circle cx="125" cy="15" r="4" fill="#E6E7EB"/>
<circle cx="136" cy="15" r="4" fill="#E6E7EB"/>
<circle cx="147" cy="15" r="4" fill="#E6E7EB"/>
<circle cx="158" cy="15" r="4" fill="#E6E7EB"/>
<circle cx="169" cy="15" r="4" fill="#E6E7EB"/>
<circle cx="180" cy="15" r="4" fill="#E6E7EB"/>
<circle cx="191" cy="15" r="4" fill="#E6E7EB"/>
<circle cx="4" cy="26" r="4" fill="#E6E7EB"/>
<circle cx="15" cy="26" r="4" fill="#E6E7EB"/>
<circle cx="26" cy="26" r="4" fill="#E6E7EB"/>
<circle cx="37" cy="26" r="4" fill="#E6E7EB"/>
<circle cx="48" cy="26" r="4" fill="#E6E7EB"/>
<circle cx="59" cy="26" r="4" fill="#E6E7EB"/>
<circle cx="70" cy="26" r="4" fill="#E6E7EB"/>
<circle cx="81" cy="26" r="4" fill="#E6E7EB"/>
<circle cx="92" cy="26" r="4" fill="#E6E7EB"/>
<circle cx="103" cy="26" r="4" fill="#E6E7EB"/>
<circle cx="114" cy="26" r="4" fill="#E6E7EB"/>
<circle cx="125" cy="26" r="4" fill="#E6E7EB"/>
<circle cx="136" cy="26" r="4" fill="#E6E7EB"/>
<circle cx="147" cy="26" r="4" fill="#E6E7EB"/>
<circle cx="158" cy="26" r="4" fill="#E6E7EB"/>
<circle cx="169" cy="26" r="4" fill="#E6E7EB"/>
<circle cx="180" cy="26" r="4" fill="#E6E7EB"/>
<circle cx="191" cy="26" r="4" fill="#E6E7EB"/>
<circle cx="4" cy="37" r="4" fill="#E6E7EB"/>
<circle cx="15" cy="37" r="4" fill="#E6E7EB"/>
<circle cx="26" cy="37" r="4" fill="#E6E7EB"/>
<circle cx="37" cy="37" r="4" fill="#E6E7EB"/>
<circle cx="48" cy="37" r="4" fill="#E6E7EB"/>
<circle cx="59" cy="37" r="4" fill="#E6E7EB"/>
<circle cx="70" cy="37" r="4" fill="#E6E7EB"/>
<circle cx="81" cy="37" r="4" fill="#E6E7EB"/>
<circle cx="92" cy="37" r="4" fill="#E6E7EB"/>
<circle cx="103" cy="37" r="4" fill="#E6E7EB"/>
<circle cx="114" cy="37" r="4" fill="#E6E7EB"/>
<circle cx="125" cy="37" r="4" fill="#E6E7EB"/>
<circle cx="136" cy="37" r="4" fill="#E6E7EB"/>
<circle cx="147" cy="37" r="4" fill="#E6E7EB"/>
<circle cx="158" cy="37" r="4" fill="#E6E7EB"/>
<circle cx="169" cy="37" r="4" fill="#E6E7EB"/>
<circle cx="180" cy="37" r="4" fill="#E6E7EB"/>
<circle cx="191" cy="37" r="4" fill="#E6E7EB"/>
<circle cx="4" cy="48" r="4" fill="#E6E7EB"/>
<circle cx="15" cy="48" r="4" fill="#E6E7EB"/>
<circle cx="26" cy="48" r="4" fill="#E6E7EB"/>
<circle cx="37" cy="48" r="4" fill="#E6E7EB"/>
<circle cx="48" cy="48" r="4" fill="#E6E7EB"/>
<circle cx="59" cy="48" r="4" fill="#E6E7EB"/>
<circle cx="70" cy="48" r="4" fill="#E6E7EB"/>
<circle cx="81" cy="48" r="4" fill="#E6E7EB"/>
<circle cx="92" cy="48" r="4" fill="#E6E7EB"/>
<circle cx="103" cy="48" r="4" fill="#E6E7EB"/>
<circle cx="114" cy="48" r="4" fill="#E6E7EB"/>
<circle cx="125" cy="48" r="4" fill="#E6E7EB"/>
<circle cx="136" cy="48" r="4" fill="#E6E7EB"/>
<circle cx="147" cy="48" r="4" fill="#E6E7EB"/>
<circle cx="158" cy="48" r="4" fill="#E6E7EB"/>
<circle cx="169" cy="48" r="4" fill="#E6E7EB"/>
<circle cx="180" cy="48" r="4" fill="#E6E7EB"/>
<circle cx="191" cy="48" r="4" fill="#E6E7EB"/>
<circle cx="4" cy="59" r="4" fill="#E6E7EB"/>
<circle cx="15" cy="59" r="4" fill="#E6E7EB"/>
<circle cx="26" cy="59" r="4" fill="#E6E7EB"/>
<circle cx="37" cy="59" r="4" fill="#E6E7EB"/>
<circle cx="48" cy="59" r="4" fill="#E6E7EB"/>
<circle cx="59" cy="59" r="4" fill="#E6E7EB"/>
<circle cx="70" cy="59" r="4" fill="#E6E7EB"/>
<circle cx="81" cy="59" r="4" fill="#E6E7EB"/>
<circle cx="92" cy="59" r="4" fill="#E6E7EB"/>
<circle cx="103" cy="59" r="4" fill="#E6E7EB"/>
<circle cx="114" cy="59" r="4" fill="#E6E7EB"/>
<circle cx="125" cy="59" r="4" fill="#E6E7EB"/>
<circle cx="136" cy="59" r="4" fill="#E6E7EB"/>
<circle cx="147" cy="59" r="4" fill="#E6E7EB"/>
<circle cx="158" cy="59" r="4" fill="#E6E7EB"/>
<circle cx="169" cy="59" r="4" fill="#E6E7EB"/>
<circle cx="180" cy="59" r="4" fill="#E6E7EB"/>
<circle cx="191" cy="59" r="4" fill="#E6E7EB"/>
<circle cx="4" cy="70" r="4" fill="#E6E7EB"/>
<circle cx="15" cy="70" r="4" fill="#E6E7EB"/>
<circle cx="26" cy="70" r="4" fill="#E6E7EB"/>
<circle cx="37" cy="70" r="4" fill="#E6E7EB"/>
<circle cx="48" cy="70" r="4" fill="#E6E7EB"/>
<circle cx="59" cy="70" r="4" fill="#E6E7EB"/>
<circle cx="70" cy="70" r="4" fill="#E6E7EB"/>
<circle cx="81" cy="70" r="4" fill="#E6E7EB"/>
<circle cx="92" cy="70" r="4" fill="#E6E7EB"/>
<circle cx="103" cy="70" r="4" fill="#E6E7EB"/>
<circle cx="114" cy="70" r="4" fill="#E6E7EB"/>
<circle cx="125" cy="70" r="4" fill="#E6E7EB"/>
<circle cx="136" cy="70" r="4" fill="#E6E7EB"/>
<circle cx="147" cy="70" r="4" fill="#E6E7EB"/>
<circle cx="158" cy="70" r="4" fill="#E6E7EB"/>
<circle cx="169" cy="70" r="4" fill="#E6E7EB"/>
<circle cx="180" cy="70" r="4" fill="#E6E7EB"/>
<circle cx="191" cy="70" r="4" fill="#E6E7EB"/>
<circle cx="4" cy="81" r="4" fill="#E6E7EB"/>
<circle cx="15" cy="81" r="4" fill="#E6E7EB"/>
<circle cx="26" cy="81" r="4" fill="#E6E7EB"/>
<circle cx="37" cy="81" r="4" fill="#E6E7EB"/>
<circle cx="48" cy="81" r="4" fill="#E6E7EB"/>
<circle cx="59" cy="81" r="4" fill="#E6E7EB"/>
<circle cx="70" cy="81" r="4" fill="#E6E7EB"/>
<circle cx="81" cy="81" r="4" fill="#E6E7EB"/>
<circle cx="92" cy="81" r="4" fill="#E6E7EB"/>
<circle cx="103" cy="81" r="4" fill="#E6E7EB"/>
<circle cx="114" cy="81" r="4" fill="#E6E7EB"/>
<circle cx="125" cy="81" r="4" fill="#E6E7EB"/>
<circle cx="136" cy="81" r="4" fill="#E6E7EB"/>
<circle cx="147" cy="81" r="4" fill="#E6E7EB"/>
<circle cx="158" cy="81" r="4" fill="#E6E7EB"/>
<circle cx="169" cy="81" r="4" fill="#E6E7EB"/>
<circle cx="180" cy="81" r="4" fill="#E6E7EB"/>
<circle cx="191" cy="81" r="4" fill="#E6E7EB"/>
<circle cx="4" cy="92" r="4" fill="#E6E7EB"/>
<circle cx="15" cy="92" r="4" fill="#E6E7EB"/>
<circle cx="26" cy="92" r="4" fill="#E6E7EB"/>
<circle cx="37" cy="92" r="4" fill="#E6E7EB"/>
<circle cx="48" cy="92" r="4" fill="#E6E7EB"/>
<circle cx="59" cy="92" r="4" fill="#E6E7EB"/>
<circle cx="70" cy="92" r="4" fill="#E6E7EB"/>
<circle cx="81" cy="92" r="4" fill="#E6E7EB"/>
<circle cx="92" cy="92" r="4" fill="#E6E7EB"/>
<circle cx="103" cy="92" r="4" fill="#E6E7EB"/>
<circle cx="114" cy="92" r="4" fill="#E6E7EB"/>
<circle cx="125" cy="92" r="4" fill="#E6E7EB"/>
<circle cx="136" cy="92" r="4" fill="#E6E7EB"/>
<circle cx="147" cy="92" r="4" fill="#E6E7EB"/>
<circle cx="158" cy="92" r="4" fill="#E6E7EB"/>
<circle cx="169" cy="92" r="4" fill="#E6E7EB"/>
<circle cx="180" cy="92" r="4" fill="#E6E7EB"/>
<circle cx="191" cy="92" r="4" fill="#E6E7EB"/>
<circle cx="4" cy="103" r="4" fill="#E6E7EB"/>
<circle cx="15" cy="103" r="4" fill="#E6E7EB"/>
<circle cx="26" cy="103" r="4" fill="#E6E7EB"/>
<circle cx="37" cy="103" r="4" fill="#E6E7EB"/>
<circle cx="48" cy="103" r="4" fill="#E6E7EB"/>
<circle cx="59" cy="103" r="4" fill="#E6E7EB"/>
<circle cx="70" cy="103" r="4" fill="#E6E7EB"/>
<circle cx="81" cy="103" r="4" fill="#E6E7EB"/>
<circle cx="92" cy="103" r="4" fill="#E6E7EB"/>
<circle cx="103" cy="103" r="4" fill="#4971FF"/>
</svg>
