<svg width="268" height="113" viewBox="0 0 268 113" fill="none" xmlns="http://www.w3.org/2000/svg">
<path opacity="0.5" d="M1 0.5V112.5" stroke="#BEBECE" stroke-linecap="round" stroke-linejoin="round"/>
<path opacity="0.5" d="M117 0.5V112.5" stroke="#BEBECE" stroke-linecap="round" stroke-linejoin="round"/>
<path opacity="0.2" d="M59 0.5V112.5" stroke="#BEBECE" stroke-linecap="round" stroke-linejoin="round"/>
<path opacity="0.2" d="M175 0.5V112.5" stroke="#BEBECE" stroke-linecap="round" stroke-linejoin="round"/>
<path opacity="0.5" d="M233 0.5V112.5" stroke="#BEBECE" stroke-linecap="round" stroke-linejoin="round"/>
<path d="M1 100.5H32.0554C34.1951 100.5 36.2959 99.9279 38.1402 98.8429L53.5621 89.77C55.9813 88.3468 58.8229 87.8166 61.5926 88.2717L80.9788 91.4571C83.3084 91.8399 85.6992 91.527 87.8519 90.5575L122.365 75.0149C124.362 74.1154 126.568 73.7798 128.742 74.0445L154.685 77.202C159.276 77.7608 163.779 75.6318 166.261 71.7295L181.652 47.5283C185.979 40.7241 195.651 40.0389 200.894 46.1652L213.823 61.2715C219.079 67.4126 228.78 66.7064 233.091 59.8688L268 4.5" stroke="#4971FF" stroke-width="2"/>
</svg>
