<svg width="24" height="24" viewBox="0 0 24 24" fill="none" xmlns="http://www.w3.org/2000/svg">
    <g clip-path="url(#clip0_17300_86537)">
        <path d="M12.0057 0.216309H12.0061C18.4836 0.216309 23.7346 5.46735 23.7346 11.9449V11.9453C23.7346 18.4228 18.4836 23.6738 12.0061 23.6738H12.0057C5.52814 23.6738 0.2771 18.4228 0.2771 11.9453V11.9449C0.2771 5.46735 5.52814 0.216309 12.0057 0.216309Z" fill="#111111" stroke="#111111" stroke-width="0.432065"/>
        <path d="M12.0061 0H12.0056C5.4088 0 0.0610352 5.34776 0.0610352 11.9446V11.945C0.0610352 18.5418 5.4088 23.8895 12.0056 23.8895H12.0061C18.6029 23.8895 23.9506 18.5418 23.9506 11.945V11.9446C23.9506 5.34776 18.6029 0 12.0061 0Z" fill="url(#paint0_radial_17300_86537)" fill-opacity="0.7"/>
        <path d="M12.0056 0.219238H12.006C18.482 0.219238 23.7318 5.46906 23.7318 11.9451V11.9455C23.7318 18.4215 18.482 23.6713 12.006 23.6713H12.0056C5.5296 23.6713 0.279785 18.4215 0.279785 11.9455V11.9451C0.279785 5.46906 5.5296 0.219238 12.0056 0.219238Z" stroke="url(#paint1_linear_17300_86537)" stroke-width="0.437534"/>
        <path fill-rule="evenodd" clip-rule="evenodd" d="M9.39213 6.38965H9.13762L8.97256 6.58342L4.71231 11.5874L4.4082 11.9447L4.71231 12.3019L8.97256 17.3059L9.13762 17.4997H9.39213H17.0621H17.6131V16.9487V13.7675H16.5111V16.3976H10.5972L14.1367 12.3051L14.4485 11.9447L14.1367 11.5842L10.5972 7.49169H16.5111V10.1218H17.6131V6.94067V6.38965H17.0621H9.39213ZM9.39538 7.78685L5.85554 11.9447L9.39538 16.1025L12.9914 11.9447L9.39538 7.78685Z" fill="white"/>
    </g>
    <defs>
        <radialGradient id="paint0_radial_17300_86537" cx="0" cy="0" r="1" gradientUnits="userSpaceOnUse" gradientTransform="translate(12.0315 3.48818) rotate(90) scale(25.1848 17.7276)">
            <stop offset="0.03125" stop-color="#3A3A3A"/>
            <stop offset="1" stop-color="#1C1C1C"/>
        </radialGradient>
        <linearGradient id="paint1_linear_17300_86537" x1="12.0058" y1="-0.224904" x2="12.0058" y2="24.1155" gradientUnits="userSpaceOnUse">
            <stop stop-color="white"/>
            <stop offset="1" stop-color="#111111"/>
        </linearGradient>
        <clipPath id="clip0_17300_86537">
            <rect width="24" height="23.9388" fill="white"/>
        </clipPath>
    </defs>
</svg>
