<svg xmlns="http://www.w3.org/2000/svg" width="24" height="24" viewBox="0 0 24 24" fill="none">
    <g clip-path="url(#clip0_17300_86542)">
        <mask id="mask0_17300_86542" style="mask-type:luminance" maskUnits="userSpaceOnUse" x="0" y="0" width="24" height="24">
            <path d="M0 12C0 5.37258 5.37258 0 12 0C18.6275 0 24 5.37258 24 12C24 18.6275 18.6275 24 12 24C5.37258 24 0 18.6275 0 12Z" fill="white"/>
        </mask>
        <g mask="url(#mask0_17300_86542)">
            <path d="M24 12C24 5.37258 18.6274 0 12 0C5.37258 0 0 5.37258 0 12C0 18.6274 5.37258 24 12 24C18.6274 24 24 18.6274 24 12Z" fill="white"/>
            <path d="M10.3804 1.62655C4.6608 2.5194 0.733462 7.89967 1.62631 13.6193C2.51916 19.339 7.89943 23.2663 13.6191 22.3735C19.3387 21.4806 23.266 16.1003 22.3732 10.3807C21.4804 4.66105 16.1001 0.733706 10.3804 1.62655ZM10.5921 2.98256C11.2437 2.88085 11.8906 2.85141 12.5234 2.88805C11.6947 3.91057 10.4456 4.9626 8.5655 5.7499C6.78712 6.49492 4.96331 7.26023 3.56319 8.52405C4.74122 5.67735 7.3316 3.49153 10.5921 2.98256ZM2.98232 13.4077C2.90569 12.9168 2.87044 12.4285 2.87303 11.9467C3.04254 11.4709 3.2582 11.0372 3.52163 10.6426C4.72087 8.84827 6.84606 7.9581 9.09576 7.01588C11.6584 5.94285 13.1794 4.41154 14.0675 3.11164C14.5419 3.22303 15.0046 3.37096 15.4507 3.55414C15.3296 3.93558 15.1344 4.42444 14.8201 4.96939C14.145 6.13948 12.7659 7.81395 10.0301 9.14392C8.21353 10.0268 5.95365 11.1263 4.61874 13.5953C4.24852 14.2802 3.95893 15.0457 3.74785 15.9002C3.38293 15.1286 3.12054 14.2931 2.98232 13.4077ZM4.82622 17.6383C5.4199 12.9125 7.97211 11.6703 10.6311 10.3773C13.0582 9.19695 14.5633 7.76047 15.4969 6.45768C15.1033 8.6388 14.0926 10.7155 12.4776 12.654C10.8222 14.6404 9.18118 17.062 9.56638 19.9612C9.60546 20.2559 9.66531 20.5501 9.74496 20.8426C7.79586 20.3426 6.06427 19.2071 4.82622 17.6383ZM13.5315 13.5326C16.4113 10.0772 17.0378 6.69636 17.0568 4.46884C17.057 4.44796 17.0568 4.42855 17.0569 4.40769C18.5934 5.43188 19.8175 6.91531 20.5087 8.69647C20.4202 9.26385 20.2441 10.0623 19.8913 10.939C18.9935 13.1696 17.4337 14.8383 15.253 15.8982C13.7748 16.6172 12.1537 17.5023 10.8828 19.0508C10.903 16.9912 12.1534 15.1862 13.5315 13.5326ZM13.4081 21.0173C12.688 21.1297 11.9737 21.1538 11.2768 21.0986C11.2596 21.0554 11.2432 21.0122 11.2273 20.9688C12.2489 19.1619 13.8213 18.1206 15.8528 17.1332C18.8861 15.6582 20.3856 13.3267 21.1166 11.5672C21.3387 16.1623 18.0538 20.2921 13.4081 21.0173Z" fill="#0D0F11"/>
        </g>
    </g>
    <defs>
        <clipPath id="clip0_17300_86542">
            <rect width="24" height="24" fill="white"/>
        </clipPath>
    </defs>
</svg>